<svg xmlns="http://www.w3.org/2000/svg" xmlns:xlink="http://www.w3.org/1999/xlink" viewBox="0 0 201.93 391.7"><defs><style>.cls-1{fill:#f7f7f7;}.cls-2{clip-path:url(#clip-path);}.cls-3{fill:#191847;}.cls-4{fill:#2f3676;}</style><clipPath id="clip-path" transform="translate(0 220.15)"><rect class="cls-1" width="271.55" height="171.55" rx="17.2"/></clipPath></defs><g id="Layer_2" data-name="Layer 2"><g id="Layer_1-2" data-name="Layer 1"><rect class="cls-1" y="220.15" width="271.55" height="171.55" rx="17.2"/><g class="cls-2"><path class="cls-3" d="M75.2,85.47c11.87,8.58,25.26,14,39,18.78,3,1,6,1.92,9,2.8,5.23,1.53,5.24,1.5,5.24,7.07H73.13c-4.33-.67-8.73-.7-13.07-1.29a2.91,2.91,0,0,0-3,1.29h-14c.44-9,1-17.89,1.25-26.85.06-2.34.94-2.76,2.85-2.55a5.26,5.26,0,0,1,3.27-1c7.08-.06,14.16-.11,21.24,0C73.07,83.76,74.51,83.93,75.2,85.47Z" transform="translate(0 220.15)"/><path class="cls-4" d="M80.33,85.47a7.21,7.21,0,0,0-4-.7l-24,0c16.18-44.41,32.41-88.8,48-133.41,5.84-16.66,7.68-33.65,8.69-51,2.25-38.94,3.29-77.92,3.85-116.92,0-2.8.91-3.37,3.54-3.36,27.49.09,55,0,82.46.13,1,0,3.06-1.33,3.06,1.34-2.89,7.32-4.54,15-6.8,22.53-5.17,17.17-10,34.44-15.23,51.6-5.15,16.95-10.6,33.81-15.9,50.72a22.17,22.17,0,0,0-.49,3.06c-.71.13-.85.77-1,1.28-7.28,22.9-18.68,44-29,65.5C115.92,12.71,98.06,49.06,80.33,85.47Z" transform="translate(0 220.15)"/></g></g></g></svg>