<svg xmlns="http://www.w3.org/2000/svg" xmlns:xlink="http://www.w3.org/1999/xlink" viewBox="0 0 171.55 171.55"><defs><style>.cls-1{fill:#f7f7f7;}.cls-2{clip-path:url(#clip-path);}.cls-3{fill:#fe8001;}.cls-4{fill:#191847;}</style><clipPath id="clip-path"><rect class="cls-1" width="171.55" height="171.55" rx="17.2"/></clipPath></defs><g id="Layer_2" data-name="Layer 2"><g id="Layer_1-2" data-name="Layer 1"><rect class="cls-1" width="171.55" height="171.55" rx="17.2"/><g class="cls-2"><path class="cls-3" d="M54.7,145.18,67.09,87.35a2.24,2.24,0,0,1,.55-1.43c2.29-2.18,2.07-4.19.36-6.83-3.12-4.82-2.2-9.49,2-12.82a7.35,7.35,0,0,1,5.77-1.82,5.84,5.84,0,0,0,5.79-2.32,11.76,11.76,0,0,1,4-3c1.48-.7,3.48-1,2.8-3.43-.59-2.11-1-4.38-3.75-4.92A34.4,34.4,0,0,0,77.66,50,26.94,26.94,0,0,1,70,48.87c-.76-.22-1.5-.66-1.45-1.59s.81-1.25,1.58-1.48a11.24,11.24,0,0,1,3.47-.32,213.65,213.65,0,0,0,36.79-2.31c1-.15,2.07-.44,2.92.48,6.9,13.22,7.48,27.46,6.53,41.9a48.12,48.12,0,0,1-3.33,15.59c-2.65,6.34-5.45,7.85-12.12,6.66-6.48-1.15-12.21-4.17-18.52-7.42,2.14,15.28,4.21,30,6.29,44.8Z"/><path class="cls-4" d="M113.3,43.65C98.69,46.74,83.82,46.49,69,47c1.87,1.74,4.22,1.33,6.34,1.7,1.9.34,3.88.17,5.82.35,6.61.61,7.48,1.52,8.9,8.14.3,1.43.07,1.76-1.3,1.95-3.43.49-5.86,2.59-7.84,5.29-.89,1.21-1.71,2.11-3.52,1.41C73.64,64.43,70.74,66,68.6,69c-2.34,3.29-1.69,6.71.27,9.89,2.9,4.72,2.87,5.13-1.78,8.44A10.22,10.22,0,0,1,62,84C54.5,74.85,50.77,64.3,51.88,52.57c.92-9.81,6.6-16.87,15.5-20.89,11.78-5.31,23.88-5.31,35.93-.88,5.07,1.87,9,5.17,10.37,10.76C113.86,42.29,114.17,43.09,113.3,43.65Z"/></g></g></g></svg>