<svg xmlns="http://www.w3.org/2000/svg" viewBox="0 0 330.06 303.37"><defs><style>.cls-1{fill:#eee6d4;}.cls-2{fill:#bbc8dd;}.cls-3{fill:#6f7174;}.cls-4{fill:#4d4e50;}.cls-5{fill:#303043;}.cls-6{fill:#727272;}.cls-7{fill:#595981;}.cls-11,.cls-8{fill:#df9b30;}.cls-9{fill:#a36233;}.cls-10{fill:#fff;}.cls-11{font-size:15.94px;font-family:Roboto-Medium, Roboto;font-weight:500;}</style></defs><title>Asset 33505page</title><g id="Layer_2" data-name="Layer 2"><g id="Layer_2-2" data-name="Layer 2"><ellipse class="cls-1" cx="154.49" cy="130.95" rx="117.95" ry="119.93"/><path class="cls-1" d="M154.49,261.91a126.88,126.88,0,0,1-91.07-38.36,132.51,132.51,0,0,1,0-185.19,127.27,127.27,0,0,1,182.13,0,132.51,132.51,0,0,1,0,185.19A126.84,126.84,0,0,1,154.49,261.91Zm0-259.83C84.6,2.08,27.75,59.89,27.75,131S84.6,259.83,154.49,259.83,281.23,202,281.23,131,224.37,2.08,154.49,2.08Z"/><path class="cls-2" d="M231.74,274.44a3.14,3.14,0,0,1-3.12,3.16h-92.3a3.14,3.14,0,0,1-3.11-3.16v-.25a3.15,3.15,0,0,1,3.11-3.17h92.3a3.15,3.15,0,0,1,3.12,3.17Z"/><rect class="cls-3" x="179.49" y="201.2" width="9.45" height="19.73"/><path class="cls-4" d="M188.94,201.2v7l-9.45-.42V201.2Z"/><path class="cls-5" d="M218.3,194.44a8.21,8.21,0,0,1-8.14,8.28H158.27a8.21,8.21,0,0,1-8.14-8.28v-.14a8.21,8.21,0,0,1,8.14-8.28h51.89a8.21,8.21,0,0,1,8.14,8.28Z"/><path class="cls-5" d="M151.13,258.88h-4v-9a6.57,6.57,0,0,1,1.77-5c1.31-1.27,3.06-1.86,5.45-2.25a9.87,9.87,0,0,1,2.94,0H180v2.53h-22.8a7.88,7.88,0,0,0-5.19,2,3.76,3.76,0,0,0-.87,2.7Z"/><rect class="cls-5" x="166.05" y="245.22" width="4.48" height="23.78"/><path class="cls-6" d="M170.37,267.44a8.11,8.11,0,0,1-.05.86,6.74,6.74,0,0,1-13.4,0,8.11,8.11,0,0,1,0-.86,6.75,6.75,0,1,1,13.5,0Z"/><path class="cls-5" d="M170.37,267.54c0,.29,0,.45-.05.95h-13.4c0-.5,0-.66,0-.95a6.75,6.75,0,1,1,13.5,0Z"/><rect class="cls-5" x="147.15" y="247.75" width="3.98" height="21.25"/><path class="cls-6" d="M151.4,267.44a8.11,8.11,0,0,1-.05.86,6.74,6.74,0,0,1-13.4,0,8.11,8.11,0,0,1,0-.86,6.75,6.75,0,1,1,13.5,0Z"/><path class="cls-5" d="M151.4,267.54c0,.29,0,.45-.05.95H138c0-.5,0-.66,0-.95a6.75,6.75,0,1,1,13.5,0Z"/><rect class="cls-5" x="198.4" y="245.22" width="4.48" height="23.78"/><path class="cls-6" d="M203,267.44a8.11,8.11,0,0,1-.05.86,6.73,6.73,0,0,1-13.39,0,6.11,6.11,0,0,1-.06-.86,6.75,6.75,0,1,1,13.5,0Z"/><path class="cls-5" d="M203,267.54c0,.29,0,.45-.05.95H189.53c0-.5-.06-.66-.06-.95a6.75,6.75,0,1,1,13.5,0Z"/><path class="cls-5" d="M216.31,258.88h4.48v-9a6.65,6.65,0,0,0-1.89-5c-1.31-1.27-3.11-1.86-5.5-2.25a10.24,10.24,0,0,0-3,0H188v2.53h22.57a7.59,7.59,0,0,1,5.06,2,3.7,3.7,0,0,1,.73,2.7Z"/><rect class="cls-5" x="216.31" y="247.75" width="4.48" height="21.25"/><path class="cls-6" d="M207,267.44a8.11,8.11,0,0,0,0,.86,6.74,6.74,0,0,0,13.4,0,8.11,8.11,0,0,0,.05-.86,6.75,6.75,0,1,0-13.5,0Z"/><path class="cls-5" d="M207,267.54c0,.29,0,.45,0,.95h13.4c0-.5.05-.66.05-.95a6.75,6.75,0,1,0-13.5,0Z"/><rect class="cls-5" x="177.5" y="217.39" width="13.43" height="30.36"/><rect class="cls-7" x="179.99" y="217.39" width="3.98" height="30.36"/><rect class="cls-5" x="174.51" y="198.67" width="19.9" height="6.58"/><path class="cls-5" d="M174.22,213.85a1.4,1.4,0,0,1-1.33,1.52H149.77a1.4,1.4,0,0,1-1.33-1.52h0a1.4,1.4,0,0,1,1.33-1.52h23.12a1.4,1.4,0,0,1,1.33,1.52Z"/><path class="cls-5" d="M171.59,214.88a1,1,0,0,1-.67-.25,1.07,1.07,0,0,1-.12-1.49L181,200.94a1,1,0,0,1,1.46-.12,1.06,1.06,0,0,1,.11,1.48l-10.22,12.21A1.06,1.06,0,0,1,171.59,214.88Z"/><path class="cls-5" d="M110.68,132.31a1.19,1.19,0,0,1-.51-.12,1.21,1.21,0,0,1-.55-1.61l15.56-33a1.18,1.18,0,0,1,1.58-.57,1.21,1.21,0,0,1,.55,1.61l-15.56,33A1.18,1.18,0,0,1,110.68,132.31Z"/><path class="cls-8" d="M247.55,178.74c-2.38-2.55-5.82-3.46-10.59-4.09a232.5,232.5,0,0,0-25-1.31c-6.95-.09-23.25-1-25.45-10.11-.73-3-.43-6.77-.6-9.9q-.24-4.28-.43-8.55c-.23-5.25-.45-10.5-.74-15.75-.54-9.61-1-19.22-1.54-28.83-.11-1.9-.32-3.81-.32-5.72,0-5.47-4.12-12.6-11.18-13.56-13.34-1.81-41.79-5-44.46,0,0,0,6.43,82.17,8.08,88.68s23.92,12.18,26.5,13.32c1.7.75,11.2,1,18.77,1,4.47,5.63,6.88,11.4,16.45,12.28,2.21.2,42-2.65,43.47-2.55a8.82,8.82,0,0,0,9.43-8.21A9,9,0,0,0,247.55,178.74Z"/><path class="cls-9" d="M160.81,195.07c-12.08-1.11-21.49-4.83-28.05-11.1s-7.73-12.75-7.91-14c0-.3-.07-.61-.08-.91l-3.53-81.16a8.9,8.9,0,1,1,17.77-.8l1,22.42c.57,13.38,1,26.79,1.76,40.16.16,2.84.26,5.66.3,8.51.06,4.58-.33,10.53,3.93,13.41a27.22,27.22,0,0,0,11,4.69,69.37,69.37,0,0,0,11,1,226.27,226.27,0,0,1,25,1.29c4.76.63,8.2,1.55,10.58,4.16a9.38,9.38,0,0,1,2.41,6.86c-.32,5-3.44,7.33-8.34,7a219.57,219.57,0,0,1-29.82-1.24C165.33,195.15,163,195.27,160.81,195.07Z"/><path class="cls-9" d="M178.22,103.13c-5.11-.47-10.32-.21-15.44-.21h-7.73a68.55,68.55,0,0,0-7.72.12.36.36,0,0,0,0,.71,71,71,0,0,0,7.72.12h7.73c5.12,0,10.33.26,15.44-.2A.28.28,0,0,0,178.22,103.13Z"/><path class="cls-9" d="M178.22,126.34c-5.11-.47-10.32-.21-15.44-.21h-7.73a71,71,0,0,0-7.72.12.36.36,0,0,0,0,.72,71,71,0,0,0,7.72.12h7.73c5.12,0,10.33.26,15.44-.21A.27.27,0,0,0,178.22,126.34Z"/><path class="cls-9" d="M178.84,140.11c-5.1-.58-10.4-.18-15.54-.18h-7.79a62.3,62.3,0,0,0-8.31.22.22.22,0,0,0,0,.43,57.44,57.44,0,0,0,7.76.22h15.57a74.26,74.26,0,0,0,8.31-.19A.26.26,0,0,0,178.84,140.11Z"/><path class="cls-9" d="M178.84,114.19c-5.1-.58-10.4-.18-15.54-.18h-7.79a62.3,62.3,0,0,0-8.31.22.22.22,0,0,0,0,.43,57.44,57.44,0,0,0,7.76.22h15.57a74.26,74.26,0,0,0,8.31-.19A.26.26,0,0,0,178.84,114.19Z"/><path class="cls-5" d="M168.92,118.29a1.17,1.17,0,0,1-1.12-.83c-.07-.19-6.26-19.51-10.2-29.3-3.66-9.09-13-9.2-13.13-9.2a1.21,1.21,0,0,1,0-2.41c.11,0,11.07.13,15.33,10.7,4,9.87,10.19,29.27,10.25,29.46a1.21,1.21,0,0,1-.76,1.52A1.19,1.19,0,0,1,168.92,118.29Z"/><polygon class="cls-10" points="177.93 132.73 108.4 150.62 103.53 131.04 173.06 113.15 177.93 132.73"/><text class="cls-11" transform="matrix(0.95, -0.25, 0.24, 0.97, 112.47, 146.07)">Errorrrr!</text><path class="cls-10" d="M64.45,130.49S81.93,128,83.59,110.18c0,0,2.5,19,18.31,18.62-.83,1.27-17.06,2.11-17.89,18.61C84,147.41,84.43,129.22,64.45,130.49Z"/><path class="cls-10" d="M88.59,160.65s8.54-1.24,9.36-9.92c0,0,1.22,9.3,8.94,9.1-.4.62-8.33,1-8.74,9.09C98.15,168.92,98.35,160,88.59,160.65Z"/><path class="cls-10" d="M57.43,170.34s6.55-1,7.18-7.62c0,0,.93,7.14,6.86,7-.31.48-6.39.79-6.71,7C64.76,176.68,64.92,169.86,57.43,170.34Z"/><path class="cls-9" d="M73.46,83,61.13,71.44,72.43,56l4.75,3.51L69.52,70l4.81,4.48a8.92,8.92,0,0,1,.58-2.22,9.53,9.53,0,0,1,1.23-2.3c1.92-2.63,4.18-4.08,6.76-4.34s5.28.64,8.09,2.71a11.82,11.82,0,0,1,3.77,4.53,9.73,9.73,0,0,1,.83,5.54A12.52,12.52,0,0,1,93.16,84,13.51,13.51,0,0,1,88.72,88a10.38,10.38,0,0,1-5.31,1.34,8.54,8.54,0,0,1-4.93-1.76L83,81.39a4.31,4.31,0,0,0,3,.77,3.57,3.57,0,0,0,2.46-1.57q2.27-3.09-2.3-6.46c-2.82-2.08-5.14-1.86-7,.67a4.71,4.71,0,0,0-1,4.21Z"/><path class="cls-9" d="M112.12,48.84q3.78,5.5,3.38,10.2a10.37,10.37,0,0,1-4.82,7.8q-4.47,3.14-9,1.84t-8.25-6.76l-3.4-5q-3.76-5.51-3.38-10.2A10.39,10.39,0,0,1,91.51,39a10.18,10.18,0,0,1,9-1.83q4.5,1.29,8.26,6.78ZM102,47.42a11.83,11.83,0,0,0-3.75-3.85,3.3,3.3,0,0,0-4.79,3.21,11.2,11.2,0,0,0,2,4.61l4.75,6.94A11.72,11.72,0,0,0,104,62.25a3,3,0,0,0,3.35-.26,3.09,3.09,0,0,0,1.4-3,11.41,11.41,0,0,0-2.17-4.84Z"/><path class="cls-9" d="M139.89,39.66q1.8,6.45-.07,10.78a10.37,10.37,0,0,1-7.06,5.83q-5.22,1.51-9.06-1.18T118.08,46l-1.62-5.82q-1.78-6.45.08-10.78a10.32,10.32,0,0,1,7.08-5.83,10.07,10.07,0,0,1,9,1.18q3.83,2.69,5.62,9.12ZM130.77,35a11.79,11.79,0,0,0-2.3-4.87,3.27,3.27,0,0,0-5.55,1.48,11.34,11.34,0,0,0,.41,5l2.27,8.14a11.91,11.91,0,0,0,2.33,5,3,3,0,0,0,3.25.84,3.08,3.08,0,0,0,2.28-2.4,11.43,11.43,0,0,0-.5-5.3Z"/><path class="cls-9" d="M167.31,42.7l-2.49,11L157.18,52l7.36-32.36,12.64,2.82a14.76,14.76,0,0,1,6.12,2.8,10.33,10.33,0,0,1,3.44,4.85,11,11,0,0,1,.23,6.07,9.75,9.75,0,0,1-5,6.83q-4,2.09-9.74.8Zm1.37-6,5,1.12a4.8,4.8,0,0,0,3.64-.38,4.47,4.47,0,0,0,1.89-2.94,5.45,5.45,0,0,0-.37-3.9,4.3,4.3,0,0,0-2.95-2.1l-5.09-1.14Z"/><path class="cls-9" d="M199.77,61.34l-9.15-5.58-4.81,4.33-7.13-4.36L206,33.53l6.28,3.84-7,34.63-7.17-4.37Zm-4.35-9.89,6,3.63,3-11.67Z"/><path class="cls-9" d="M224.33,91.16a12.58,12.58,0,0,1-5.8-2.22,22.5,22.5,0,0,1-5.59-5.34A13.64,13.64,0,0,1,210,73q.86-5.47,6.32-10l2.26-1.76a19.92,19.92,0,0,1,7.79-3.86,12.59,12.59,0,0,1,7.37.46,13.39,13.39,0,0,1,6,4.64q3.66,4.86,3.44,9.27T238.75,80l-4.54-6a6.44,6.44,0,0,0,2.09-3.8A5.68,5.68,0,0,0,235,66.44a5,5,0,0,0-4.76-2.08c-2,.17-4.24,1.22-6.75,3.13l-1.59,1.22c-2.62,2-4.25,4-4.9,5.87a5.89,5.89,0,0,0,1.18,5.7,6.51,6.51,0,0,0,3.84,2.8L226,79.94l-3.28-4.35,4.35-3.34,8,10.61Z"/><path class="cls-9" d="M241.24,111.43l-3.7-11.82-7.49,2.44,4.37,14-5.82,1.89-6.72-21.46,31.37-10.22L260,107.73l-5.84,1.9-4.38-14-6.61,2.15,3.69,11.81Z"/><path class="cls-9" d="M6.35,297.06a1.18,1.18,0,0,0-.44-1,5.39,5.39,0,0,0-1.52-.72,15.68,15.68,0,0,1-1.79-.72,3.43,3.43,0,0,1-2.25-3.09,2.82,2.82,0,0,1,.56-1.73,3.72,3.72,0,0,1,1.59-1.17,6.09,6.09,0,0,1,2.31-.42,5.37,5.37,0,0,1,2.24.46A3.5,3.5,0,0,1,8.59,290a3.39,3.39,0,0,1,.55,1.91H6.35a1.41,1.41,0,0,0-.43-1.11,1.65,1.65,0,0,0-1.17-.4,1.87,1.87,0,0,0-1.19.34,1,1,0,0,0-.43.85,1,1,0,0,0,.48.82,5.85,5.85,0,0,0,1.68.76,10.07,10.07,0,0,1,2,.85,3.37,3.37,0,0,1,1.88,3A2.91,2.91,0,0,1,8,299.48a5.12,5.12,0,0,1-3.15.88,6,6,0,0,1-2.55-.52,3.81,3.81,0,0,1-1.72-1.41A3.65,3.65,0,0,1,0,296.37H2.8a1.79,1.79,0,0,0,.49,1.4,2.24,2.24,0,0,0,1.56.45,1.76,1.76,0,0,0,1.09-.3A1,1,0,0,0,6.35,297.06Z"/><path class="cls-9" d="M14.9,300.36a4.4,4.4,0,0,1-3.21-1.2A4.2,4.2,0,0,1,10.46,296v-.23a5.51,5.51,0,0,1,.49-2.37,3.71,3.71,0,0,1,1.43-1.6,4.32,4.32,0,0,1,2.23-.56,3.69,3.69,0,0,1,2.87,1.15,4.54,4.54,0,0,1,1.05,3.19v1.06H13.19a2,2,0,0,0,.63,1.16,1.88,1.88,0,0,0,1.26.42,2.4,2.4,0,0,0,2-.9l1.23,1.47a3.5,3.5,0,0,1-1.42,1.12A4.75,4.75,0,0,1,14.9,300.36Zm-.3-7c-.79,0-1.26.53-1.41,1.58H15.9v-.21a1.4,1.4,0,0,0-.32-1A1.3,1.3,0,0,0,14.6,293.38Z"/><path class="cls-9" d="M25.1,293.9l-.89-.06a1.58,1.58,0,0,0-1.62.81v5.55H19.91v-8.77h2.51l.09,1.13a2.08,2.08,0,0,1,1.89-1.29,2.48,2.48,0,0,1,.75.1Z"/><path class="cls-9" d="M29.92,297l1.37-5.52h2.82L31.3,300.2H28.56l-2.81-8.77h2.84Z"/><path class="cls-9" d="M39.26,300.36a4.37,4.37,0,0,1-3.21-1.2A4.2,4.2,0,0,1,34.82,296v-.23a5.37,5.37,0,0,1,.49-2.37,3.65,3.65,0,0,1,1.43-1.6,4.32,4.32,0,0,1,2.23-.56,3.69,3.69,0,0,1,2.87,1.15,4.54,4.54,0,0,1,1,3.19v1.06H37.55a2,2,0,0,0,.63,1.16,1.84,1.84,0,0,0,1.26.42,2.4,2.4,0,0,0,2-.9l1.23,1.47a3.47,3.47,0,0,1-1.43,1.12A4.68,4.68,0,0,1,39.26,300.36Zm-.31-7c-.78,0-1.25.53-1.4,1.58h2.71v-.21a1.36,1.36,0,0,0-.33-1A1.28,1.28,0,0,0,39,293.38Z"/><path class="cls-9" d="M49.46,293.9l-.89-.06a1.58,1.58,0,0,0-1.62.81v5.55H44.26v-8.77h2.52l.09,1.13a2.07,2.07,0,0,1,1.88-1.29,2.39,2.39,0,0,1,.75.1Z"/><path class="cls-9" d="M57.66,292.37a2.7,2.7,0,0,1,2.2-1.1,2.66,2.66,0,0,1,2.15.86,3.91,3.91,0,0,1,.74,2.53v5.54H60.06v-5.47a1.52,1.52,0,0,0-.28-1,1.17,1.17,0,0,0-1-.33,1.3,1.3,0,0,0-1.17.53v6.29H55V287.76h2.68Z"/><path class="cls-9" d="M69.38,300.2a3.15,3.15,0,0,1-.26-.79,2.47,2.47,0,0,1-2.07.95,3,3,0,0,1-2.07-.75,2.4,2.4,0,0,1-.85-1.88,2.48,2.48,0,0,1,1-2.16,5.26,5.26,0,0,1,3-.73H69v-.46c0-.81-.34-1.21-1-1.21a.85.85,0,0,0-1,1H64.34a2.43,2.43,0,0,1,1.06-2.06,4.4,4.4,0,0,1,2.71-.8,3.82,3.82,0,0,1,2.6.82,2.84,2.84,0,0,1,1,2.24v3.88a4.07,4.07,0,0,0,.37,1.85v.14Zm-1.68-1.79a1.53,1.53,0,0,0,.83-.21,1.3,1.3,0,0,0,.47-.5v-1.4h-.78c-.93,0-1.4.43-1.4,1.28a.76.76,0,0,0,.25.6A.85.85,0,0,0,67.7,298.41Z"/><path class="cls-9" d="M78,297.73a.62.62,0,0,0-.36-.55,4.94,4.94,0,0,0-1.36-.44,6,6,0,0,1-1.66-.6,2.69,2.69,0,0,1-1-.89,2.17,2.17,0,0,1-.35-1.21,2.47,2.47,0,0,1,1-2,4,4,0,0,1,2.57-.78,4.39,4.39,0,0,1,2.74.79,2.46,2.46,0,0,1,1,2.06H77.88c0-.7-.36-1.05-1.09-1.05a1.07,1.07,0,0,0-.71.24.75.75,0,0,0-.29.59.68.68,0,0,0,.35.59,3.2,3.2,0,0,0,1.12.38,7.74,7.74,0,0,1,1.35.35,2.48,2.48,0,0,1,2,2.43,2.33,2.33,0,0,1-1,2,4.55,4.55,0,0,1-2.71.75,4.64,4.64,0,0,1-2-.41,3.22,3.22,0,0,1-1.35-1.1,2.46,2.46,0,0,1-.49-1.46h2.51a1,1,0,0,0,.4.88,1.58,1.58,0,0,0,1,.28,1.27,1.27,0,0,0,.82-.22A.73.73,0,0,0,78,297.73Z"/><path class="cls-9" d="M94.43,295.89a5.43,5.43,0,0,1-.88,3.31,2.92,2.92,0,0,1-2.47,1.16A2.57,2.57,0,0,1,89,299.3l-.11.9h-2.4V287.76h2.68v4.38a2.43,2.43,0,0,1,1.94-.87,2.89,2.89,0,0,1,2.48,1.18,5.44,5.44,0,0,1,.88,3.3Zm-2.7-.18a3.56,3.56,0,0,0-.33-1.79,1.11,1.11,0,0,0-1-.54,1.27,1.27,0,0,0-1.26.7v3.48a1.29,1.29,0,0,0,1.27.69,1.14,1.14,0,0,0,1.21-.93A7.37,7.37,0,0,0,91.73,295.71Z"/><path class="cls-9" d="M101.1,293.9l-.89-.06a1.58,1.58,0,0,0-1.62.81v5.55H95.91v-8.77h2.51l.09,1.13a2.08,2.08,0,0,1,1.89-1.29,2.48,2.48,0,0,1,.75.1Z"/><path class="cls-9" d="M101.72,295.73a5.28,5.28,0,0,1,.5-2.33,3.57,3.57,0,0,1,1.44-1.58,4.36,4.36,0,0,1,2.21-.55,4,4,0,0,1,3,1.22,4.74,4.74,0,0,1,1.11,3.32v.09a4.6,4.6,0,0,1-1.12,3.26,3.92,3.92,0,0,1-3,1.2,4,4,0,0,1-2.95-1.12,4.4,4.4,0,0,1-1.2-3Zm2.68.17a3.33,3.33,0,0,0,.38,1.79,1.24,1.24,0,0,0,1.1.56c1,0,1.45-.75,1.47-2.24v-.28c0-1.57-.5-2.35-1.48-2.35s-1.39.68-1.46,2Z"/><path class="cls-9" d="M115,296.93l-.75.77v2.5h-2.69V287.75h2.69v6.61l.27-.37,2-2.56h3.22l-3,3.61,3.22,5.16h-3.08Z"/><path class="cls-9" d="M124.7,300.36a4.4,4.4,0,0,1-3.21-1.2,4.2,4.2,0,0,1-1.23-3.13v-.23a5.51,5.51,0,0,1,.49-2.37,3.71,3.71,0,0,1,1.43-1.6,4.32,4.32,0,0,1,2.23-.56,3.69,3.69,0,0,1,2.87,1.15,4.54,4.54,0,0,1,1.05,3.19v1.06H123a2,2,0,0,0,.63,1.16,1.88,1.88,0,0,0,1.26.42,2.4,2.4,0,0,0,2-.9l1.23,1.47a3.5,3.5,0,0,1-1.42,1.12A4.75,4.75,0,0,1,124.7,300.36Zm-.3-7c-.79,0-1.26.53-1.41,1.58h2.71v-.21a1.4,1.4,0,0,0-.32-1A1.3,1.3,0,0,0,124.4,293.38Z"/><path class="cls-9" d="M132.15,291.43l.09,1a2.9,2.9,0,0,1,2.46-1.19,2.42,2.42,0,0,1,2,.82,4,4,0,0,1,.69,2.46v5.65h-2.69v-5.54a1.46,1.46,0,0,0-.27-1,1.18,1.18,0,0,0-.95-.31,1.26,1.26,0,0,0-1.17.63v6.19h-2.69v-8.77Z"/><path class="cls-9" d="M143.16,295.75a5.41,5.41,0,0,1,.89-3.28,2.89,2.89,0,0,1,2.47-1.2,2.47,2.47,0,0,1,1.94.93v-4.44h2.69V300.2h-2.41l-.14-.94a2.53,2.53,0,0,1-2.1,1.1,2.89,2.89,0,0,1-2.44-1.2A5.6,5.6,0,0,1,143.16,295.75Zm2.69.17c0,1.56.44,2.33,1.33,2.33a1.32,1.32,0,0,0,1.28-.76v-3.33a1.29,1.29,0,0,0-1.26-.78q-1.24,0-1.35,2Z"/><path class="cls-9" d="M152.61,295.73a5.15,5.15,0,0,1,.51-2.33,3.57,3.57,0,0,1,1.44-1.58,4.33,4.33,0,0,1,2.2-.55,3.93,3.93,0,0,1,3.05,1.22,4.7,4.7,0,0,1,1.12,3.32v.09a4.64,4.64,0,0,1-1.12,3.26,4,4,0,0,1-3,1.2,4,4,0,0,1-3-1.12,4.45,4.45,0,0,1-1.2-3Zm2.69.17a3.34,3.34,0,0,0,.37,1.79,1.26,1.26,0,0,0,1.11.56c.95,0,1.44-.75,1.46-2.24v-.28c0-1.57-.49-2.35-1.48-2.35s-1.38.68-1.45,2Z"/><path class="cls-9" d="M169.83,296.6l.87-5.17h2.57l-2,8.77H169l-1.43-5.2-1.43,5.2h-2.27l-2-8.77h2.57l.85,5.29,1.37-5.29h1.88Z"/><path class="cls-9" d="M177,291.43l.09,1a2.9,2.9,0,0,1,2.46-1.19,2.42,2.42,0,0,1,2,.82,4,4,0,0,1,.69,2.46v5.65h-2.69v-5.54a1.52,1.52,0,0,0-.26-1,1.22,1.22,0,0,0-1-.31,1.26,1.26,0,0,0-1.17.63v6.19h-2.68v-8.77Z"/><path class="cls-9" d="M184.93,303.37l-1.36-.65.27-.55a4.48,4.48,0,0,0,.58-2v-2h2.15v1.76a4.62,4.62,0,0,1-.47,1.89A4.9,4.9,0,0,1,184.93,303.37Z"/><path class="cls-9" d="M201,295.89a5.44,5.44,0,0,1-.87,3.31,2.93,2.93,0,0,1-2.47,1.16,2.55,2.55,0,0,1-2.12-1.06l-.11.9H193V287.76h2.69v4.38a2.43,2.43,0,0,1,1.93-.87,2.91,2.91,0,0,1,2.49,1.18,5.44,5.44,0,0,1,.87,3.3Zm-2.69-.18a3.56,3.56,0,0,0-.33-1.79,1.11,1.11,0,0,0-1-.54,1.27,1.27,0,0,0-1.26.7v3.48a1.29,1.29,0,0,0,1.27.69,1.14,1.14,0,0,0,1.2-.93A6.64,6.64,0,0,0,198.3,295.71Z"/><path class="cls-9" d="M207.59,299.25a2.76,2.76,0,0,1-2.31,1.11,2.67,2.67,0,0,1-2.14-.84,3.54,3.54,0,0,1-.73-2.41v-5.68h2.68v5.7c0,.75.36,1.12,1.08,1.12a1.39,1.39,0,0,0,1.31-.67v-6.15h2.7v8.77h-2.51Z"/><path class="cls-9" d="M215.06,289.26v2.17h1.41v1.9h-1.41v4a1,1,0,0,0,.17.69.93.93,0,0,0,.69.19,4.08,4.08,0,0,0,.67-.05v1.95a4.77,4.77,0,0,1-1.51.24,2.77,2.77,0,0,1-2.05-.67,2.73,2.73,0,0,1-.66-2v-4.35h-1.1v-1.9h1.1v-2.17Z"/><path class="cls-9" d="M232.09,294.54a7.09,7.09,0,0,1-.63,3.06,4.76,4.76,0,0,1-1.79,2,4.89,4.89,0,0,1-2.64.72,5,5,0,0,1-2.63-.69,4.85,4.85,0,0,1-1.79-2,7,7,0,0,1-.67-3v-.66a7,7,0,0,1,.63-3.06,4.71,4.71,0,0,1,1.79-2.05,5,5,0,0,1,2.65-.72,4.85,4.85,0,0,1,2.63.72,4.76,4.76,0,0,1,1.8,2,7,7,0,0,1,.65,3Zm-2.85-.49a5.1,5.1,0,0,0-.57-2.67,1.85,1.85,0,0,0-1.66-.91q-2.1,0-2.22,3.21v.86a5.15,5.15,0,0,0,.57,2.67,1.85,1.85,0,0,0,1.68.93,1.81,1.81,0,0,0,1.63-.92,5,5,0,0,0,.58-2.63Z"/><path class="cls-9" d="M237.14,296.93l-.75.77v2.5H233.7V287.75h2.69v6.61l.27-.37,2-2.56h3.22l-3,3.61,3.22,5.16H239Z"/><path class="cls-9" d="M248.09,293.9l-.88-.06a1.59,1.59,0,0,0-1.63.81v5.55H242.9v-8.77h2.52l.08,1.13a2.08,2.08,0,0,1,1.89-1.29,2.39,2.39,0,0,1,.75.1Z"/><path class="cls-9" d="M249.32,289.17a1.21,1.21,0,0,1,.41-.95,1.75,1.75,0,0,1,2.15,0,1.32,1.32,0,0,1,0,1.91,1.75,1.75,0,0,1-2.15,0A1.22,1.22,0,0,1,249.32,289.17Zm2.85,11h-2.69v-8.77h2.69Z"/><path class="cls-9" d="M257.56,296.93l-.76.77v2.5h-2.68V287.75h2.68v6.61l.27-.37,2-2.56h3.22l-3,3.61,3.22,5.16h-3.07Z"/><path class="cls-9" d="M268.15,300.2a3.15,3.15,0,0,1-.26-.79,2.47,2.47,0,0,1-2.07.95,3,3,0,0,1-2.07-.75,2.4,2.4,0,0,1-.85-1.88,2.48,2.48,0,0,1,1-2.16,5.26,5.26,0,0,1,3-.73h.83v-.46c0-.81-.34-1.21-1-1.21a.85.85,0,0,0-1,1h-2.68a2.43,2.43,0,0,1,1.06-2.06,4.4,4.4,0,0,1,2.71-.8,3.82,3.82,0,0,1,2.6.82,2.84,2.84,0,0,1,1,2.24v3.88a4.07,4.07,0,0,0,.37,1.85v.14Zm-1.68-1.79a1.53,1.53,0,0,0,.83-.21,1.3,1.3,0,0,0,.47-.5v-1.4H267c-.93,0-1.4.43-1.4,1.28a.76.76,0,0,0,.25.6A.85.85,0,0,0,266.47,298.41Z"/><path class="cls-9" d="M276.55,289.17a1.21,1.21,0,0,1,.41-.95,1.75,1.75,0,0,1,2.15,0,1.32,1.32,0,0,1,0,1.91,1.75,1.75,0,0,1-2.15,0A1.22,1.22,0,0,1,276.55,289.17Zm2.85,11h-2.69v-8.77h2.69Z"/><path class="cls-9" d="M285.84,297.73a.62.62,0,0,0-.36-.55,4.94,4.94,0,0,0-1.36-.44,6,6,0,0,1-1.66-.6,2.69,2.69,0,0,1-1-.89,2.17,2.17,0,0,1-.35-1.21,2.47,2.47,0,0,1,1-2,4,4,0,0,1,2.57-.78,4.39,4.39,0,0,1,2.74.79,2.46,2.46,0,0,1,1,2.06h-2.69c0-.7-.36-1.05-1.09-1.05a1.07,1.07,0,0,0-.71.24.75.75,0,0,0-.29.59.68.68,0,0,0,.35.59,3.2,3.2,0,0,0,1.12.38,7.74,7.74,0,0,1,1.35.35,2.48,2.48,0,0,1,1.95,2.43,2.33,2.33,0,0,1-1.05,2,4.55,4.55,0,0,1-2.71.75,4.64,4.64,0,0,1-2-.41,3.22,3.22,0,0,1-1.35-1.1,2.46,2.46,0,0,1-.49-1.46h2.51a1,1,0,0,0,.4.88,1.58,1.58,0,0,0,1,.28,1.26,1.26,0,0,0,.82-.22A.73.73,0,0,0,285.84,297.73Z"/><path class="cls-9" d="M298.81,297.73a.62.62,0,0,0-.36-.55,4.94,4.94,0,0,0-1.36-.44,6,6,0,0,1-1.66-.6,2.69,2.69,0,0,1-1-.89,2.17,2.17,0,0,1-.35-1.21,2.47,2.47,0,0,1,1-2,4,4,0,0,1,2.57-.78,4.39,4.39,0,0,1,2.74.79,2.46,2.46,0,0,1,1,2.06h-2.69c0-.7-.36-1.05-1.09-1.05a1.07,1.07,0,0,0-.71.24.75.75,0,0,0-.29.59.68.68,0,0,0,.35.59,3.2,3.2,0,0,0,1.12.38,7.74,7.74,0,0,1,1.35.35,2.48,2.48,0,0,1,1.95,2.43,2.33,2.33,0,0,1-1,2,4.55,4.55,0,0,1-2.71.75,4.64,4.64,0,0,1-2-.41,3.22,3.22,0,0,1-1.35-1.1,2.46,2.46,0,0,1-.49-1.46h2.51a1,1,0,0,0,.4.88,1.58,1.58,0,0,0,1,.28,1.26,1.26,0,0,0,.82-.22A.73.73,0,0,0,298.81,297.73Z"/><path class="cls-9" d="M307.78,300.2a3.2,3.2,0,0,1-.25-.79,2.5,2.5,0,0,1-2.07.95,3,3,0,0,1-2.07-.75,2.41,2.41,0,0,1-.86-1.88,2.48,2.48,0,0,1,1-2.16,5.24,5.24,0,0,1,3-.73h.83v-.46c0-.81-.34-1.21-1-1.21a.85.85,0,0,0-1,1h-2.68a2.46,2.46,0,0,1,1.06-2.06,4.43,4.43,0,0,1,2.72-.8,3.84,3.84,0,0,1,2.6.82,2.87,2.87,0,0,1,1,2.24v3.88a4,4,0,0,0,.37,1.85v.14Zm-1.68-1.79a1.5,1.5,0,0,0,.83-.21,1.42,1.42,0,0,0,.48-.5v-1.4h-.78c-.94,0-1.4.43-1.4,1.28a.78.78,0,0,0,.24.6A.88.88,0,0,0,306.1,298.41Z"/><path class="cls-9" d="M312.46,300.2v-6.87h-1.25v-1.9h1.25v-.69a3.06,3.06,0,0,1,.86-2.33,3.4,3.4,0,0,1,2.44-.82,5,5,0,0,1,1.26.17v2a2.37,2.37,0,0,0-.66-.08c-.82,0-1.22.36-1.22,1.07v.67h1.68v1.9h-1.68v6.87Z"/><path class="cls-9" d="M322,300.36a4.37,4.37,0,0,1-3.21-1.2,4.2,4.2,0,0,1-1.23-3.13v-.23a5.37,5.37,0,0,1,.49-2.37,3.65,3.65,0,0,1,1.43-1.6,4.32,4.32,0,0,1,2.23-.56,3.69,3.69,0,0,1,2.87,1.15,4.54,4.54,0,0,1,1.05,3.19v1.06h-5.34a2,2,0,0,0,.63,1.16,1.84,1.84,0,0,0,1.26.42,2.4,2.4,0,0,0,2-.9l1.23,1.47a3.47,3.47,0,0,1-1.43,1.12A4.68,4.68,0,0,1,322,300.36Zm-.31-7c-.78,0-1.25.53-1.4,1.58H323v-.21a1.36,1.36,0,0,0-.33-1A1.28,1.28,0,0,0,321.72,293.38Z"/><path class="cls-9" d="M327.08,299a1.25,1.25,0,0,1,.43-1,1.5,1.5,0,0,1,1.06-.38,1.48,1.48,0,0,1,1.06.38,1.25,1.25,0,0,1,.43,1,1.27,1.27,0,0,1-.43,1,1.53,1.53,0,0,1-1.06.38,1.55,1.55,0,0,1-1.06-.38A1.27,1.27,0,0,1,327.08,299Zm2.6-2.51H327.5l-.34-8H330Z"/></g></g></svg>