<svg xmlns="http://www.w3.org/2000/svg" viewBox="0 0 59.36 57.76"><defs><style>.cls-1{fill:#4d4d4d;}</style></defs><title>Asset 28tym</title><g id="Layer_2" data-name="Layer 2"><g id="Layer_1-2" data-name="Layer 1"><path class="cls-1" d="M43.2,25.44l-.39,0-.55-14.62H33.2V11h0A11.35,11.35,0,0,0,10.5,11h0v-.12h-9L0,41.24a9.27,9.27,0,0,0,2.61,6.9A9.32,9.32,0,0,0,9.41,51h20.7A16.15,16.15,0,1,0,43.2,25.44ZM14.48,11.36a7.36,7.36,0,0,1,14.72,0v-.52H14.48ZM28,47H9.41A5.4,5.4,0,0,1,4,41.41L5.28,14.84h5.2V19h4V14.84H29.2V19h4V14.84h5.18l.45,11.22A16.09,16.09,0,0,0,28,47Zm15.2,6.72A12.16,12.16,0,1,1,55.36,41.6,12.17,12.17,0,0,1,43.2,53.76Z"/><polygon class="cls-1" points="51.63 38.15 41.57 48.22 35.72 41.74 38.69 39.06 41.71 42.42 48.81 35.33 51.63 38.15"/></g></g></svg>