<svg xmlns="http://www.w3.org/2000/svg" xmlns:xlink="http://www.w3.org/1999/xlink" viewBox="0 0 290.95 227.15"><defs><style>.cls-1{fill:#f7f7f7;}.cls-2{clip-path:url(#clip-path);}.cls-3{fill:#c4ced5;}.cls-4{fill:#987659;}.cls-5{fill:#afb8bf;}.cls-6{fill:#fe8001;}.cls-7{fill:#aeb8c4;}</style><clipPath id="clip-path" transform="translate(45.17)"><rect class="cls-1" width="171.55" height="171.55" rx="17.2"/></clipPath></defs><g id="Layer_2" data-name="Layer 2"><g id="Layer_1-2" data-name="Layer 1"><rect class="cls-1" x="45.17" width="171.55" height="171.55" rx="17.2"/><g class="cls-2"><path class="cls-3" d="M-14.46,185.18c-1.56-1.41-.18-3,.07-4.24A412.9,412.9,0,0,1,.77,124.16c9.2-26.3,21.13-51.24,37-74.24A275.56,275.56,0,0,1,64.2,17.32c4.2-4.47,9.16-8.16,13-13h3.7C87.4,6.55,94.27,7.51,101,9.19q4.15,1.05,8.35,1.88c1.68.33,2.42,1.1,2.39,2.9a40.72,40.72,0,0,0,.52,5.13,22.73,22.73,0,0,0,.61,7.44,320.58,320.58,0,0,0,4.61,34.65c3.46,17.19,8.53,33.94,13.49,50.72,1,3.24,1.73,6.53,2.85,9.72.31.86.72,1.74,0,2.62,1.24,5.14,2.42,10.29,3.73,15.4.46,1.78.33,2.5-1.84,2.49-22.18-.1-44.37-.09-66.56-.11a5.86,5.86,0,0,1-1.58-3.27,173,173,0,0,1-3.66-28c-.5-8.19-.8-16.37-.5-24.55A151,151,0,0,1,64.74,67.5C60.92,84.9,57.14,102.3,55,120c-.77,6.3-1.39,12.61-2.1,18.91a5.14,5.14,0,0,1-1,3.17c-1.13,3.55-.79,7.29-1.08,10.91-.77,9.75-1.05,19.54-1.32,29.32-.06,2.36-.81,2.89-3,2.88-13.1-.09-26.2,0-39.3,0-1.31,0-2.68-.24-3.87.6-5.28.69-10.57.29-15.87.23A2.59,2.59,0,0,1-14.46,185.18Z" transform="translate(45.17)"/><path class="cls-4" d="M-14.46,185.18c5,0,10,0,15,0,1,0,2.07-.42,2.83.59C1.6,189.69,0,193.7-1.92,197.52c-2.35,4.61-2.26,9.2-.73,14a69.31,69.31,0,0,0,4.38,10.45c1.2,2.32.07,2.63-1.81,2.63s-3.18-1.2-4.41-2.47c-5.21-5.35-6.66-5.58-13.32-2.09-3.54,1.85-7,3.89-10.57,5.59a14.72,14.72,0,0,1-13.6-.2c-3.94-2-4.29-4.83-.72-7.48,4.77-3.53,9.34-7.33,14.12-10.83C-21,201.52-16.65,194.09-14.46,185.18Z" transform="translate(45.17)"/><path class="cls-5" d="M51.92,142.09c.5-9.25,1.79-18.41,3-27.58,1.52-11.61,3.7-23.09,6.26-34.5,1.09-4.82,2.41-9.58,3.87-14.31-1.44,25.63-1.7,51.14,4.09,76.33Z" transform="translate(45.17)"/><path class="cls-6" d="M233.13,81.43c-1.53,2.2-1.08,3.8,1.45,4.81,2,.82,5.22,1.34,4.57,4.06-.58,2.46-3.75,1.88-5.93,1.92-4.64.11-9.31.33-13.9-.52a17.12,17.12,0,0,0-8,.52,3.23,3.23,0,0,1-1.17,1.25c-1.59.82-53.37,7.93-82-9.47l12.92-15.13a66.39,66.39,0,0,0,25,9.88,112.87,112.87,0,0,0,38.76.13,5,5,0,0,1,2.72-.08,30.41,30.41,0,0,0,3.82-.78,42.47,42.47,0,0,0,10.32-4.12,76.92,76.92,0,0,1,19-7.23,13.75,13.75,0,0,1,2.53-.41,2.34,2.34,0,0,1,2.42,1.27,2.05,2.05,0,0,1-.82,2.31c-2.25,2.16-4.6,4.25-6.93,6.32A29.46,29.46,0,0,0,233.13,81.43Z" transform="translate(45.17)"/><path class="cls-7" d="M141.07,68.87,128.15,84l-2.29,2.68-1.79,1.7c-.24.22-.48.47-.72.69q-1.51-5.44-2.89-10.94c-.52-2-1-4.12-1.53-6.18a242.31,242.31,0,0,1-6.17-37.27c-.2-2.74-.48-5.48-.52-8.23a10,10,0,0,1,0-7.35c.21,1.23.41,2.46.62,3.69,2.12,10.08,5.38,19.74,11,28.44A59.83,59.83,0,0,0,141.07,68.87Z" transform="translate(45.17)"/></g></g></g></svg>