<svg xmlns="http://www.w3.org/2000/svg" viewBox="0 0 57.82 43.38"><defs><style>.cls-1{fill:#4d4d4d;}</style></defs><g id="Layer_2" data-name="Layer 2"><g id="Layer_2-2" data-name="Layer 2"><path class="cls-1" d="M0,4.64c.09-.3.17-.61.27-.91A5.44,5.44,0,0,1,5.35,0c2,0,4,0,6,0H52.2a5.38,5.38,0,0,1,5.44,4.11,6.42,6.42,0,0,1,.17,1.51q0,4.29,0,8.58a1.83,1.83,0,0,1-2,2.06,5.42,5.42,0,0,0,0,10.84,1.84,1.84,0,0,1,2,2.06v8.58a5.41,5.41,0,0,1-5.62,5.62q-23.28,0-46.57,0A5.39,5.39,0,0,1,.1,38.94a1.14,1.14,0,0,0-.1-.19V28.47a2.19,2.19,0,0,1,2.15-1.39A5.4,5.4,0,0,0,2.21,16.3,2.23,2.23,0,0,1,0,14.91Zm3.62,8.17a9.13,9.13,0,0,1,7.2,8.29,8.74,8.74,0,0,1-1.27,5.23,9.09,9.09,0,0,1-5.94,4.23v7.22a1.83,1.83,0,0,0,2,2H52.19a1.83,1.83,0,0,0,2-2c0-2.22,0-4.44,0-6.66,0-.17,0-.34,0-.49A9.14,9.14,0,0,1,47,22.28a8.83,8.83,0,0,1,1.28-5.23,9.13,9.13,0,0,1,5.93-4.23V5.89c0-1.63-.63-2.27-2.23-2.27H5.85c-.17,0-.34,0-.51,0a1.77,1.77,0,0,0-1.71,1.7C3.6,7.81,3.62,10.29,3.62,12.81Z"/><path class="cls-1" d="M25.18,36.75,21.8,35.48,32.63,6.59,36,7.85Z"/><path class="cls-1" d="M20.28,22.28A5.42,5.42,0,1,1,25.76,17,5.42,5.42,0,0,1,20.28,22.28Zm1.87-5.4a1.79,1.79,0,0,0-1.77-1.81,1.83,1.83,0,0,0-1.83,1.83,1.81,1.81,0,0,0,1.82,1.77A1.77,1.77,0,0,0,22.15,16.88Z"/><path class="cls-1" d="M33.63,28.09a5.42,5.42,0,0,1,10.83,0,5.42,5.42,0,1,1-10.83,0Zm3.61,0A1.8,1.8,0,0,0,39,29.89a1.84,1.84,0,0,0,1.83-1.83A1.82,1.82,0,0,0,39,26.29,1.78,1.78,0,0,0,37.24,28.08Z"/></g></g></svg>