<svg xmlns="http://www.w3.org/2000/svg" xmlns:xlink="http://www.w3.org/1999/xlink" viewBox="0 0 171.55 203.24"><defs><style>.cls-1{fill:#f7f7f7;}.cls-2{clip-path:url(#clip-path);}.cls-3{fill:#fe8001;}.cls-4{fill:#88c4cb;}.cls-5{fill:#69a0ab;}.cls-6{fill:#2f3676;}</style><clipPath id="clip-path" transform="translate(0 6.82)"><rect class="cls-1" width="171.55" height="171.55" rx="17.2"/></clipPath></defs><g id="Layer_2" data-name="Layer 2"><g id="Layer_1-2" data-name="Layer 1"><rect class="cls-1" y="6.82" width="171.55" height="171.55" rx="17.2"/><g class="cls-2"><path class="cls-3" d="M132.05,191.84c-.5,2.83-2.48,4.25-6.39,4.55a12,12,0,0,1-6.8-1.83q-3.92-22.73-7.86-45.46c-2.48-14.26-4.94-28.53-7.47-42.78-.86-4.81-2.65-9.38-4-14-2.57-8.56-5.21-17.07-7.9-25.89L99,49.08c6.09-.12,12.2-.06,18.32,0,1,0,2.14-.15,2.72,1.06q1.23,14.7,2.49,29.38,1.51,17.58,3,35.2,1.2,14.34,2.39,28.7,1.5,17.72,3,35.44Q131.49,185.32,132.05,191.84Z" transform="translate(0 6.82)"/><path class="cls-4" d="M99,49.75c-12.26,1-24.52-.31-36.78,0-1.42,0-2.85,0-4.27,0,2.58-3.62,5.95-4,5.49-8.32-.59-5.45,2.55-10.2,2.41-15.65-.3-11.5,2.24-24.18-5.1-29.51-1-.72-1.33,0,0,0,17.66.06,32.82-2.95,50.48-2.93.69.92.29,1.9.09,2.82-3.79,17.1-7.5,34.22-11.25,51.33A3.92,3.92,0,0,1,99,49.75Z" transform="translate(0 6.82)"/><path class="cls-5" d="M120.2,49.69a3.35,3.35,0,0,0-1.06.26,4,4,0,0,0-2.4-.33l-18.6,0c.39-1.86.8-3.73,1.21-5.59C105.19,30.52,114-5.91,114-5.91a7,7,0,0,0-.79-.91c2.43.07,2.59.93,3.08,4.73,1.25,9.8,2.35,19.64,3.48,29.46.79,6.69,1.46,13.39,2.35,20.08C122.4,49.26,122.05,49.93,120.2,49.69Z" transform="translate(0 6.82)"/><path class="cls-6" d="M36.4,190.51a4.62,4.62,0,0,0-2.61-.46l-15.48,0c10.44-28.67,20.92-57.33,31-86.14,3.76-10.75,5-21.72,5.6-32.91,1.46-25.14,2.13-50.31,2.49-75.49,0-1.81.59-2.18,2.29-2.17,17.74.06,35.49,0,53.24.08.63,0,2-.86,2,.87C113.05-1,112,4,110.52,8.8c-3.34,11.09-6.46,22.24-9.83,33.32S93.84,64,90.43,74.87a13,13,0,0,0-.32,2c-.46.08-.55.49-.66.82-4.69,14.78-12,28.39-18.74,42.29C59.38,143.53,47.85,167,36.4,190.51Z" transform="translate(0 6.82)"/></g></g></g></svg>