<svg xmlns="http://www.w3.org/2000/svg" viewBox="0 0 57.63 47.7"><defs><style>.cls-1{fill:#4d4d4d;}</style></defs><g id="Layer_2" data-name="Layer 2"><g id="Layer_2-2" data-name="Layer 2"><path class="cls-1" d="M0,40.28V7.41a.88.88,0,0,0,.09-.2A8.35,8.35,0,0,1,8.59,0c13.49,0,27,0,40.46,0A9.39,9.39,0,0,1,52,.48a8.24,8.24,0,0,1,5.65,8V27.25c0,4,0,8,0,12a8.19,8.19,0,0,1-7.73,8.32c-2.47.15-5,.07-7.42.07q-16.92,0-33.82,0A8.17,8.17,0,0,1,.74,42.73,16.54,16.54,0,0,1,0,40.28ZM54.26,15.52a3.67,3.67,0,0,0,0-.39c0-2.21,0-4.43,0-6.64a5.32,5.32,0,0,0-.15-1.33A5,5,0,0,0,49,3.35H8.62A5,5,0,0,0,3.33,8.59q0,15.26,0,30.5a5.86,5.86,0,0,0,.53,2.44,4.87,4.87,0,0,0,4.79,2.81H49c.26,0,.53,0,.79,0a4.86,4.86,0,0,0,4.49-4.6c.1-2.4,0-4.8.06-7.2a2.86,2.86,0,0,0-.06-.35h-.7c-3.77,0-7.54,0-11.31,0a8.32,8.32,0,1,1,.05-16.63c3.77,0,7.54,0,11.31,0Zm0,13.28V18.87h-.7c-3.66,0-7.31,0-11,0-.36,0-.71,0-1.07,0a5,5,0,0,0,.85,9.91H53.73Z"/><path class="cls-1" d="M43.15,25.51c-.33,0-.67,0-1,0a1.69,1.69,0,0,1-1.69-1.68,1.67,1.67,0,0,1,1.66-1.65c.75,0,1.5,0,2.25,0A1.66,1.66,0,0,1,46,23.85a1.69,1.69,0,0,1-1.66,1.66C43.94,25.53,43.55,25.51,43.15,25.51Z"/></g></g></svg>