<svg xmlns="http://www.w3.org/2000/svg" viewBox="0 0 52.93 57.65"><defs><style>.cls-1{fill:#4d4d4d;}</style></defs><title>Asset 23tym</title><g id="Layer_2" data-name="Layer 2"><g id="Layer_2-2" data-name="Layer 2"><path class="cls-1" d="M52.92,22.9A28.17,28.17,0,0,0,48.26,8.14a55.82,55.82,0,0,0-3.93-4.9,1.7,1.7,0,0,0-2.17-.32,1.69,1.69,0,0,0-.84,2A2.87,2.87,0,0,0,42,6a25.47,25.47,0,0,1,7.2,15.73c.08.89.06,1.8.19,2.69a1.7,1.7,0,0,0,1.9,1.38,1.76,1.76,0,0,0,1.61-1.66C52.94,23.78,52.92,23.43,52.92,22.9Z"/><path class="cls-1" d="M0,23.19a8.22,8.22,0,0,0,.36,1.72,1.7,1.7,0,0,0,2,.84A1.89,1.89,0,0,0,3.7,24a51.54,51.54,0,0,1,.54-5.13,25.09,25.09,0,0,1,6.93-13A1.81,1.81,0,1,0,8.59,3.34,29.76,29.76,0,0,0,0,23.19Z"/><path class="cls-1" d="M25.54,57.65c-.42-.1-.84-.17-1.25-.29a8.92,8.92,0,0,1-6.49-6.47.51.51,0,0,0-.6-.46c-3.47,0-6.94,0-10.41,0a4.17,4.17,0,0,1-4.27-3.88A4,4,0,0,1,4,43.06a16.53,16.53,0,0,0,4-5A16.27,16.27,0,0,0,9.7,30.48c0-2.57-.11-5.15.09-7.71A16.34,16.34,0,0,1,18.57,9.22,16.17,16.17,0,0,1,24.7,7.3c0-.21,0-.41,0-.61,0-1.57,0-3.15,0-4.72a1.79,1.79,0,0,1,1.78-2,1.82,1.82,0,0,1,1.81,2c0,1.76,0,3.52,0,5.31.66.13,1.31.24,1.94.38A16.64,16.64,0,0,1,43.21,22.43c.22,2.69.11,5.4.12,8.1A16,16,0,0,0,47,40.92c.68.82,1.48,1.54,2.24,2.29A4.13,4.13,0,0,1,50.15,48a4,4,0,0,1-3.84,2.46c-3.44,0-6.87,0-10.3,0h-.53a28,28,0,0,1-1.25,2.81,8.78,8.78,0,0,1-6.36,4.29,1.82,1.82,0,0,0-.3.11Zm1-10.81h19.3a4.34,4.34,0,0,0,.51,0,.6.6,0,0,0,.39-1c-.1-.11-.22-.2-.33-.3a19.59,19.59,0,0,1-6.7-14.93c0-2.15,0-4.31,0-6.47a14.18,14.18,0,0,0-.29-2.84,13.18,13.18,0,0,0-26,1.63c-.15,2.52-.07,5.06-.08,7.59A19.59,19.59,0,0,1,7.25,44.92c-.31.31-.66.57-.94.89a.67.67,0,0,0-.14.6,1,1,0,0,0,.52.41,1.43,1.43,0,0,0,.51,0Zm-5,3.63c.41,2,2.92,3.69,5.34,3.56,2.14-.11,4.49-1.91,4.65-3.56Z"/><path class="cls-1" d="M52.92,22.9c0,.53,0,.88,0,1.24a1.76,1.76,0,0,1-1.61,1.66,1.7,1.7,0,0,1-1.9-1.38c-.13-.89-.11-1.8-.19-2.69A25.47,25.47,0,0,0,42,6a2.87,2.87,0,0,1-.7-1.12,1.69,1.69,0,0,1,.84-2,1.7,1.7,0,0,1,2.17.32,55.82,55.82,0,0,1,3.93,4.9A28.17,28.17,0,0,1,52.92,22.9Z"/><path class="cls-1" d="M0,23.19A29.76,29.76,0,0,1,8.59,3.34a1.81,1.81,0,1,1,2.58,2.52,25.09,25.09,0,0,0-6.93,13A51.54,51.54,0,0,0,3.7,24a1.89,1.89,0,0,1-1.32,1.76,1.7,1.7,0,0,1-2-.84A8.22,8.22,0,0,1,0,23.19Z"/></g></g></svg>