<svg xmlns="http://www.w3.org/2000/svg" viewBox="0 0 66.08 57.52"><defs><style>.cls-1{fill:#ff8001;}</style></defs><title>Asset 24tym</title><g id="Layer_2" data-name="Layer 2"><g id="Layer_2-2" data-name="Layer 2"><path d="M20,45.36a6.08,6.08,0,1,0,6.08,6.08A6.09,6.09,0,0,0,20,45.36Zm0,8.16a2.08,2.08,0,1,1,2.08-2.08A2.08,2.08,0,0,1,20,53.52Z"/><path d="M44,45.36a6.08,6.08,0,1,0,6.08,6.08A6.09,6.09,0,0,0,44,45.36Zm0,8.16a2.08,2.08,0,1,1,2.08-2.08A2.08,2.08,0,0,1,44,53.52Z"/><circle class="cls-1" cx="56" cy="14" r="10.08"/><path d="M54.84,25.32A2.09,2.09,0,0,1,56.3,27.8L54.07,38.46a4.47,4.47,0,0,1-4.35,3.46H15.94a3.91,3.91,0,0,1-3.88-3.46L8.19,4.52A.58.58,0,0,0,7.61,4H2A2,2,0,0,1,0,1.68,2.08,2.08,0,0,1,2.11,0H9.92a2,2,0,0,1,2,1.77l.92,8.07H42.14A1.92,1.92,0,0,1,44,12.12v.06a1.94,1.94,0,0,1-1.88,1.66H13.28L16,37.92H49.72a.46.46,0,0,0,.45-.36L52.4,26.88a2,2,0,0,1,2.22-1.58l.22,0Z"/></g></g></svg>