<svg xmlns="http://www.w3.org/2000/svg" viewBox="0 0 364.78 361.66"><defs><style>.cls-1{fill:#663636;}</style></defs><title>Asset 3RUMPLES</title><g id="Layer_2" data-name="Layer 2"><g id="Layer_1-2" data-name="Layer 1"><path class="cls-1" d="M218.8,361.07c35.46-7.45,66.41-23.56,92-49.27,37.55-37.79,55.5-83.62,53.92-136.89-.72-24.42-6.59-47.72-17.26-70.51-1.65,4.88-2.9,9-5.43,12.6-10.8,15.15-25.6,20.91-43.83,18.59-17.82-2.26-31.28-13.71-35-29.86-4.51-19.33,2.16-37.63,17.49-47.29,3-1.88,5-3.9,4.3-7.54s-3.53-4.68-6.64-5.24c-11.09-2-22.23-2.37-33.2.49-27.64,7.21-49,23.24-64.6,47-6.36,9.68-10.81,20.18-10.82,32q-.14,116.58-.13,233.18c0,2.49.53,3.37,3.25,3.33,12.33-.16,24.67-.07,37-.09A43.33,43.33,0,0,0,218.8,361.07Z"/><path class="cls-1" d="M91.7,51.83c-11.15.22-22.31.17-33.47,0A7.64,7.64,0,0,0,52.1,54.5C12.59,96.2-5,145.69,1.22,202.79c5.49,50.42,29.15,91.35,68.66,123.06a144,144,0,0,0,26,16.88v-3.45q0-59.49,0-119,0-82.14.09-164.26C96,52.48,95.07,51.76,91.7,51.83Z"/><path class="cls-1" d="M163.22,38.5c6.38,0,6.39,0,6.39,6.4V87.64c20.94-32.94,50.68-51.15,88.64-56.36a217,217,0,0,1,26.6.36c-1.36-1.31-1.87-2-2.87-2A176.81,176.81,0,0,0,192.68.3C149.12-2.08,109.77,9.78,74.42,35.23c-1.17.84-2.51,1.56-3.32,3.27Z"/></g></g></svg>