<svg xmlns="http://www.w3.org/2000/svg" viewBox="0 0 57.63 47.7"><defs><style>.cls-1{fill:#ff8001;}</style></defs><title>Asset 16tym</title><g id="Layer_2" data-name="Layer 2"><g id="Layer_2-2" data-name="Layer 2"><path d="M57.62,8.51A8.22,8.22,0,0,0,52,.48,9.58,9.58,0,0,0,49.05,0H8.59A8.36,8.36,0,0,0,.08,7.21a.56.56,0,0,1-.08.2V40.28a17,17,0,0,0,.74,2.46,8.18,8.18,0,0,0,7.9,4.94H42.46c2.48,0,5,.08,7.43-.07a8.19,8.19,0,0,0,7.73-8.32c0-4,0-8,0-12Q57.63,17.88,57.62,8.51Zm-49,35.83a4.88,4.88,0,0,1-4.79-2.81,5.81,5.81,0,0,1-.52-2.44q-.06-15.24,0-30.5A5,5,0,0,1,8.62,3.35H27.25a9.26,9.26,0,0,0-1.59,5.2V39.11a9.23,9.23,0,0,0,1.62,5.23ZM53.59,15.53c-3.78,0-7.55,0-11.32,0a8.32,8.32,0,1,0,0,16.63c3.77,0,7.54,0,11.31,0h.7a2.67,2.67,0,0,1,0,.35c0,2.4.05,4.8,0,7.2a4.84,4.84,0,0,1-4.5,4.6,6.78,6.78,0,0,1-.78,0H34.25a5.18,5.18,0,0,1-5.12-5.22V8.55a5.17,5.17,0,0,1,4.77-5.2H49a5,5,0,0,1,5.11,3.81,5,5,0,0,1,.16,1.33c0,2.22,0,4.43,0,6.64,0,.11,0,.22,0,.4Zm.67,3.34V28.8l-.53,0H42.37a5,5,0,0,1-.85-9.91c.35,0,.71,0,1.07,0Z"/><path class="cls-1" d="M49.32,25.51c-.34,0-6.84,0-7.18,0a1.67,1.67,0,1,1,0-3.33c.74,0,7.67,0,8.41,0a1.66,1.66,0,0,1,0,3.32C50.11,25.53,49.71,25.51,49.32,25.51Z"/></g></g></svg>