<svg xmlns="http://www.w3.org/2000/svg" xmlns:xlink="http://www.w3.org/1999/xlink" viewBox="0 0 388.58 316.84"><defs><style>.cls-1{fill:#c7844c;}.cls-2{fill:#e1a46f;}.cls-3{fill:#eee6d4;}.cls-4{fill:#fff;}.cls-5{fill:url(#linear-gradient);}.cls-6{clip-path:url(#clip-path);}.cls-7{fill:#975532;}.cls-8{fill:url(#radial-gradient);}.cls-9{clip-path:url(#clip-path-2);}.cls-10{clip-path:url(#clip-path-3);}.cls-11{fill:url(#radial-gradient-2);}.cls-12{clip-path:url(#clip-path-4);}.cls-13{fill:url(#radial-gradient-3);}.cls-14{clip-path:url(#clip-path-5);}.cls-15{clip-path:url(#clip-path-6);}.cls-16{fill:url(#radial-gradient-4);}.cls-17{clip-path:url(#clip-path-7);}.cls-18{clip-path:url(#clip-path-8);}</style><linearGradient id="linear-gradient" x1="203.8" y1="115.26" x2="203.8" y2="128.05" gradientUnits="userSpaceOnUse"><stop offset="0" stop-color="#fff"/><stop offset="0.23" stop-color="#fdfdfd"/><stop offset="0.31" stop-color="#f6f6f7"/><stop offset="0.37" stop-color="#ebebeb"/><stop offset="0.41" stop-color="#e0e0e1"/><stop offset="0.41" stop-color="#dcdcdd"/><stop offset="0.42" stop-color="#d2d2d3"/><stop offset="0.43" stop-color="silver"/><stop offset="0.44" stop-color="#a6a6a7"/><stop offset="0.44" stop-color="#868686"/><stop offset="0.45" stop-color="#5e5e5e"/><stop offset="0.54" stop-color="#c4c5c5"/><stop offset="0.55" stop-color="#c7c8c8"/><stop offset="0.56" stop-color="#d2d3d3"/><stop offset="0.56" stop-color="#e0e0e1"/><stop offset="0.68" stop-color="#dededf"/><stop offset="0.73" stop-color="#d6d6d7"/><stop offset="0.78" stop-color="#c9c9ca"/><stop offset="0.81" stop-color="#b7b7b8"/><stop offset="0.84" stop-color="#9f9fa0"/><stop offset="0.87" stop-color="#828282"/><stop offset="0.9" stop-color="#606060"/><stop offset="0.9" stop-color="#5e5e5e"/></linearGradient><clipPath id="clip-path"><polygon class="cls-1" points="34.99 218.85 65.23 216.15 170.08 206.16 179.53 204.81 181.87 205.08 182.14 207.69 174.94 207.78 126.16 213 81.7 217.14 35.17 221.37 33.64 220.29 34.99 218.85"/></clipPath><radialGradient id="radial-gradient" cx="99.11" cy="126.97" r="31.62" gradientUnits="userSpaceOnUse"><stop offset="0" stop-color="#fff"/><stop offset="0.11" stop-color="#fdfdfd"/><stop offset="0.15" stop-color="#f6f6f6"/><stop offset="0.18" stop-color="#ebebeb"/><stop offset="0.2" stop-color="#dadada"/><stop offset="0.22" stop-color="#c4c5c5"/><stop offset="0.32" stop-color="#c6c7c7"/><stop offset="0.36" stop-color="#cececf"/><stop offset="0.4" stop-color="#dbdbdc"/><stop offset="0.41" stop-color="#e0e0e1"/><stop offset="0.46" stop-color="#dcdddd"/><stop offset="0.51" stop-color="#d2d2d3"/><stop offset="0.54" stop-color="#c4c5c5"/><stop offset="0.58" stop-color="#c1c2c2"/><stop offset="0.62" stop-color="#b6b7b7"/><stop offset="0.65" stop-color="#a4a5a5"/><stop offset="0.68" stop-color="#8b8c8c"/><stop offset="0.72" stop-color="#6b6c6c"/><stop offset="0.73" stop-color="#5e5e5e"/><stop offset="0.93" stop-color="#5e5e5e"/></radialGradient><clipPath id="clip-path-2"><path class="cls-2" d="M33.1,222.72a9.22,9.22,0,0,1-.72-6.57A8.21,8.21,0,0,1,35,212.46c8.24-7,30.33-20,30.33-20,8.8-5.16,11.3-7.34,13.41-9.72a72,72,0,0,0,7.2-9.9c2.7-4.44,2.76-5.59,5-8.1a18.43,18.43,0,0,1,9.09-5.94,17.21,17.21,0,0,1,7.47-.18,19.19,19.19,0,0,1,8.28,4.05,22,22,0,0,1,5.4,6,30,30,0,0,0,7.56,7.56,32.69,32.69,0,0,0,7.38,4.05c15.64,6.57,23.45,9.89,23.94,10.08,5.48,2.12,10.62,5.19,16.29,6.75a9.11,9.11,0,0,1,2.88,1.35,10.15,10.15,0,0,1,3.78,5.67,8.26,8.26,0,0,1,.18,1c.11.82.37,2.73-.27,3.06-.43.22-1.13-.35-1.26-.45-12.26-9.58-28.66-12.2-42.48-19.35-8.14-4.21-20.05-10.12-35.37-16.83l-7.47,5.94L71.71,195.27l-32.4,22.86Z"/></clipPath><clipPath id="clip-path-3"><polygon class="cls-1" points="116.95 218.85 147.19 216.15 252.04 206.16 261.49 204.81 263.83 205.08 264.1 207.69 256.9 207.78 208.12 213 163.66 217.14 117.13 221.37 115.6 220.29 116.95 218.85"/></clipPath><radialGradient id="radial-gradient-2" cx="181.07" cy="126.97" r="31.62" xlink:href="#radial-gradient"/><clipPath id="clip-path-4"><path class="cls-2" d="M115.06,222.72a9.22,9.22,0,0,1-.72-6.57,8.21,8.21,0,0,1,2.61-3.69c8.24-7,30.33-20,30.33-20,8.8-5.16,11.3-7.34,13.41-9.72a72,72,0,0,0,7.2-9.9c2.7-4.44,2.76-5.59,5-8.1a18.43,18.43,0,0,1,9.09-5.94,17.21,17.21,0,0,1,7.47-.18,19.19,19.19,0,0,1,8.28,4.05,22,22,0,0,1,5.4,6,30,30,0,0,0,7.56,7.56,32.69,32.69,0,0,0,7.38,4.05c15.64,6.57,23.45,9.89,23.94,10.08,5.48,2.12,10.62,5.19,16.29,6.75a9.11,9.11,0,0,1,2.88,1.35,10.15,10.15,0,0,1,3.78,5.67,8.26,8.26,0,0,1,.18,1c.11.82.37,2.73-.27,3.06-.43.22-1.13-.35-1.26-.45-12.26-9.58-28.66-12.2-42.48-19.35-8.14-4.21-20-10.12-35.37-16.83l-7.47,5.94-24.66,17.73-32.4,22.86Z"/></clipPath><radialGradient id="radial-gradient-3" cx="233.99" cy="126.97" r="31.62" xlink:href="#radial-gradient"/><clipPath id="clip-path-5"><polygon class="cls-1" points="173.66 227.12 203.38 220.92 306.36 198.79 315.59 196.35 317.94 196.35 318.51 198.91 311.37 199.84 263.53 210.7 219.85 219.99 174.13 229.6 172.49 228.71 173.66 227.12"/></clipPath><clipPath id="clip-path-6"><path class="cls-2" d="M172.24,231.18a9.12,9.12,0,0,1-1.48-6.44,8.07,8.07,0,0,1,2.16-4c7.37-7.93,27.8-23.37,27.8-23.37,8.14-6.15,10.37-8.61,12.18-11.21a72.61,72.61,0,0,0,6-10.68c2.17-4.72,2.09-5.87,4.07-8.63a18.32,18.32,0,0,1,8.33-6.95,17.05,17.05,0,0,1,7.4-1.05,19.17,19.17,0,0,1,8.7,3.06A22.77,22.77,0,0,1,251,164.6a22.22,22.22,0,0,1,2.49,2.7,30.18,30.18,0,0,0,8.39,6.63,33.36,33.36,0,0,0,7.8,3.16c16.3,4.71,24.44,7.09,25,7.23,5.69,1.46,11.16,3.91,17,4.8a9,9,0,0,1,3,1,10.23,10.23,0,0,1,4.42,5.19,7.72,7.72,0,0,1,.29,1c.21.8.69,2.67.09,3.07-.4.27-1.16-.21-1.3-.3-13.3-8.09-29.89-8.78-44.45-14.27-8.57-3.24-21.09-7.72-37.08-12.6L229.82,179l-22.43,20.48L177.87,225.9Z"/></clipPath><radialGradient id="radial-gradient-4" cx="296.99" cy="126.97" r="31.62" xlink:href="#radial-gradient"/><clipPath id="clip-path-7"><polygon class="cls-1" points="236.75 227.29 266.46 221.01 369.38 198.64 378.6 196.18 380.95 196.17 381.53 198.73 374.39 199.67 326.58 210.65 282.93 220.04 237.23 229.77 235.58 228.88 236.75 227.29"/></clipPath><clipPath id="clip-path-8"><path class="cls-2" d="M235.33,231.35a9.21,9.21,0,0,1-1.49-6.43,8.15,8.15,0,0,1,2.15-4c7.35-7.95,27.74-23.44,27.74-23.44,8.13-6.17,10.35-8.63,12.16-11.24a71.83,71.83,0,0,0,6-10.69c2.15-4.73,2.07-5.88,4-8.64a18.36,18.36,0,0,1,8.32-7,17.12,17.12,0,0,1,7.4-1.06,19.08,19.08,0,0,1,8.7,3,22,22,0,0,1,3.58,2.65,23.64,23.64,0,0,1,2.5,2.69,29.86,29.86,0,0,0,8.4,6.61,32.73,32.73,0,0,0,7.81,3.14c16.31,4.67,24.46,7,25,7.17,5.69,1.45,11.16,3.89,17,4.77a8.77,8.77,0,0,1,3,1,10.21,10.21,0,0,1,4.43,5.19,9.62,9.62,0,0,1,.3,1c.2.8.69,2.66.09,3.07-.4.27-1.16-.21-1.3-.3-13.31-8.06-29.91-8.71-44.48-14.17C328,181.49,315.5,177,299.5,172.19L292.79,179l-22.38,20.53L241,226.06Z"/></clipPath></defs><title>Asset 30void</title><g id="Layer_2" data-name="Layer 2"><g id="Layer_2-2" data-name="Layer 2"><circle class="cls-3" cx="204.14" cy="174.28" r="130.56" transform="translate(-63.44 195.4) rotate(-45)"/><path class="cls-3" d="M204.14,316.84A142.56,142.56,0,0,1,103.34,73.47,142.56,142.56,0,0,1,305,275.08,141.63,141.63,0,0,1,204.14,316.84Zm0-282.86C126.79,34,63.85,96.92,63.85,174.28s62.94,140.29,140.29,140.29,140.3-62.93,140.3-140.29S281.5,34,204.14,34Z"/><path class="cls-4" d="M230,81.54s14.32-2,15.69-16.37c0,0,2,15.35,15,15-.68,1-14,1.7-14.66,15C246,95.19,246.35,80.52,230,81.54Z"/><path class="cls-4" d="M177.71,97.51s11-1.57,12-12.56c0,0,1.57,11.78,11.51,11.52-.52.78-10.73,1.3-11.25,11.51C190,108,190.27,96.73,177.71,97.51Z"/><path class="cls-1" d="M156.3,31.12A39.75,39.75,0,0,0,155,19.38c-1.31-3.76-2.28-7.76-6.58-9.44C138.14,3.35,126.5,3,114.9,2.48c-6.65-1-75.61-1.13-82.24-2.48h-1c-3.35,2.07-7.24,1.1-10.84,1.88C15.48,3,10.24,4.23,6,8c-3.37,2.21-4.18,5.74-4.61,9.35-.33,2.76-.51,5.53-1,8.27C-.22,38.22.05,50.87.18,63.51a25.83,25.83,0,0,0,2.21,9.68,21.64,21.64,0,0,0,2.32,3.72c5.87,6.83,14.19,6.69,22,7.35,5.28.44,10.55,1.31,15.88,1.29,1.82,0,65.87,2,67,3.75,2.4,2,4.25,4.56,6.4,6.83.49.53,1,1.05,1.52,1.56a113.25,113.25,0,0,0,22.47,16.44,25.83,25.83,0,0,0,4.06,1.9c1.29.44,2.66.75,3.71-.42s.49-2.53-.09-3.73a112.22,112.22,0,0,1-6.46-15.1c-.05-.48-.13-1-.22-1.43a38.3,38.3,0,0,0-2.31-5.91c-1.05-2.13-.8-3.73,1.71-4.55,3.86-1.26,6.65-3.92,9.07-7.06a15.6,15.6,0,0,0,1.38-2.66c1.74-4,2.19-8.26,3.12-12.43C154.68,52.19,157.05,41.77,156.3,31.12Z"/><rect class="cls-5" x="25.6" y="119.58" width="356.4" height="8.64"/><polygon class="cls-1" points="34.99 218.85 65.23 216.15 170.08 206.16 179.53 204.81 181.87 205.08 182.14 207.69 174.94 207.78 126.16 213 81.7 217.14 35.17 221.37 33.64 220.29 34.99 218.85"/><g class="cls-6"><polygon class="cls-7" points="28.12 227.46 50.68 216.42 20.68 206.34 21.64 225.3 28.12 227.46"/><polygon class="cls-7" points="187.96 189.54 188.68 212.34 175.96 210.9 177.64 208.98 172.84 204.66 167.08 189.54 185.08 188.58 187.96 189.54"/></g><path class="cls-8" d="M98.32,117.2A11.93,11.93,0,0,0,91,119.73c-.13.11-1.39,1.1-1.52,1.22l3.3,0a9.86,9.86,0,0,1,15.41,8.15,9.66,9.66,0,0,1-.85,4,9.92,9.92,0,0,1-.76,1.4h0l-6.3,7.3V159.3h2V142.51L107,137l.06.05a11.86,11.86,0,0,0-8.74-19.88Z"/><path class="cls-2" d="M33.1,222.72a9.22,9.22,0,0,1-.72-6.57A8.21,8.21,0,0,1,35,212.46c8.24-7,30.33-20,30.33-20,8.8-5.16,11.3-7.34,13.41-9.72a72,72,0,0,0,7.2-9.9c2.7-4.44,2.76-5.59,5-8.1a18.43,18.43,0,0,1,9.09-5.94,17.21,17.21,0,0,1,7.47-.18,19.19,19.19,0,0,1,8.28,4.05,22,22,0,0,1,5.4,6,30,30,0,0,0,7.56,7.56,32.69,32.69,0,0,0,7.38,4.05c15.64,6.57,23.45,9.89,23.94,10.08,5.48,2.12,10.62,5.19,16.29,6.75a9.11,9.11,0,0,1,2.88,1.35,10.15,10.15,0,0,1,3.78,5.67,8.26,8.26,0,0,1,.18,1c.11.82.37,2.73-.27,3.06-.43.22-1.13-.35-1.26-.45-12.26-9.58-28.66-12.2-42.48-19.35-8.14-4.21-20.05-10.12-35.37-16.83l-7.47,5.94L71.71,195.27l-32.4,22.86Z"/><g class="cls-9"><polygon class="cls-1" points="117.64 146.34 106.12 154.74 103 158.34 103.72 172.98 137.08 202.26 184.6 211.14 185.56 200.82 164.68 168.66 117.64 146.34"/></g><polygon class="cls-1" points="116.95 218.85 147.19 216.15 252.04 206.16 261.49 204.81 263.83 205.08 264.1 207.69 256.9 207.78 208.12 213 163.66 217.14 117.13 221.37 115.6 220.29 116.95 218.85"/><g class="cls-10"><polygon class="cls-7" points="110.08 227.46 132.64 216.42 102.64 206.34 103.6 225.3 110.08 227.46"/><polygon class="cls-7" points="269.92 189.54 270.64 212.34 257.92 210.9 259.6 208.98 254.8 204.66 249.04 189.54 267.04 188.58 269.92 189.54"/></g><path class="cls-11" d="M180.28,117.2a11.93,11.93,0,0,0-7.33,2.53c-.13.11-1.39,1.1-1.52,1.22l3.3,0a9.86,9.86,0,0,1,15.41,8.15,9.66,9.66,0,0,1-.85,4,9.92,9.92,0,0,1-.76,1.4h0l-6.3,7.3V159.3h2V142.51L189,137l.06.05a11.86,11.86,0,0,0-8.74-19.88Z"/><path class="cls-2" d="M115.06,222.72a9.22,9.22,0,0,1-.72-6.57,8.21,8.21,0,0,1,2.61-3.69c8.24-7,30.33-20,30.33-20,8.8-5.16,11.3-7.34,13.41-9.72a72,72,0,0,0,7.2-9.9c2.7-4.44,2.76-5.59,5-8.1a18.43,18.43,0,0,1,9.09-5.94,17.21,17.21,0,0,1,7.47-.18,19.19,19.19,0,0,1,8.28,4.05,22,22,0,0,1,5.4,6,30,30,0,0,0,7.56,7.56,32.69,32.69,0,0,0,7.38,4.05c15.64,6.57,23.45,9.89,23.94,10.08,5.48,2.12,10.62,5.19,16.29,6.75a9.11,9.11,0,0,1,2.88,1.35,10.15,10.15,0,0,1,3.78,5.67,8.26,8.26,0,0,1,.18,1c.11.82.37,2.73-.27,3.06-.43.22-1.13-.35-1.26-.45-12.26-9.58-28.66-12.2-42.48-19.35-8.14-4.21-20-10.12-35.37-16.83l-7.47,5.94-24.66,17.73-32.4,22.86Z"/><g class="cls-12"><polygon class="cls-1" points="199.6 146.34 188.08 154.74 184.96 158.34 185.68 172.98 219.04 202.26 266.56 211.14 267.52 200.82 246.64 168.66 199.6 146.34"/></g><path class="cls-13" d="M233.2,117.2a11.93,11.93,0,0,0-7.33,2.53c-.13.11-1.39,1.1-1.52,1.22l3.3,0a9.86,9.86,0,0,1,15.41,8.15,9.66,9.66,0,0,1-.85,4,9.92,9.92,0,0,1-.76,1.4h0l-6.3,7.3V159.3h2V142.51l4.74-5.48.06.05a11.86,11.86,0,0,0-8.74-19.88Z"/><polygon class="cls-1" points="173.66 227.12 203.38 220.92 306.36 198.79 315.59 196.35 317.94 196.35 318.51 198.91 311.37 199.84 263.53 210.7 219.85 219.99 174.13 229.6 172.49 228.71 173.66 227.12"/><g class="cls-14"><polygon class="cls-7" points="167.84 236.47 188.96 222.88 157.99 216.36 161.15 235.08 167.84 236.47"/><polygon class="cls-7" points="322.18 180.21 325.55 202.77 312.75 202.82 314.19 200.72 308.92 196.98 301.44 182.64 319.21 179.59 322.18 180.21"/></g><path class="cls-2" d="M172.24,231.18a9.12,9.12,0,0,1-1.48-6.44,8.07,8.07,0,0,1,2.16-4c7.37-7.93,27.8-23.37,27.8-23.37,8.14-6.15,10.37-8.61,12.18-11.21a72.61,72.61,0,0,0,6-10.68c2.17-4.72,2.09-5.87,4.07-8.63a18.32,18.32,0,0,1,8.33-6.95,17.05,17.05,0,0,1,7.4-1.05,19.17,19.17,0,0,1,8.7,3.06A22.77,22.77,0,0,1,251,164.6a22.22,22.22,0,0,1,2.49,2.7,30.18,30.18,0,0,0,8.39,6.63,33.36,33.36,0,0,0,7.8,3.16c16.3,4.71,24.44,7.09,25,7.23,5.69,1.46,11.16,3.91,17,4.8a9,9,0,0,1,3,1,10.23,10.23,0,0,1,4.42,5.19,7.72,7.72,0,0,1,.29,1c.21.8.69,2.67.09,3.07-.4.27-1.16-.21-1.3-.3-13.3-8.09-29.89-8.78-44.45-14.27-8.57-3.24-21.09-7.72-37.08-12.6L229.82,179l-22.43,20.48L177.87,225.9Z"/><g class="cls-15"><polygon class="cls-1" points="247.31 145.49 236.85 155.17 234.17 159.11 236.59 173.56 273.13 198.76 321.36 202.05 321.11 191.69 296.63 162.18 247.31 145.49"/></g><path class="cls-16" d="M296.2,117.2a11.93,11.93,0,0,0-7.33,2.53c-.13.11-1.39,1.1-1.52,1.22l3.3,0a9.86,9.86,0,0,1,15.41,8.15,9.66,9.66,0,0,1-.85,4,9.92,9.92,0,0,1-.76,1.4h0l-6.3,7.3V159.3h2V142.51l4.74-5.48.06.05a11.86,11.86,0,0,0-8.74-19.88Z"/><polygon class="cls-1" points="236.75 227.29 266.46 221.01 369.38 198.64 378.6 196.18 380.95 196.17 381.53 198.73 374.39 199.67 326.58 210.65 282.93 220.04 237.23 229.77 235.58 228.88 236.75 227.29"/><g class="cls-17"><polygon class="cls-7" points="230.95 236.65 252.04 223.01 221.06 216.57 224.26 235.28 230.95 236.65"/><polygon class="cls-7" points="385.16 180.01 388.58 202.57 375.78 202.65 377.22 200.54 371.94 196.82 364.42 182.5 382.18 179.4 385.16 180.01"/></g><path class="cls-2" d="M235.33,231.35a9.21,9.21,0,0,1-1.49-6.43,8.15,8.15,0,0,1,2.15-4c7.35-7.95,27.74-23.44,27.74-23.44,8.13-6.17,10.35-8.63,12.16-11.24a71.83,71.83,0,0,0,6-10.69c2.15-4.73,2.07-5.88,4-8.64a18.36,18.36,0,0,1,8.32-7,17.12,17.12,0,0,1,7.4-1.06,19.08,19.08,0,0,1,8.7,3,22,22,0,0,1,3.58,2.65,23.64,23.64,0,0,1,2.5,2.69,29.86,29.86,0,0,0,8.4,6.61,32.73,32.73,0,0,0,7.81,3.14c16.31,4.67,24.46,7,25,7.17,5.69,1.45,11.16,3.89,17,4.77a8.77,8.77,0,0,1,3,1,10.21,10.21,0,0,1,4.43,5.19,9.62,9.62,0,0,1,.3,1c.2.8.69,2.66.09,3.07-.4.27-1.16-.21-1.3-.3-13.31-8.06-29.91-8.71-44.48-14.17C328,181.49,315.5,177,299.5,172.19L292.79,179l-22.38,20.53L241,226.06Z"/><g class="cls-18"><polygon class="cls-1" points="310.2 145.47 299.76 155.18 297.09 159.13 299.55 173.58 336.15 198.69 384.39 201.86 384.11 191.5 359.56 162.05 310.2 145.47"/></g><path class="cls-4" d="M14.58,39.24S29.3,37.14,30.7,22.43c0,0,2.1,15.76,15.41,15.41-.7,1-14.36,1.75-15.06,15.42C31.05,53.26,31.4,38.19,14.58,39.24Z"/><path class="cls-4" d="M60.42,43.56s14.72-2.1,16.12-16.81c0,0,2.1,15.76,15.41,15.41-.7,1.05-14.36,1.75-15.06,15.42C76.89,57.58,77.24,42.51,60.42,43.56Z"/><path class="cls-4" d="M107.46,46.92s14.72-2.1,16.12-16.81c0,0,2.1,15.76,15.41,15.41-.7,1-14.36,1.75-15.06,15.42C123.93,60.94,124.28,45.87,107.46,46.92Z"/></g></g></svg>