<svg xmlns="http://www.w3.org/2000/svg" viewBox="0 0 548.05 126.79"><defs><style>.cls-1{fill:#663636;}</style></defs><title>Asset 5RUMPLES</title><g id="Layer_2" data-name="Layer 2"><g id="Layer_1-2" data-name="Layer 1"><path class="cls-1" d="M76.71,126.59A62.7,62.7,0,0,0,109,109.31c13.16-13.25,19.45-29.31,18.9-48a61.9,61.9,0,0,0-6-24.72A16.92,16.92,0,0,1,119.9,41c-3.79,5.31-9,7.33-15.37,6.52s-11-4.81-12.29-10.47c-1.57-6.78.76-13.19,6.14-16.58,1-.66,1.75-1.37,1.5-2.64S98.65,16.2,97.56,16a27,27,0,0,0-11.64.17A37.81,37.81,0,0,0,63.27,32.66a20.33,20.33,0,0,0-3.79,11.21q0,40.88,0,81.75c0,.88.19,1.19,1.14,1.17,4.32-.06,8.65,0,13,0A15.3,15.3,0,0,0,76.71,126.59Z"/><path class="cls-1" d="M32.15,18.17c-3.91.08-7.82.06-11.73,0a2.7,2.7,0,0,0-2.16.93c-13.85,14.61-20,32-17.83,52,1.92,17.67,10.22,32,24.07,43.14a50.85,50.85,0,0,0,9.12,5.92v-1.22q0-20.85,0-41.7,0-28.8,0-57.59C33.66,18.4,33.33,18.15,32.15,18.17Z"/><path class="cls-1" d="M57.22,13.5c2.24,0,2.24,0,2.24,2.24v15C66.8,19.18,77.23,12.79,90.54,11a75.07,75.07,0,0,1,9.32.12c-.47-.46-.65-.69-1-.7A61.89,61.89,0,0,0,67.55.1,63.19,63.19,0,0,0,26.09,12.35a3,3,0,0,0-1.16,1.15Z"/><path class="cls-1" d="M192.42,40.45a14.66,14.66,0,0,0-15.23.11c-2.94.86-4.84,3-6.5,5.4a2.84,2.84,0,0,1-.39-2.63c.54-3.22-.94-4-3.88-3.78-3.79.24-7.6,0-11.4.12-1.3,0-3.71-.76-3.69.73,0,2.21,2.54,1.13,3.77,1,3.79-.35,4.8,1,4.71,4.79-.28,11.14-.1,22.28-.1,33.43,0,6.29,0,6.27-6.15,6.62-.88.06-2.5-.6-2.34,1.06.14,1.41,1.69.81,2.61.82,6.69.06,13.37.16,20,0,1.62,0,4.65,1.09,4.67-.91s-3-1-4.55-.88c-3.3.29-3.86-1.07-3.8-4,.18-9.3.12-18.61,0-27.92a14.22,14.22,0,0,1,1.42-6.81,27,27,0,0,1,7.11-6.24,33,33,0,0,1,4.58-.86c1.06-.06,2.55-.56,3.17.71s-.91,1.67-1.51,2.43c-1.93,2.47-2.1,5.16-.29,7.57s4.58,3.25,7.67,2a5.67,5.67,0,0,0,3.7-5.46C196.22,44.63,195.2,42,192.42,40.45Z"/><path class="cls-1" d="M452.09,86.55a19.38,19.38,0,0,0-2.75,0c-3.18.49-4.25-.61-4.19-4,.21-12.2.08-24.41.08-36.62,0-12.6-.07-25.2.06-37.8,0-2.43-.63-3.15-3.06-3-3.92.21-7.87-.09-11.8.12-1.44.08-4.07-1.3-4.16,1-.06,1.53,2.68.89,4,.73,3.41-.39,4.42.66,4.39,4.24-.18,22.58-.09,45.15-.1,67.73,0,2.23.69,4.87-.26,6.58-1.29,2.3-4.3.5-6.5,1a2.54,2.54,0,0,1-.39,0c-.67,0-1.36,0-1.36,1s.71,1,1.36,1l24.8,0c.64,0,1.38,0,1.45-.87C453.77,86.45,452.87,86.55,452.09,86.55Z"/><path class="cls-1" d="M354.4,86.6a12.42,12.42,0,0,0-2.36,0c-2.68.39-3.72-.54-3.55-3.39.24-4.19.07-8.4.07-12.6,0-6.82.11-13.64-.05-20.46-.14-6-2.48-9.73-6.92-10.65-6.92-1.44-13.58-1-19,4.45-2,.91-2.59,3.17-4.21,4.49-2.87-8.11-6.18-10.17-14.36-9.52-6.8.55-11.91,3.92-16.36,9.89,0-2.72.08-4.53,0-6.32-.06-.88.69-2.43-1-2.46-5.51-.1-11,0-16.53,0a.83.83,0,0,0-.89,1c.06.64.54.81,1.08.83a13.3,13.3,0,0,0,2.36,0c3.54-.58,4.67.72,4.59,4.41-.25,11-.08,22.05-.1,33.08,0,2.22.57,4.86-.42,6.54s-3.86.42-5.88.7c-.75.11-1.71-.07-1.59,1.12.09.84.88.8,1.51.81,2,0,3.93,0,5.9,0,5.51,0,11,0,16.53,0,.8,0,2.08.5,2.22-.84.15-1.53-1.2-1-2-1a6.78,6.78,0,0,0-2,0c-3.15.54-4-.78-3.9-3.86.21-8.27.15-16.54,0-24.81-.08-6.44,3-11,8.17-14.3,6.41-4.09,11.48-1.36,11.56,6.22.12,10.37.05,20.74.05,31.11,0,5.35,0,5.33-5.5,5.65-.89,0-2.47-.58-2.32,1.12.09,1.16,1.46.77,2.3.78,6.95,0,13.91.06,20.86,0,1.12,0,3.21.85,3.19-1s-2.09-.66-3.23-.94a1.86,1.86,0,0,0-.78,0c-3.2.61-3.93-.84-3.84-3.86.21-7.08.35-14.19,0-21.26-.33-6.4,1.3-11.87,5.68-16.53a36.83,36.83,0,0,1,4.45-2.4c5.39-2,9.45.36,9.58,6,.26,11.94.1,23.88.17,35.82,0,1.71-.62,2.38-2.32,2.21a18.29,18.29,0,0,0-3.14,0c-.82.06-2.11-.46-2.23.84s1.19,1.08,2,1.08q11,0,22,0c.81,0,2.14.4,2.19-.9S355.23,86.65,354.4,86.6Z"/><path class="cls-1" d="M537.37,58.4c-4-1.47-8.32-2.33-12.49-3.45-3.14-.84-6.13-1.89-6.44-5.82-.25-3.18,2.67-6.93,6.27-8.2,7.38-2.61,14.52,1.12,17,8.85.32,1-.26,2.51,1.5,2.72V37.72c-2.44,3.69-4.55,3.4-7.51,1.73-3.52-2-7.63-1.57-11.49-.4a15.21,15.21,0,0,0-10.61,15.31c.23,6.56,4.12,10.8,11.42,12.53,3.94.93,7.95,1.64,11.73,3.18,6.46,2.65,8.05,6.07,5.89,12.7C538,88,532.24,89.25,525.63,87.54S516,80.4,513.14,74.71v15c.72-.53,1.15-.69,1.31-1,1.44-2.66,2.58-3.57,5.72-1.26,6.35,4.65,19.5,3.68,23.34-2.39C551.6,76.26,548.49,62.44,537.37,58.4Z"/><path class="cls-1" d="M258.35,86.6a4.09,4.09,0,0,0-1.56,0c-3.43.54-4.68-.55-4.6-4.34.27-13,0-25.94.18-38.91,0-2.71-.63-3.66-3.43-3.46-3.52.25-7.08-.09-10.6.13-1.72.11-4.77-1.16-4.89,1-.1,1.72,3.12.87,4.73.77,3-.18,3.85.88,3.65,3.79-.26,3.65,0,7.34-.09,11-.27,6.77.87,13.61-.88,20.32a23.69,23.69,0,0,1-6.23,7c-3.46,2.33-7.3,3.5-11.12,1.62-3.53-1.73-2.93-5.56-2.95-8.77q-.1-16.92,0-33.84c0-2-.32-3.06-2.71-3-4.71.18-9.44,0-14.16.09-.78,0-2.07-.59-2.21.8s1.17,1,2,1c6.44.47,6.44.46,6.44,6.78,0,6.69,0,13.37,0,20.06,0,3.8,0,7.62.33,11.39.41,4.77,2.91,8.3,7.72,9.24,8.42,1.64,15.86-.27,21.64-7,.62-.74.78-2.06,2.17-2a37.69,37.69,0,0,1-.06,5.1c-.39,2.7.73,3.27,3.21,3.16,4.45-.2,8.9,0,13.35-.11.88,0,2.47.71,2.5-.91S259.22,86.8,258.35,86.6Z"/><path class="cls-1" d="M488.18,87.33c-.9.19-1.79.39-2.69.57-8.65,1.68-13.87-1.72-15-10.39-.61-4.65-.13-9.43-.43-14.13-.18-2.81.81-3.51,3.52-3.45,8.25.17,16.5,0,24.76.08,2.16,0,4.06-.07,3.44-3.14C498,38.41,479.62,33.71,468.23,42.41A28.1,28.1,0,0,0,458,71.07c3.8,15.09,18.93,23.25,32,17.25,6.7-2.28,12.57-9.69,12.08-16.55C498.61,78.86,494.83,84.49,488.18,87.33ZM476,40.89c4.4-1.57,9.13-.69,11.68,2.18,2.3,2.6,3.48,10.54,2.09,13.56-.61,1.34-1.65,1.47-2.9,1.45-2.49,0-5,0-7.48,0v0a5.76,5.76,0,0,1-1.95,0c-2.39-.93-6.37,2.34-7.25-1.8C468.68,49,471.51,42.52,476,40.89Z"/><path class="cls-1" d="M405,41.06c-7.89-4.81-15.22-3.64-21.68,2.88-.5.49-.78,1.52-1.84.9-.14-4.6-.14-4.84-1.54-4.86-5.24-.1-10.49,0-15.74,0-.68,0-1.34.15-1.27,1,0,.62.55.8,1.1.81a13.3,13.3,0,0,0,2.36,0c3.52-.56,4.59.69,4.56,4.41-.19,22.45-.1,44.9-.09,67.36,0,5.75,0,5.75-5.78,6.19-.85.07-2.16-.27-2.15,1s1.3,1,2.17,1q11,0,22.06,0c.9,0,2.16.2,2.23-1s-1.21-1-2.09-1.06a27.58,27.58,0,0,0-3.15,0c-1.93.19-2.83-.35-2.81-2.55.1-10.87.05-21.74.05-33.28,8.36,6.93,15.24,8.16,22.81,3.9,9-5.08,14-12.93,14.16-23.39S413.65,46.34,405,41.06ZM404.75,78c-1.09,7.33-4.4,10.35-10.64,10-6.58-.34-12.55-6-12.7-12.2-.1-3.8,0-7.61,0-11.41,0-3.28,0-6.56,0-9.84a14.63,14.63,0,0,1,12.15-14.28c4.49-.75,8,1.15,9.83,5.36a26.57,26.57,0,0,1,1.85,8.8A102.48,102.48,0,0,1,404.75,78Z"/><path class="cls-1" d="M275.21,99.49c-2.81,1.45-4.14,4.07-3.95,7.77a8.12,8.12,0,0,0,3.6,6.83,9,9,0,0,0,4.95,1.38,12,12,0,0,0,4.28-.82,3.14,3.14,0,0,0,2.08-3.55c-.06-.88-.05-1.79,0-2.67,0-.4,0-.8,0-1.2a.79.79,0,1,0-1.57,0c0,.39,0,.79,0,1.18,0,.91,0,1.85,0,2.79.07,1.19-.17,1.63-1.08,2a8.68,8.68,0,0,1-7.8-.4,6.74,6.74,0,0,1-2.9-5.59c-.15-3.09.87-5.15,3.11-6.31a8.26,8.26,0,0,1,9.36.7.77.77,0,0,0,1.09-.16.79.79,0,0,0-.15-1.1A9.73,9.73,0,0,0,275.21,99.49Z"/><path class="cls-1" d="M164.53,101.61a.78.78,0,1,0,.84-1.32c-4.64-2.94-9.12-2.74-12,.53-2.72,3.1-2.92,8.53-.41,11.61a7.69,7.69,0,0,0,6.13,3,11.89,11.89,0,0,0,6.27-2.06.79.79,0,0,0-.84-1.33c-4.13,2.62-7.9,2.4-10.35-.61-2-2.49-1.84-7.06.38-9.58C156.91,99.18,160.55,99.09,164.53,101.61Z"/><path class="cls-1" d="M333.61,112.43c-2.65,1.52-5.34,1.84-7.57.91a6.78,6.78,0,0,1-3.89-4.73,6.42,6.42,0,0,1,2.92-7.7,7.22,7.22,0,0,1,8.48.29.79.79,0,0,0,.9-1.29,8.83,8.83,0,0,0-10.23-.32,8,8,0,0,0-3.59,9.42,8.17,8.17,0,0,0,8.08,6.42,11.48,11.48,0,0,0,5.68-1.64.78.78,0,0,0-.78-1.36Z"/><path class="cls-1" d="M181.42,113.89h-8.63V99.38a.78.78,0,0,0-1.56,0v15.3a.78.78,0,0,0,.78.78h9.41a.79.79,0,1,0,0-1.57Z"/><path class="cls-1" d="M309.06,112a2.57,2.57,0,0,0,1-2.5,3.74,3.74,0,0,1,0-.58.79.79,0,0,0-.69-.87.8.8,0,0,0-.87.7,5.37,5.37,0,0,0,0,.8c0,.69,0,1-.47,1.23-.84-1-1.78-1.88-2.69-2.76-.53-.51-1.07-1-1.59-1.56l.44-.46a15.37,15.37,0,0,1,1.3-1.26c1.86-1.53,2.18-3.54.87-5.36-1.69-2.34-4.5-1-5.56-.5a2.93,2.93,0,0,0-1.58,1.86,4.32,4.32,0,0,0,.69,3.47,17.27,17.27,0,0,0,1.47,2,.78.78,0,0,0-.8.08l-.49.36c-.37.27-.74.54-1.09.83-2.11,1.68-2.61,4.19-1.22,6.1a5.4,5.4,0,0,0,4.48,2.29,7,7,0,0,0,1.77-.24,9.38,9.38,0,0,0,3.73-2.21l.26-.21,2.37,1.78a.78.78,0,1,0,.94-1.25Zm-7.82-8.63a2.78,2.78,0,0,1-.51-2.2,1.36,1.36,0,0,1,.74-.87,5.6,5.6,0,0,1,2.27-.69,1.57,1.57,0,0,1,1.35.69c.82,1.14.62,2.23-.6,3.23a17.32,17.32,0,0,0-1.44,1.39l-.36.38A14.52,14.52,0,0,1,301.24,103.33Zm5.52,8.81a8.24,8.24,0,0,1-3.13,1.9,4,4,0,0,1-4.58-1.47c-.9-1.23-.54-2.78.93-3.94.34-.28.69-.54,1-.8l.5-.37a.78.78,0,0,0,.29-.83c.79.88,1.62,1.69,2.44,2.48A34.6,34.6,0,0,1,307,112Z"/><path class="cls-1" d="M265.23,113.54a.93.93,0,0,0,.12-.29,42.78,42.78,0,0,0,.4-8.8c0-1.65-.08-3.37,0-5a.79.79,0,0,0-1.57-.08c-.08,1.73,0,3.47,0,5.15a47.8,47.8,0,0,1-.2,7.37c-1.17-1.51-2.38-3-3.58-4.42a75,75,0,0,1-6.92-9.25.78.78,0,1,0-1.34.81c.25.42.5.83.77,1.24a.76.76,0,0,0-.48.56,41.11,41.11,0,0,0-.41,9c0,1.73.1,3.52,0,5.26a.78.78,0,0,0,.74.82h0a.78.78,0,0,0,.78-.74c.1-1.8,0-3.62,0-5.38a41.82,41.82,0,0,1,.29-8.06c1.66,2.38,3.51,4.6,5.32,6.78s3.83,4.6,5.51,7.06a.8.8,0,0,0,1.09.21.79.79,0,0,0,.21-1.09C265.76,114.26,265.49,113.9,265.23,113.54Z"/><path class="cls-1" d="M244.57,99a.78.78,0,0,0-.78.78v14.12a.79.79,0,1,0,1.57,0V99.77A.78.78,0,0,0,244.57,99Z"/><path class="cls-1" d="M235.94,98.6a.78.78,0,0,0-.78.78v6.67h-11V99.38a.79.79,0,0,0-1.57,0v14.91a.79.79,0,0,0,1.57,0v-6.67h11v6.67a.79.79,0,0,0,1.57,0V99.38A.78.78,0,0,0,235.94,98.6Z"/><path class="cls-1" d="M217.47,98.2c-1.4.07-2.85,0-4.24,0a37.74,37.74,0,0,0-7.63.39.78.78,0,0,0-.63.91.79.79,0,0,0,.77.65l.15,0a28.06,28.06,0,0,1,5.34-.38h0v15.3a.79.79,0,0,0,1.57,0V99.79h.4c1.42,0,2.89,0,4.35,0a.78.78,0,0,0,.74-.82A.77.77,0,0,0,217.47,98.2Z"/><path class="cls-1" d="M193.24,98.21a.69.69,0,0,0-.25,0,.85.85,0,0,0-.32,0c-4.58.74-7.29,3.51-7.63,7.78-.32,3.94,1.12,6.72,4.26,8.25a11,11,0,0,0,4.85,1.19,7.77,7.77,0,0,0,5-1.72c3.09-2.57,4.15-5.93,3-9.47C200.9,100.36,198.15,98.5,193.24,98.21Zm4.94,14.3c-2,1.68-5.16,1.8-8.19.32-2.54-1.24-3.65-3.43-3.39-6.71.36-4.47,3.64-5.92,6.32-6.36H193l.15,0c4.23.25,6.49,1.73,7.54,5C201.64,107.65,200.77,110.35,198.18,112.51Z"/><path class="cls-1" d="M349.11,98.54a11.54,11.54,0,0,0-1.2-.2q-.41,0-.81-.12a.69.69,0,0,0-.35,0,.74.74,0,0,0-.39,0c-3.08.8-7.22,2.47-7.64,7.76a8.33,8.33,0,0,0,7.75,9.45q.61.06,1.2.06c4.42,0,7.76-2.78,8.64-7.35S354.37,99.83,349.11,98.54Zm5.67,9.31c-1,5-4.85,6.39-8.14,6-4.21-.46-6.7-3.51-6.36-7.77.27-3.35,2.2-5.25,6.47-6.36h0c.31.06.61.1.92.14a8.21,8.21,0,0,1,1,.16C353.18,101.16,355.5,104.14,354.78,107.85Z"/></g></g></svg>