<svg xmlns="http://www.w3.org/2000/svg" viewBox="0 0 57.82 43.38"><defs><style>.cls-1{fill:#ff8001;}</style></defs><g id="Layer_2" data-name="Layer 2"><g id="Layer_2-2" data-name="Layer 2"><path d="M0,4.64c.09-.3.17-.61.27-.91A5.44,5.44,0,0,1,5.35,0c2,0,4,0,6,0H52.2a5.38,5.38,0,0,1,5.44,4.11,6.42,6.42,0,0,1,.17,1.51q0,4.29,0,8.58a1.83,1.83,0,0,1-2,2.06,5.42,5.42,0,0,0,0,10.84,1.84,1.84,0,0,1,2,2.06v8.58a5.41,5.41,0,0,1-5.62,5.62q-23.28,0-46.57,0A5.39,5.39,0,0,1,.1,38.94a1.14,1.14,0,0,0-.1-.19V28.47a2.19,2.19,0,0,1,2.15-1.39A5.4,5.4,0,0,0,2.21,16.3,2.23,2.23,0,0,1,0,14.91Zm3.62,8.17a9.13,9.13,0,0,1,7.2,8.29,8.74,8.74,0,0,1-1.27,5.23,9.09,9.09,0,0,1-5.94,4.23v7.22a1.83,1.83,0,0,0,2,2H52.19a1.83,1.83,0,0,0,2-2c0-2.22,0-4.44,0-6.66,0-.17,0-.34,0-.49A9.14,9.14,0,0,1,47,22.28a8.83,8.83,0,0,1,1.28-5.23,9.13,9.13,0,0,1,5.93-4.23V5.89c0-1.63-.63-2.27-2.23-2.27H5.85c-.17,0-.34,0-.51,0a1.77,1.77,0,0,0-1.71,1.7C3.6,7.81,3.62,10.29,3.62,12.81Z"/><path class="cls-1" d="M14,21.07l.38-3.59L45,20.74l-.38,3.59Z"/><path class="cls-1" d="M26.75,12.71a5.42,5.42,0,1,1,6.48,4A5.43,5.43,0,0,1,26.75,12.71Zm5.7.46A1.81,1.81,0,0,0,33.76,11a1.85,1.85,0,0,0-2.23-1.32,1.82,1.82,0,0,0-1.26,2.21A1.78,1.78,0,0,0,32.45,13.17Z"/><path class="cls-1" d="M24.47,27.08a5.42,5.42,0,0,1,2.71,10.49,5.42,5.42,0,1,1-2.71-10.49Zm.91,3.5a1.8,1.8,0,0,0-1.31,2.17,1.85,1.85,0,0,0,2.23,1.32,1.82,1.82,0,0,0,1.26-2.21A1.76,1.76,0,0,0,25.38,30.58Z"/></g></g></svg>