<svg xmlns="http://www.w3.org/2000/svg" viewBox="0 0 59.08 58.39"><defs><style>.cls-1{fill:#4d4d4d;}</style></defs><title>Asset 26tym</title><g id="Layer_2" data-name="Layer 2"><g id="Layer_2-2" data-name="Layer 2"><path class="cls-1" d="M57.37,25.89l-3.95-3.56a.63.63,0,0,0-.84,0l-4,3.57a.24.24,0,0,0,.16.41h2a.29.29,0,0,1,.28.28V47.14a2,2,0,0,0,2,2h0a2,2,0,0,0,2-2V26.58a.28.28,0,0,1,.28-.28h2A.23.23,0,0,0,57.37,25.89Z"/><path class="cls-1" d="M49.3,51.24H8.07A.27.27,0,0,1,7.8,51V48.6a.56.56,0,0,0-.89-.44L1.6,52.1a.53.53,0,0,0-.06.81l5.31,5.32a.56.56,0,0,0,1-.4V55.51a.27.27,0,0,1,.27-.27H49.3a2,2,0,0,0,0-4Z"/><path class="cls-1" d="M57.44,1.47,47.28.65a.71.71,0,0,0-.21,0L39.79,0H39.3a2,2,0,0,0-2,1.94h0a7.86,7.86,0,0,1-6.67,7.57l-.23,0-.19,0-.6,0h-.13A7.85,7.85,0,0,1,21.77,2h0a2,2,0,0,0-2-1.94h0L1.64,1.47A1.78,1.78,0,0,0,0,3.25V19a1.79,1.79,0,0,0,1.79,1.78h9.1V42.06A7.08,7.08,0,0,0,18,49.15H40.86a7.33,7.33,0,0,0,7.33-7.33v-21h9.1A1.79,1.79,0,0,0,59.08,19V3.25A1.78,1.78,0,0,0,57.44,1.47ZM55.08,16.81H44.19v8.91h0V42.06a3.09,3.09,0,0,1-3.09,3.09H18a3.09,3.09,0,0,1-3.09-3.09V16.81H4V5.28L18,4.13a11.85,11.85,0,0,0,11.45,9.48h.2l.79,0A11.81,11.81,0,0,0,41.07,4.13l14,1.15Z"/></g></g></svg>