<svg xmlns="http://www.w3.org/2000/svg" viewBox="0 0 67.33 58.92"><defs><style>.cls-1{fill:#fff;}.cls-2{fill:#ff8001;}</style></defs><title>Asset 22tym</title><g id="Layer_2" data-name="Layer 2"><g id="Layer_2-2" data-name="Layer 2"><path class="cls-1" d="M59.4,24.17A28.2,28.2,0,0,0,54.74,9.41a55.82,55.82,0,0,0-3.93-4.9,1.7,1.7,0,0,0-2.17-.32,1.69,1.69,0,0,0-.84,2,2.87,2.87,0,0,0,.7,1.12A25.5,25.5,0,0,1,55.7,23c.08.9.06,1.8.19,2.69a1.7,1.7,0,0,0,1.9,1.38,1.76,1.76,0,0,0,1.61-1.66C59.42,25.05,59.4,24.7,59.4,24.17Z"/><path class="cls-1" d="M6.48,24.46a8,8,0,0,0,.36,1.72,1.72,1.72,0,0,0,2,.85,1.91,1.91,0,0,0,1.32-1.77,51.54,51.54,0,0,1,.54-5.13,25.09,25.09,0,0,1,6.93-13,1.81,1.81,0,1,0-2.58-2.52A29.76,29.76,0,0,0,6.48,24.46Z"/><path d="M32,58.92c-.42-.1-.84-.17-1.25-.29a8.92,8.92,0,0,1-6.49-6.47c-.1-.37-.25-.46-.6-.45H13.27A4.17,4.17,0,0,1,9,47.83a4,4,0,0,1,1.44-3.5,16.53,16.53,0,0,0,4-5,16.24,16.24,0,0,0,1.78-7.59c0-2.57-.11-5.15.09-7.7a16.34,16.34,0,0,1,8.78-13.56,16.17,16.17,0,0,1,6.13-1.92c0-.21,0-.41,0-.6,0-1.58,0-3.16,0-4.73a1.8,1.8,0,0,1,1.78-2,1.82,1.82,0,0,1,1.81,2c0,1.76,0,3.52,0,5.31.66.13,1.31.24,1.94.38a16.64,16.64,0,0,1,12.94,14.8c.22,2.68.11,5.39.12,8.09a16,16,0,0,0,3.66,10.39c.68.82,1.48,1.54,2.24,2.29a4.13,4.13,0,0,1,.92,4.76,4,4,0,0,1-3.84,2.46c-3.44,0-6.87,0-10.3,0H42a28,28,0,0,1-1.25,2.81,8.75,8.75,0,0,1-6.36,4.29,1.82,1.82,0,0,0-.3.11Zm1-10.81h19.3a4.34,4.34,0,0,0,.51,0,.59.59,0,0,0,.39-1,3.19,3.19,0,0,0-.33-.31,19.56,19.56,0,0,1-6.7-14.92c0-2.16,0-4.32,0-6.48a14.26,14.26,0,0,0-.29-2.84,13.18,13.18,0,0,0-26,1.63c-.15,2.53-.07,5.06-.08,7.6A19.62,19.62,0,0,1,13.73,46.2c-.31.3-.66.56-.94.88a.68.68,0,0,0-.14.6,1,1,0,0,0,.52.41,1.23,1.23,0,0,0,.51,0ZM28,51.74c.41,2,2.92,3.69,5.34,3.56,2.14-.11,4.49-1.91,4.65-3.56Z"/><path class="cls-2" d="M59.4,24.17c0,.53,0,.88,0,1.24a1.76,1.76,0,0,1-1.61,1.66,1.7,1.7,0,0,1-1.9-1.38c-.13-.89-.11-1.79-.19-2.69A25.5,25.5,0,0,0,48.5,7.27a2.87,2.87,0,0,1-.7-1.12,1.69,1.69,0,0,1,.84-2,1.7,1.7,0,0,1,2.17.32,55.82,55.82,0,0,1,3.93,4.9A28.2,28.2,0,0,1,59.4,24.17Z"/><path class="cls-2" d="M67.32,20.93c0,.53,0,.88,0,1.24a1.76,1.76,0,0,1-1.61,1.66,1.7,1.7,0,0,1-1.9-1.38c-.13-.89-.11-1.79-.19-2.69A25.5,25.5,0,0,0,56.42,4a2.87,2.87,0,0,1-.7-1.12,1.69,1.69,0,0,1,.84-2,1.7,1.7,0,0,1,2.17.32,55.82,55.82,0,0,1,3.93,4.9A28.2,28.2,0,0,1,67.32,20.93Z"/><path class="cls-2" d="M6.48,24.46A29.76,29.76,0,0,1,15.07,4.61a1.81,1.81,0,1,1,2.58,2.52,25.09,25.09,0,0,0-6.93,13,51.54,51.54,0,0,0-.54,5.13A1.91,1.91,0,0,1,8.86,27a1.72,1.72,0,0,1-2-.85A8,8,0,0,1,6.48,24.46Z"/><path class="cls-2" d="M0,20.5A29.76,29.76,0,0,1,8.59.65a1.81,1.81,0,1,1,2.58,2.52,25.09,25.09,0,0,0-6.93,13A51.54,51.54,0,0,0,3.7,21.3a1.91,1.91,0,0,1-1.32,1.77,1.72,1.72,0,0,1-2-.85A8,8,0,0,1,0,20.5Z"/></g></g></svg>