<svg xmlns="http://www.w3.org/2000/svg" viewBox="0 0 396.85 116.88"><defs><style>.cls-1{fill:#663636;}</style></defs><title>Asset 4RUMPLES</title><g id="Layer_2" data-name="Layer 2"><g id="Layer_1-2" data-name="Layer 1"><path class="cls-1" d="M300.89,81.6a18.14,18.14,0,0,0-2.76,0c-3.17.5-4.25-.6-4.19-4,.21-12.2.08-24.41.08-36.61,0-12.6-.07-25.2.06-37.8,0-2.44-.63-3.15-3.05-3-3.93.21-7.88-.09-11.8.11-1.45.08-4.07-1.29-4.17,1-.06,1.53,2.68.88,4,.73,3.42-.39,4.42.66,4.39,4.24-.18,22.57-.09,45.14-.09,67.72,0,2.23.69,4.88-.27,6.59-1.28,2.3-4.29.5-6.5,1a2.51,2.51,0,0,1-.39,0c-.67,0-1.35,0-1.35.94s.71,1,1.36,1q12.39,0,24.79,0c.65,0,1.39,0,1.45-.87C302.57,81.5,301.66,81.6,300.89,81.6Z"/><path class="cls-1" d="M203.19,81.65a11.65,11.65,0,0,0-2.36,0c-2.68.39-3.71-.54-3.55-3.39.24-4.18.07-8.39.07-12.59,0-6.82.11-13.65,0-20.47-.13-5.94-2.48-9.73-6.92-10.65-6.92-1.44-13.58-1-19,4.46-2,.9-2.58,3.17-4.21,4.48C164.31,35.35,161,33.29,152.83,34c-6.81.54-11.92,3.91-16.37,9.89,0-2.73.09-4.53,0-6.33-.06-.87.69-2.42-1-2.45-5.5-.1-11,0-16.53,0a.83.83,0,0,0-.89,1c.06.65.54.81,1.09.83a11.54,11.54,0,0,0,2.35,0c3.54-.57,4.68.73,4.59,4.41-.25,11-.08,22.06-.1,33.08,0,2.22.58,4.87-.42,6.54s-3.86.43-5.88.71c-.74.1-1.71-.08-1.59,1.11.09.85.88.81,1.51.82l5.9,0c5.51,0,11,0,16.53,0,.8,0,2.08.5,2.22-.85.16-1.52-1.2-1-2-1.05a6.78,6.78,0,0,0-2,0c-3.15.54-4-.78-3.9-3.87.21-8.26.16-16.54,0-24.8-.09-6.44,3-11,8.16-14.31,6.41-4.09,11.48-1.36,11.56,6.22.12,10.37.05,20.74.06,31.11,0,5.35,0,5.33-5.51,5.66-.88,0-2.47-.58-2.32,1.11.1,1.16,1.46.78,2.3.78,7,0,13.91.07,20.86,0,1.12,0,3.21.85,3.19-1s-2.09-.65-3.23-.94a1.87,1.87,0,0,0-.78,0c-3.2.61-3.93-.84-3.84-3.86.21-7.08.35-14.19,0-21.26-.33-6.41,1.3-11.88,5.68-16.53A36.29,36.29,0,0,1,177,37.56c5.38-2,9.45.36,9.57,6,.26,11.93.11,23.87.18,35.81,0,1.72-.63,2.38-2.33,2.21a18.3,18.3,0,0,0-3.14,0c-.82.06-2.11-.45-2.23.85s1.2,1.07,2,1.08c7.34,0,14.69,0,22,0,.81,0,2.14.41,2.19-.9S204,81.7,203.19,81.65Z"/><path class="cls-1" d="M386.16,53.45c-4.05-1.47-8.31-2.33-12.48-3.45-3.15-.85-6.14-1.89-6.44-5.83C367,41,369.91,37.24,373.5,36c7.39-2.61,14.52,1.11,17.06,8.85.31,1-.27,2.5,1.49,2.72V32.77c-2.44,3.69-4.54,3.4-7.51,1.72-3.51-2-7.63-1.57-11.49-.39a15.17,15.17,0,0,0-10.6,15.3c.22,6.56,4.11,10.81,11.41,12.53,3.95.94,8,1.64,11.73,3.19,6.46,2.64,8.05,6.07,5.89,12.69-4.66,5.26-10.45,6.48-17.06,4.78s-9.66-7.15-12.49-12.83v15c.73-.54,1.15-.7,1.31-1,1.44-2.65,2.58-3.57,5.73-1.26,6.34,4.65,19.49,3.69,23.33-2.39C400.39,71.31,397.29,57.49,386.16,53.45Z"/><path class="cls-1" d="M107.14,81.64a4.09,4.09,0,0,0-1.56,0c-3.43.53-4.68-.56-4.6-4.35.27-13,0-25.94.18-38.9,0-2.71-.63-3.67-3.43-3.47-3.51.26-7.07-.08-10.59.14-1.73.1-4.78-1.16-4.9,1-.09,1.72,3.12.86,4.73.76,3-.18,3.86.89,3.65,3.79-.25,3.65.06,7.34-.09,11-.27,6.78.88,13.61-.88,20.32-1.74,2.62-3.55,5.16-6.22,7-3.47,2.33-7.3,3.51-11.13,1.63-3.53-1.74-2.92-5.57-3-8.78q-.1-16.9,0-33.83c0-2-.32-3.06-2.71-3-4.71.18-9.43,0-14.15.09-.78,0-2.08-.59-2.22.8s1.17,1,2,1c6.44.47,6.44.47,6.44,6.78,0,6.69,0,13.38,0,20.07,0,3.8,0,7.61.33,11.39.42,4.77,2.91,8.3,7.73,9.24,8.41,1.63,15.86-.27,21.64-7.06.62-.73.77-2.05,2.16-2a34.8,34.8,0,0,1-.06,5.11c-.39,2.7.73,3.27,3.22,3.16,4.44-.2,8.9,0,13.35-.11.87,0,2.46.7,2.5-.91S108,81.85,107.14,81.64Z"/><path class="cls-1" d="M41.21,35.82A14.68,14.68,0,0,0,26,35.94c-2.94.86-4.84,3-6.49,5.39a2.82,2.82,0,0,1-.4-2.62c.55-3.23-.93-4-3.88-3.78-3.79.23-7.6,0-11.39.12-1.31,0-3.72-.76-3.7.72,0,2.22,2.54,1.14,3.77,1,3.79-.35,4.81,1,4.71,4.8C8.33,52.72,8.5,63.87,8.5,75c0,6.29,0,6.27-6.15,6.63-.87,0-2.5-.6-2.34,1,.14,1.42,1.69.81,2.62.82,6.68.07,13.36.17,20,0,1.62,0,4.65,1.09,4.68-.9s-3-1-4.56-.88c-3.3.28-3.85-1.08-3.8-4,.18-9.31.12-18.62,0-27.92A14.12,14.12,0,0,1,20.44,43a27.16,27.16,0,0,1,7.11-6.23,31.55,31.55,0,0,1,4.58-.86c1.06-.06,2.56-.57,3.18.71S34.39,38.24,33.8,39c-1.94,2.48-2.11,5.17-.3,7.58s4.58,3.25,7.68,2a5.7,5.7,0,0,0,3.7-5.47C45,40,44,37.35,41.21,35.82Z"/><path class="cls-1" d="M337,82.38l-2.68.56c-8.66,1.69-13.88-1.71-15-10.39-.62-4.64-.14-9.42-.44-14.12-.17-2.82.81-3.51,3.52-3.46,8.25.18,16.51.05,24.76.08,2.16,0,4.06-.06,3.44-3.13C346.81,33.46,328.41,28.75,317,37.45a28.09,28.09,0,0,0-10.27,28.66c3.8,15.09,18.94,23.26,32,17.26,6.7-2.29,12.58-9.7,12.09-16.56C347.41,73.9,343.62,79.54,337,82.38ZM324.83,35.94c4.4-1.58,9.13-.69,11.68,2.18,2.3,2.59,3.48,10.53,2.1,13.55-.62,1.34-1.66,1.48-2.9,1.46-2.5,0-5,0-7.49,0h0a5.76,5.76,0,0,1-2,0c-2.39-.93-6.36,2.34-7.25-1.8C317.48,44,320.3,37.56,324.83,35.94Z"/><path class="cls-1" d="M253.77,36.11c-7.89-4.81-15.22-3.65-21.68,2.87-.49.5-.78,1.52-1.84.91-.14-4.61-.13-4.84-1.53-4.87-5.25-.09-10.5,0-15.75,0-.68,0-1.34.15-1.26,1,0,.63.54.8,1.09.82a13.29,13.29,0,0,0,2.36,0c3.52-.55,4.6.69,4.56,4.41-.19,22.45-.1,44.91-.09,67.36,0,5.76,0,5.75-5.78,6.2-.85.06-2.16-.28-2.15,1s1.31,1,2.18,1c7.35,0,14.7,0,22.05,0,.9,0,2.16.2,2.23-1s-1.21-1.05-2.09-1.07a25.29,25.29,0,0,0-3.14,0c-1.93.18-2.83-.36-2.81-2.56.09-10.87,0-21.73,0-33.28C238.53,86,245.4,87.17,253,82.92c9-5.08,14-12.93,14.16-23.39S262.44,41.39,253.77,36.11ZM253.54,73c-1.09,7.32-4.39,10.35-10.64,10-6.58-.35-12.55-6-12.7-12.2-.1-3.8,0-7.61,0-11.42,0-3.27,0-6.55,0-9.84a14.62,14.62,0,0,1,12.15-14.27c4.49-.75,8,1.14,9.83,5.35A26.89,26.89,0,0,1,254,49.48,103.06,103.06,0,0,1,253.54,73Z"/><path class="cls-1" d="M124,94.53c-2.8,1.45-4.13,4.07-4,7.78a8.14,8.14,0,0,0,3.61,6.83,9.07,9.07,0,0,0,4.94,1.38,12,12,0,0,0,4.28-.83,3.13,3.13,0,0,0,2.08-3.55c-.06-.87,0-1.78,0-2.66,0-.4,0-.81,0-1.21a.79.79,0,0,0-1.57,0c0,.39,0,.79,0,1.18,0,.91,0,1.85,0,2.79.08,1.19-.16,1.64-1.08,2a8.65,8.65,0,0,1-7.8-.41,6.69,6.69,0,0,1-2.89-5.59c-.16-3.08.86-5.14,3.1-6.3a8.26,8.26,0,0,1,9.36.69.78.78,0,0,0,1.1-.16.77.77,0,0,0-.16-1.09A9.71,9.71,0,0,0,124,94.53Z"/><path class="cls-1" d="M13.32,96.66a.79.79,0,0,0,1.09-.25.78.78,0,0,0-.25-1.08c-4.63-2.94-9.12-2.74-12,.54-2.72,3.1-2.91,8.52-.41,11.6a7.7,7.7,0,0,0,6.14,3,11.8,11.8,0,0,0,6.26-2.06.78.78,0,0,0,.25-1.08.79.79,0,0,0-1.09-.24c-4.13,2.62-7.9,2.39-10.34-.62-2-2.49-1.85-7,.37-9.58C5.7,94.22,9.34,94.13,13.32,96.66Z"/><path class="cls-1" d="M182.4,107.47c-2.65,1.52-5.34,1.84-7.56.92a6.83,6.83,0,0,1-3.9-4.74,6.42,6.42,0,0,1,2.92-7.7,7.23,7.23,0,0,1,8.49.3.79.79,0,0,0,1.09-.2.78.78,0,0,0-.2-1.09A8.82,8.82,0,0,0,173,94.63a8,8,0,0,0-3.58,9.43,8.31,8.31,0,0,0,4.8,5.77,8.44,8.44,0,0,0,3.27.65,11.49,11.49,0,0,0,5.68-1.65.77.77,0,0,0,.29-1.07A.79.79,0,0,0,182.4,107.47Z"/><path class="cls-1" d="M30.22,108.94H21.59V94.43a.79.79,0,1,0-1.57,0v15.29a.78.78,0,0,0,.78.79h9.42a.79.79,0,0,0,0-1.57Z"/><path class="cls-1" d="M157.85,107a2.56,2.56,0,0,0,1-2.5,3.74,3.74,0,0,1,0-.58.78.78,0,0,0-.69-.86.79.79,0,0,0-.87.69,5.51,5.51,0,0,0,0,.81c0,.69,0,1-.47,1.23-.84-1-1.78-1.89-2.69-2.76-.53-.51-1.06-1-1.59-1.57L153,101a15.27,15.27,0,0,1,1.3-1.26c1.86-1.54,2.19-3.54.87-5.36-1.69-2.35-4.5-1-5.56-.5A2.9,2.9,0,0,0,148,95.74a4.31,4.31,0,0,0,.68,3.47,18.41,18.41,0,0,0,1.48,2,.77.77,0,0,0-.8.07l-.5.37-1.09.82c-2.11,1.69-2.61,4.19-1.22,6.1a5.42,5.42,0,0,0,4.48,2.3,7,7,0,0,0,1.78-.24,9.69,9.69,0,0,0,3.73-2.21l.25-.21,2.37,1.78a.79.79,0,0,0,.94-1.26ZM150,98.38a2.78,2.78,0,0,1-.51-2.2,1.37,1.37,0,0,1,.75-.88,5.77,5.77,0,0,1,2.26-.69,1.56,1.56,0,0,1,1.35.69c.82,1.14.62,2.23-.6,3.24a17.27,17.27,0,0,0-1.44,1.39l-.36.38A18.34,18.34,0,0,1,150,98.38Zm5.52,8.8a8.12,8.12,0,0,1-3.13,1.9,4,4,0,0,1-4.58-1.46c-.9-1.23-.53-2.78.93-4,.34-.27.69-.53,1-.79l.51-.37a.79.79,0,0,0,.28-.83c.79.87,1.62,1.69,2.44,2.48a34.6,34.6,0,0,1,2.74,2.84Z"/><path class="cls-1" d="M114,108.58a.7.7,0,0,0,.12-.28,42.13,42.13,0,0,0,.41-8.8c0-1.66-.09-3.37,0-5a.79.79,0,0,0-.75-.82.78.78,0,0,0-.82.75c-.09,1.72,0,3.46,0,5.15a46.62,46.62,0,0,1-.21,7.37c-1.17-1.51-2.38-3-3.58-4.42a74.93,74.93,0,0,1-6.91-9.25A.79.79,0,0,0,101.2,93a.78.78,0,0,0-.27,1.07c.25.42.51.84.77,1.24a.82.82,0,0,0-.48.57,41.71,41.71,0,0,0-.41,9c0,1.73.1,3.52,0,5.25a.79.79,0,0,0,.74.83h0a.8.8,0,0,0,.79-.74c.09-1.81,0-3.63,0-5.38a43.49,43.49,0,0,1,.29-8.06c1.66,2.37,3.51,4.6,5.32,6.77s3.83,4.61,5.52,7.07a.77.77,0,0,0,.64.34.82.82,0,0,0,.45-.14.78.78,0,0,0,.2-1.09C114.55,109.3,114.28,108.94,114,108.58Z"/><path class="cls-1" d="M93.37,94a.79.79,0,0,0-.79.79v14.12a.79.79,0,0,0,1.57,0V94.82A.78.78,0,0,0,93.37,94Z"/><path class="cls-1" d="M84.74,93.64a.79.79,0,0,0-.79.79v6.66H73V94.43a.79.79,0,1,0-1.57,0v14.9a.79.79,0,0,0,1.57,0v-6.67H84v6.67a.79.79,0,0,0,1.57,0V94.43A.78.78,0,0,0,84.74,93.64Z"/><path class="cls-1" d="M66.26,93.25c-1.4.07-2.85,0-4.24,0a37.77,37.77,0,0,0-7.63.38.79.79,0,0,0,.14,1.56h.15A29,29,0,0,1,60,94.81h0v15.29a.78.78,0,1,0,1.56,0V94.83H62c1.42,0,2.89,0,4.35,0a.79.79,0,0,0,.75-.83A.78.78,0,0,0,66.26,93.25Z"/><path class="cls-1" d="M42,93.25a.62.62,0,0,0-.24,0,.86.86,0,0,0-.32,0c-4.59.74-7.3,3.5-7.64,7.78-.31,3.94,1.12,6.72,4.26,8.25A11.21,11.21,0,0,0,43,110.48a7.77,7.77,0,0,0,5-1.72c3.08-2.57,4.14-5.94,3-9.48C49.7,95.4,46.94,93.54,42,93.25ZM47,107.55c-2,1.68-5.16,1.81-8.19.33-2.54-1.24-3.65-3.44-3.39-6.72.36-4.46,3.64-5.92,6.33-6.35l.07,0a.8.8,0,0,0,.15,0c4.23.25,6.48,1.73,7.53,5C50.43,102.7,49.57,105.39,47,107.55Z"/><path class="cls-1" d="M197.91,93.59a9.94,9.94,0,0,0-1.21-.21,7.54,7.54,0,0,1-.81-.12.82.82,0,0,0-.35,0,.86.86,0,0,0-.39,0c-3.08.8-7.22,2.48-7.64,7.76-.41,5.1,2.7,8.9,7.75,9.45a9.89,9.89,0,0,0,1.2.07c4.42,0,7.76-2.79,8.65-7.35S203.17,94.88,197.91,93.59Zm5.66,9.31c-1,5-4.84,6.38-8.14,6-4.2-.46-6.7-3.5-6.36-7.76.27-3.35,2.21-5.26,6.47-6.37h0c.31.06.62.1.93.14s.69.09,1,.17C202,96.2,204.29,99.19,203.57,102.9Z"/></g></g></svg>