<svg xmlns="http://www.w3.org/2000/svg" viewBox="0 0 70.58 58.08"><defs><style>.cls-1{fill:#ff8001;}</style></defs><g id="Layer_2" data-name="Layer 2"><g id="Layer_2-2" data-name="Layer 2"><path d="M36,45.07a2.28,2.28,0,0,0-2.29,2.29v6.15H5.17a.6.6,0,0,1-.6-.6V5.17a.6.6,0,0,1,.6-.6H33.34v6.77a2.29,2.29,0,1,0,4.57,0V4.24A4.24,4.24,0,0,0,33.67,0H5.17A5.18,5.18,0,0,0,0,5.17V52.91a5.18,5.18,0,0,0,5.17,5.17H34.08a4.24,4.24,0,0,0,4.24-4.24V47.36A2.28,2.28,0,0,0,36,45.07Z"/><path class="cls-1" d="M54.48,12.94a2.28,2.28,0,1,0-3.21,3.25L61.78,26.55H21.62a2.29,2.29,0,1,0,0,4.57H61.45l-9.93,9.36a2.29,2.29,0,0,0,3.13,3.33l15.93-15Z"/></g></g></svg>