<svg xmlns="http://www.w3.org/2000/svg" viewBox="0 0 309.28 329.55"><defs><style>.cls-1{fill:#eee6d4;}.cls-2{fill:#bbc8dd;}.cls-3{fill:#6f7174;}.cls-4{fill:#4d4e50;}.cls-5{fill:#303043;}.cls-6{fill:#727272;}.cls-7{fill:#595981;}.cls-11,.cls-8{fill:#df9b30;}.cls-9{fill:#a36233;}.cls-10{fill:#fff;}.cls-11{font-size:17.32px;font-family:Roboto-Medium, Roboto;font-weight:500;}</style></defs><title>Asset 32505page</title><g id="Layer_2" data-name="Layer 2"><g id="Layer_2-2" data-name="Layer 2"><circle class="cls-1" cx="142.08" cy="142.08" r="130.13" transform="translate(-58.85 142.08) rotate(-45)"/><path class="cls-1" d="M142.08,284.17A142.08,142.08,0,0,1,41.62,41.62,142.08,142.08,0,1,1,242.55,242.55,141.12,141.12,0,0,1,142.08,284.17Zm0-281.91C65,2.26,2.26,65,2.26,142.08S65,281.91,142.08,281.91s139.83-62.72,139.83-139.83S219.19,2.26,142.08,2.26Z"/><rect class="cls-2" x="118.61" y="294.06" width="108.7" height="7.14" rx="3.43"/><rect class="cls-3" x="169.67" y="218.3" width="10.43" height="21.41"/><path class="cls-4" d="M180.1,218.3v7.55c-3.84-.16-7.69-.32-10.43-.45v-7.1Z"/><rect class="cls-5" x="137.28" y="201.83" width="75.21" height="18.12" rx="8.98"/><path class="cls-5" d="M138.38,280.89H134v-9.75a7.09,7.09,0,0,1,1.95-5.41c1.45-1.38,3.38-2,6-2.44a10.69,10.69,0,0,1,3.23,0h25v2.74H145.07a8.83,8.83,0,0,0-5.73,2.15,4,4,0,0,0-1,2.93Z"/><rect class="cls-5" x="154.85" y="266.06" width="4.94" height="25.8"/><path class="cls-6" d="M159.61,290.18a7.26,7.26,0,0,1-.06.93,7.45,7.45,0,0,1-14.78,0,7.26,7.26,0,0,1-.06-.93,7.45,7.45,0,0,1,14.9,0Z"/><path class="cls-5" d="M159.61,290.28c0,.32,0,.49-.06,1H144.77c0-.55-.06-.72-.06-1a7.45,7.45,0,0,1,14.9,0Z"/><rect class="cls-5" x="133.99" y="268.81" width="4.39" height="23.06"/><path class="cls-6" d="M138.68,290.18a7.26,7.26,0,0,1-.06.93,7.45,7.45,0,0,1-14.78,0c0-.31,0-.62,0-.93a7.45,7.45,0,1,1,14.89,0Z"/><path class="cls-5" d="M138.68,290.28c0,.32,0,.49-.06,1H123.84c0-.55,0-.72,0-1a7.45,7.45,0,1,1,14.89,0Z"/><rect class="cls-5" x="190.53" y="266.06" width="4.94" height="25.8"/><path class="cls-6" d="M195.58,290.18a7.26,7.26,0,0,1-.06.93,7.45,7.45,0,0,1-14.78,0,7.26,7.26,0,0,1-.06-.93,7.45,7.45,0,0,1,14.9,0Z"/><path class="cls-5" d="M195.58,290.28c0,.32,0,.49-.06,1H180.74c0-.55-.06-.72-.06-1a7.45,7.45,0,0,1,14.9,0Z"/><path class="cls-5" d="M210.29,280.89h4.94v-9.75a7.14,7.14,0,0,0-2.08-5.41c-1.44-1.38-3.44-2-6.07-2.44a11.2,11.2,0,0,0-3.3,0H179v2.74h24.9a8.49,8.49,0,0,1,5.58,2.15,4,4,0,0,1,.81,2.93Z"/><rect class="cls-5" x="210.29" y="268.81" width="4.94" height="23.06"/><path class="cls-6" d="M200,290.18c0,.31,0,.62.05.93a7.45,7.45,0,0,0,14.78,0,7.26,7.26,0,0,0,.06-.93,7.45,7.45,0,1,0-14.89,0Z"/><path class="cls-5" d="M200,290.28c0,.32,0,.49.05,1h14.78c0-.55.06-.72.06-1a7.45,7.45,0,1,0-14.89,0Z"/><rect class="cls-5" x="167.47" y="235.87" width="14.82" height="32.94"/><rect class="cls-7" x="170.22" y="235.87" width="4.39" height="32.94"/><rect class="cls-5" x="164.18" y="215.56" width="21.96" height="7.14"/><path class="cls-5" d="M163.86,232a1.53,1.53,0,0,1-1.47,1.64H136.88a1.53,1.53,0,0,1-1.47-1.64h0a1.53,1.53,0,0,1,1.47-1.65h25.51a1.53,1.53,0,0,1,1.47,1.65Z"/><path class="cls-5" d="M161,233.15a1.12,1.12,0,0,1-.74-.28,1.14,1.14,0,0,1-.13-1.61L171.36,218a1.15,1.15,0,0,1,1.75,1.48l-11.28,13.24A1.15,1.15,0,0,1,161,233.15Z"/><path class="cls-5" d="M93.76,143.55a1.31,1.31,0,0,1-1.18-1.87l17.17-35.81a1.31,1.31,0,0,1,2.36,1.14l-17.17,35.8A1.31,1.31,0,0,1,93.76,143.55Z"/><path class="cls-8" d="M244.76,193.94c-2.63-2.78-6.42-3.76-11.68-4.45-6-.78-15.24-1.25-27.54-1.41-7.67-.11-25.66-1.09-28.08-11-.81-3.29-.47-7.34-.67-10.73-.17-3.1-.33-6.19-.46-9.29-.26-5.69-.5-11.39-.83-17.08-.59-10.43-1.11-20.86-1.7-31.28-.12-2.06-.34-4.14-.34-6.2,0-5.94-4.55-13.68-12.34-14.72-14.72-2-46.11-5.39-49.05,0,0,0,7.09,89.15,8.92,96.21s26.38,13.22,29.23,14.46c1.87.82,12.35,1.13,20.71,1.09,4.93,6.1,7.59,12.36,18.15,13.31,2.43.22,46.38-2.87,47.95-2.76a9.55,9.55,0,0,0,7.73-16.17Z"/><path class="cls-9" d="M149.06,211.65c-13.33-1.2-23.71-5.24-30.94-12s-8.53-13.83-8.73-15.18a8.28,8.28,0,0,1-.09-1l-3.89-88.06a9.81,9.81,0,1,1,19.6-.86q.54,12.15,1.06,24.32c.62,14.52,1.07,29.07,1.94,43.57.18,3.08.29,6.15.33,9.24.07,5-.36,11.42,4.33,14.55a30.71,30.71,0,0,0,12.13,5.09,77.74,77.74,0,0,0,12.08,1.11c12.31.14,21.58.61,27.55,1.4,5.26.69,9,1.69,11.67,4.52a10.08,10.08,0,0,1,2.67,7.44c-.36,5.4-3.8,8-9.2,7.6A244.44,244.44,0,0,1,156.66,212C154.05,211.74,151.5,211.87,149.06,211.65Z"/><path class="cls-9" d="M168.27,111.9c-5.64-.51-11.38-.23-17-.23h-8.52a80.7,80.7,0,0,0-8.52.12.39.39,0,0,0,0,.78,78.1,78.1,0,0,0,8.52.13h8.52c5.66,0,11.4.29,17-.22A.3.3,0,0,0,168.27,111.9Z"/><path class="cls-9" d="M168.27,137.08c-5.64-.51-11.38-.23-17-.23h-8.52a80.7,80.7,0,0,0-8.52.12.39.39,0,0,0,0,.78,78.1,78.1,0,0,0,8.52.13h8.52c5.66,0,11.4.29,17-.22A.3.3,0,0,0,168.27,137.08Z"/><path class="cls-9" d="M169,152c-5.64-.63-11.49-.19-17.15-.19h-8.59a70.08,70.08,0,0,0-9.17.24.24.24,0,0,0,0,.47,65.91,65.91,0,0,0,8.55.24h17.19a82.51,82.51,0,0,0,9.17-.19A.29.29,0,0,0,169,152Z"/><path class="cls-9" d="M169,123.9c-5.64-.63-11.49-.2-17.15-.19h-8.59a70.08,70.08,0,0,0-9.17.24.24.24,0,0,0,0,.47,65.9,65.9,0,0,0,8.55.23h17.19a82.51,82.51,0,0,0,9.17-.2A.28.28,0,0,0,169,123.9Z"/><path class="cls-5" d="M158,128.35a1.3,1.3,0,0,1-1.24-.91c-.07-.21-6.91-21.16-11.25-31.79-4-9.86-14.38-10-14.49-10a1.31,1.31,0,0,1,0-2.62c.13,0,12.22.13,16.91,11.6,4.38,10.71,11.25,31.76,11.32,32a1.32,1.32,0,0,1-.84,1.65A1.18,1.18,0,0,1,158,128.35Z"/><rect class="cls-10" x="87.34" y="132.14" width="79.13" height="21.91" transform="translate(-31.22 35.49) rotate(-14.2)"/><text class="cls-11" transform="translate(95.73 158.48) rotate(-14.2)">Errorrrr!</text><path class="cls-10" d="M42.75,141.58s19.29-2.75,21.12-22c0,0,2.76,20.67,20.2,20.21-.92,1.37-18.82,2.29-19.74,20.19C64.33,159.94,64.79,140.2,42.75,141.58Z"/><path class="cls-10" d="M69.39,174.31s9.42-1.35,10.32-10.77c0,0,1.34,10.1,9.87,9.87-.45.68-9.2,1.12-9.65,9.87C79.93,183.28,80.15,173.64,69.39,174.31Z"/><path class="cls-10" d="M35,184.81s7.23-1,7.91-8.26c0,0,1,7.75,7.58,7.58-.34.51-7.06.86-7.4,7.57C43.1,191.7,43.27,184.3,35,184.81Z"/><path class="cls-9" d="M52.88,89.92,39.46,77.19,52,60.36l5.18,3.85L48.68,75.63l5.23,4.91a10.21,10.21,0,0,1,.66-2.42,10.55,10.55,0,0,1,1.37-2.5q3.2-4.29,7.45-4.7t8.85,3a12.79,12.79,0,0,1,4.09,5,10.66,10.66,0,0,1,.87,6,13.74,13.74,0,0,1-2.73,6.18,14.65,14.65,0,0,1-4.9,4.25,11.35,11.35,0,0,1-5.83,1.44,9.3,9.3,0,0,1-5.39-2l5-6.68a4.73,4.73,0,0,0,3.26.85,4,4,0,0,0,2.71-1.7q2.51-3.36-2.47-7.06-4.61-3.44-7.66.69a5.1,5.1,0,0,0-1.1,4.59Z"/><path class="cls-9" d="M95.65,52.83q4.13,6,3.65,11.1t-5.36,8.46q-4.95,3.39-9.9,2T75,67L71.3,61.57q-4.11-6-3.65-11.11T73,42q4.92-3.37,9.87-2t9,7.4ZM84.49,51.24a12.77,12.77,0,0,0-4.1-4.2,3.37,3.37,0,0,0-3.72.24,3.29,3.29,0,0,0-1.57,3.23,11.91,11.91,0,0,0,2.17,5l5.19,7.57a12.9,12.9,0,0,0,4.15,4.28,3.4,3.4,0,0,0,3.7-.28,3.32,3.32,0,0,0,1.56-3.26,12.32,12.32,0,0,0-2.36-5.28Z"/><path class="cls-9" d="M102,46.84,99.18,28.57l20.2-5.69,1.75,6.22L107.43,33,108.58,40a9.68,9.68,0,0,1,2-1.51,10.67,10.67,0,0,1,2.61-1.15q5.16-1.44,8.78.83T127.13,46a12.8,12.8,0,0,1,.21,6.43,10.54,10.54,0,0,1-3,5.32A13.79,13.79,0,0,1,118.41,61a14.7,14.7,0,0,1-6.48.37,11.36,11.36,0,0,1-5.5-2.42,9.23,9.23,0,0,1-3.07-4.83l8-2.26a4.74,4.74,0,0,0,2.06,2.67,4,4,0,0,0,3.19.31q4-1.14,2.35-7.11-1.55-5.52-6.49-4.13a5.12,5.12,0,0,0-3.67,3Z"/><path class="cls-9" d="M156.67,46.45,154,58.33l-8.45-1.91,7.93-35,14,3.16a16.71,16.71,0,0,1,6.77,3.09,11.44,11.44,0,0,1,3.84,5.29,11.81,11.81,0,0,1,.29,6.58,10.38,10.38,0,0,1-5.52,7.36q-4.37,2.23-10.76.79Zm1.48-6.52,5.53,1.25a5.37,5.37,0,0,0,4-.38,4.68,4.68,0,0,0,2.07-3.17,5.78,5.78,0,0,0-.44-4.22,4.79,4.79,0,0,0-3.27-2.31l-5.63-1.27Z"/><path class="cls-9" d="M192.65,67.05l-10.11-6.2-5.27,4.64-7.89-4.83,30-23.74,6.94,4.25-7.44,37.55-7.92-4.86Zm-4.86-10.82,6.58,4,3.21-12.64Z"/><path class="cls-9" d="M219.7,100.05a13.86,13.86,0,0,1-6.36-2.55,25,25,0,0,1-6.13-6c-2.81-3.76-3.9-7.64-3.28-11.61s2.94-7.57,6.93-10.8l2.47-1.87a21.42,21.42,0,0,1,8.55-4,13.85,13.85,0,0,1,8.09.66,15.06,15.06,0,0,1,6.53,5.19q4,5.39,3.77,10.19t-4.75,9l-5-6.68a6.8,6.8,0,0,0,2.29-4.11,6.15,6.15,0,0,0-1.48-4.13,5.63,5.63,0,0,0-5.22-2.38q-3.27.24-7.4,3.28L217,75.5q-4.3,3.21-5.37,6.3a6.5,6.5,0,0,0,1.29,6.25,7.29,7.29,0,0,0,4.21,3.13l4.47-3.33L218,83l4.77-3.55,8.77,11.76Z"/><path class="cls-9" d="M238,122.76l-3.91-13-8.22,2.47,4.62,15.4-6.38,1.91L217,105.81,251.39,95.5l7.12,23.74-6.4,1.92-4.63-15.45-7.25,2.17,3.9,13Z"/><path class="cls-9" d="M13.29,321.38a4.65,4.65,0,0,1-.72,2.36,4.44,4.44,0,0,1-1.85,1.59,6.36,6.36,0,0,1-2.72.56,5,5,0,0,1-4-1.64,6.79,6.79,0,0,1-1.45-4.64V319a7.85,7.85,0,0,1,.65-3.29,5,5,0,0,1,1.89-2.18A5.28,5.28,0,0,1,8,312.74,5.51,5.51,0,0,1,11.71,314a4.86,4.86,0,0,1,1.61,3.38H10.24a2.28,2.28,0,0,0-.59-1.68A2.41,2.41,0,0,0,8,315.15a1.85,1.85,0,0,0-1.69.86,5.44,5.44,0,0,0-.56,2.75v.91a6.14,6.14,0,0,0,.51,2.92,1.87,1.87,0,0,0,1.77.88,2.36,2.36,0,0,0,1.63-.5,2.12,2.12,0,0,0,.59-1.59Z"/><path class="cls-9" d="M14.54,320.87a5.57,5.57,0,0,1,.56-2.53,4,4,0,0,1,1.59-1.71,4.76,4.76,0,0,1,2.43-.6,4.38,4.38,0,0,1,3.37,1.32,5.07,5.07,0,0,1,1.23,3.6v.11a4.88,4.88,0,0,1-1.24,3.52,4.37,4.37,0,0,1-3.34,1.31,4.45,4.45,0,0,1-3.26-1.22,4.78,4.78,0,0,1-1.33-3.3Zm3,.19a3.51,3.51,0,0,0,.41,1.93,1.36,1.36,0,0,0,1.22.61q1.58,0,1.62-2.43v-.3c0-1.7-.55-2.55-1.64-2.55s-1.52.73-1.61,2.2Z"/><path class="cls-9" d="M28.13,316.21l.09,1.11A3.28,3.28,0,0,1,30.94,316a2.41,2.41,0,0,1,2.43,1.43,3.19,3.19,0,0,1,2.8-1.43q2.88,0,3,3.5v6.18h-3v-6a1.84,1.84,0,0,0-.25-1.06,1,1,0,0,0-.9-.33,1.41,1.41,0,0,0-1.31.78v6.61h-3v-6a2,2,0,0,0-.23-1.08,1.06,1.06,0,0,0-.91-.33,1.42,1.42,0,0,0-1.3.78v6.61h-3v-9.5Z"/><path class="cls-9" d="M45.73,325.89a4.88,4.88,0,0,1-3.54-1.31,4.5,4.5,0,0,1-1.35-3.39v-.25a5.82,5.82,0,0,1,.54-2.57A3.9,3.9,0,0,1,43,316.64a4.73,4.73,0,0,1,2.46-.61,4.11,4.11,0,0,1,3.16,1.24,4.92,4.92,0,0,1,1.16,3.47v1.15H43.85a2.19,2.19,0,0,0,.7,1.26,2.06,2.06,0,0,0,1.38.45,2.65,2.65,0,0,0,2.2-1l1.35,1.6a3.88,3.88,0,0,1-1.56,1.22A5.36,5.36,0,0,1,45.73,325.89Zm-.33-7.57c-.87,0-1.38.57-1.55,1.72h3v-.23a1.47,1.47,0,0,0-.36-1.1A1.43,1.43,0,0,0,45.4,318.32Z"/><path class="cls-9" d="M64.85,321a5.75,5.75,0,0,1-1,3.59,3.22,3.22,0,0,1-2.72,1.26,2.8,2.8,0,0,1-2.34-1.15l-.12,1H56V312.22h3V317a2.73,2.73,0,0,1,2.14-.94,3.24,3.24,0,0,1,2.74,1.28,5.75,5.75,0,0,1,1,3.58Zm-3-.19a3.78,3.78,0,0,0-.37-2,1.21,1.21,0,0,0-1.12-.58,1.43,1.43,0,0,0-1.39.76v3.77a1.45,1.45,0,0,0,1.41.75,1.25,1.25,0,0,0,1.33-1A7.62,7.62,0,0,0,61.88,320.85Z"/><path class="cls-9" d="M71.81,325.71a3.35,3.35,0,0,1-.28-.85,2.73,2.73,0,0,1-2.28,1,3.39,3.39,0,0,1-2.29-.81,2.83,2.83,0,0,1,.21-4.38,5.77,5.77,0,0,1,3.32-.79h.91v-.51c0-.87-.38-1.31-1.13-1.31a.92.92,0,0,0-1.06,1h-3a2.65,2.65,0,0,1,1.17-2.24,5,5,0,0,1,3-.86,4.32,4.32,0,0,1,2.87.89,3.09,3.09,0,0,1,1.08,2.43v4.21a4.38,4.38,0,0,0,.4,2v.15ZM70,323.78a1.66,1.66,0,0,0,.92-.24,1.45,1.45,0,0,0,.52-.53v-1.52h-.86c-1,0-1.55.46-1.55,1.39a.83.83,0,0,0,.28.65A1,1,0,0,0,70,323.78Z"/><path class="cls-9" d="M80.33,323.6a1.34,1.34,0,0,0,1-.33,1.23,1.23,0,0,0,.33-.95h2.78a3.29,3.29,0,0,1-1.12,2.57,4.71,4.71,0,0,1-6.15-.3,5.12,5.12,0,0,1-1.2-3.6v-.13a5.82,5.82,0,0,1,.53-2.54,3.91,3.91,0,0,1,1.54-1.7,4.58,4.58,0,0,1,2.37-.59,4.1,4.1,0,0,1,2.94,1,3.62,3.62,0,0,1,1.09,2.78H81.63a1.61,1.61,0,0,0-.36-1.13,1.24,1.24,0,0,0-1-.39c-.77,0-1.22.48-1.35,1.46a10.68,10.68,0,0,0-.06,1.29,4.16,4.16,0,0,0,.34,2A1.19,1.19,0,0,0,80.33,323.6Z"/><path class="cls-9" d="M89.79,322.17,89,323v2.7H86v-13.5h3v7.17l.3-.4,2.23-2.77H95l-3.33,3.91,3.55,5.59H91.86Z"/><path class="cls-9" d="M105.88,323a.67.67,0,0,0-.4-.6A5.78,5.78,0,0,0,104,322a6.94,6.94,0,0,1-1.83-.64,3,3,0,0,1-1.09-1,2.23,2.23,0,0,1-.38-1.3,2.62,2.62,0,0,1,1.08-2.16,4.42,4.42,0,0,1,2.83-.85,4.92,4.92,0,0,1,3,.85,2.68,2.68,0,0,1,1.14,2.24h-3q0-1.14-1.2-1.14a1.2,1.2,0,0,0-.78.26.81.81,0,0,0-.32.65.74.74,0,0,0,.39.64,3.66,3.66,0,0,0,1.23.4,10.72,10.72,0,0,1,1.49.38,2.7,2.7,0,0,1,2.14,2.64,2.48,2.48,0,0,1-1.15,2.12,5,5,0,0,1-3,.82,5.21,5.21,0,0,1-2.18-.44,3.52,3.52,0,0,1-1.49-1.2,2.68,2.68,0,0,1-.54-1.59h2.77a1.14,1.14,0,0,0,.44,1,1.81,1.81,0,0,0,1.08.3,1.41,1.41,0,0,0,.91-.25A.77.77,0,0,0,105.88,323Z"/><path class="cls-9" d="M110.05,320.87a5.7,5.7,0,0,1,.55-2.53,4,4,0,0,1,1.59-1.71,4.82,4.82,0,0,1,2.44-.6,4.37,4.37,0,0,1,3.36,1.32,5.07,5.07,0,0,1,1.23,3.6v.11a4.92,4.92,0,0,1-1.23,3.52,4.38,4.38,0,0,1-3.34,1.31,4.43,4.43,0,0,1-3.26-1.22,4.74,4.74,0,0,1-1.33-3.3Zm3,.19a3.6,3.6,0,0,0,.41,1.93,1.39,1.39,0,0,0,1.23.61c1,0,1.59-.81,1.61-2.43v-.3c0-1.7-.54-2.55-1.63-2.55s-1.53.73-1.61,2.2Z"/><path class="cls-9" d="M120.46,320.87a5.7,5.7,0,0,1,.55-2.53,4,4,0,0,1,1.59-1.71A4.82,4.82,0,0,1,125,316a4.37,4.37,0,0,1,3.36,1.32,5.07,5.07,0,0,1,1.23,3.6v.11a4.92,4.92,0,0,1-1.23,3.52,4.38,4.38,0,0,1-3.34,1.31,4.43,4.43,0,0,1-3.26-1.22,4.74,4.74,0,0,1-1.33-3.3Zm3,.19a3.6,3.6,0,0,0,.41,1.93,1.39,1.39,0,0,0,1.23.61c1,0,1.59-.81,1.61-2.43v-.3c0-1.7-.54-2.55-1.63-2.55s-1.53.73-1.61,2.2Z"/><path class="cls-9" d="M134,316.21l.1,1.11a3.23,3.23,0,0,1,2.72-1.29,2.7,2.7,0,0,1,2.21.89,4.17,4.17,0,0,1,.76,2.67v6.12h-3v-6a1.58,1.58,0,0,0-.29-1.06,1.35,1.35,0,0,0-1.05-.33,1.4,1.4,0,0,0-1.29.68v6.71h-3v-9.5Z"/><path class="cls-9" d="M142.74,329.16l-1.49-.71.29-.59a4.93,4.93,0,0,0,.65-2.18v-2.2h2.37v1.91a4.79,4.79,0,0,1-.52,2.05A5.29,5.29,0,0,1,142.74,329.16Z"/><path class="cls-9" d="M162.61,319.58a7.56,7.56,0,0,1-.69,3.31,5.16,5.16,0,0,1-2,2.22,5.46,5.46,0,0,1-2.91.78,5.57,5.57,0,0,1-2.9-.75,5.14,5.14,0,0,1-2-2.15,7.3,7.3,0,0,1-.74-3.21v-.72a7.53,7.53,0,0,1,.69-3.31,5.08,5.08,0,0,1,2-2.22,5.57,5.57,0,0,1,2.93-.79,5.43,5.43,0,0,1,2.9.78,5.17,5.17,0,0,1,2,2.2,7.28,7.28,0,0,1,.72,3.27Zm-3.14-.54a5.41,5.41,0,0,0-.63-2.89,2.06,2.06,0,0,0-1.83-1c-1.54,0-2.36,1.16-2.45,3.48v.94a5.49,5.49,0,0,0,.63,2.89,2,2,0,0,0,1.85,1,2,2,0,0,0,1.8-1,5.36,5.36,0,0,0,.64-2.86Z"/><path class="cls-9" d="M168.19,322.17l-.84.84v2.7h-3v-13.5h3v7.17l.3-.4,2.23-2.77h3.55l-3.33,3.91,3.55,5.59h-3.39Z"/><path class="cls-9" d="M180.27,318.89l-1-.07c-.93,0-1.53.29-1.79.87v6h-3v-9.5h2.78l.09,1.22a2.3,2.3,0,0,1,2.08-1.4,2.88,2.88,0,0,1,.83.11Z"/><path class="cls-9" d="M181.62,313.75a1.3,1.3,0,0,1,.46-1,1.71,1.71,0,0,1,1.18-.41,1.74,1.74,0,0,1,1.19.41,1.42,1.42,0,0,1,0,2.07,1.74,1.74,0,0,1-1.19.41,1.71,1.71,0,0,1-1.18-.41A1.3,1.3,0,0,1,181.62,313.75Zm3.14,12h-3v-9.5h3Z"/><path class="cls-9" d="M190.71,322.17l-.83.84v2.7h-3v-13.5h3v7.17l.29-.4,2.24-2.77H196l-3.33,3.91,3.55,5.59h-3.4Z"/><path class="cls-9" d="M202.4,325.71a3.29,3.29,0,0,1-.29-.85,2.73,2.73,0,0,1-2.28,1,3.35,3.35,0,0,1-2.28-.81,2.61,2.61,0,0,1-1-2.05,2.65,2.65,0,0,1,1.15-2.33,5.8,5.8,0,0,1,3.32-.79H202v-.51c0-.87-.38-1.31-1.13-1.31a.93.93,0,0,0-1.06,1h-3a2.64,2.64,0,0,1,1.18-2.24,5,5,0,0,1,3-.86,4.32,4.32,0,0,1,2.87.89,3.09,3.09,0,0,1,1.08,2.43v4.21a4.24,4.24,0,0,0,.41,2v.15Zm-1.86-1.93a1.63,1.63,0,0,0,.92-.24A1.45,1.45,0,0,0,202,323v-1.52h-.86c-1,0-1.55.46-1.55,1.39a.87.87,0,0,0,.28.65A1,1,0,0,0,200.54,323.78Z"/><path class="cls-9" d="M211.66,313.75a1.3,1.3,0,0,1,.46-1,1.92,1.92,0,0,1,2.37,0,1.39,1.39,0,0,1,0,2.07,1.92,1.92,0,0,1-2.37,0A1.3,1.3,0,0,1,211.66,313.75Zm3.15,12h-3v-9.5h3Z"/><path class="cls-9" d="M221.91,323a.68.68,0,0,0-.39-.6A6,6,0,0,0,220,322a7,7,0,0,1-1.82-.64,3,3,0,0,1-1.1-1,2.31,2.31,0,0,1-.38-1.3,2.62,2.62,0,0,1,1.08-2.16,4.44,4.44,0,0,1,2.83-.85,4.92,4.92,0,0,1,3,.85,2.68,2.68,0,0,1,1.15,2.24h-3c0-.76-.4-1.14-1.21-1.14a1.2,1.2,0,0,0-.78.26.81.81,0,0,0-.32.65.74.74,0,0,0,.39.64,3.66,3.66,0,0,0,1.23.4,10.36,10.36,0,0,1,1.49.38,2.71,2.71,0,0,1,2.15,2.64,2.49,2.49,0,0,1-1.16,2.12,5,5,0,0,1-3,.82,5.24,5.24,0,0,1-2.18-.44,3.58,3.58,0,0,1-1.49-1.2,2.68,2.68,0,0,1-.54-1.59h2.77a1.17,1.17,0,0,0,.44,1,1.81,1.81,0,0,0,1.08.3,1.39,1.39,0,0,0,.91-.25A.77.77,0,0,0,221.91,323Z"/><path class="cls-9" d="M234,316.21l.1,1.11a3.23,3.23,0,0,1,2.72-1.29,2.71,2.71,0,0,1,2.21.89,4.17,4.17,0,0,1,.76,2.67v6.12h-3v-6a1.58,1.58,0,0,0-.29-1.06,1.35,1.35,0,0,0-1.05-.33,1.4,1.4,0,0,0-1.29.68v6.71h-3v-9.5Z"/><path class="cls-9" d="M241.32,320.87a5.57,5.57,0,0,1,.56-2.53,4,4,0,0,1,1.59-1.71,4.76,4.76,0,0,1,2.43-.6,4.38,4.38,0,0,1,3.37,1.32,5.07,5.07,0,0,1,1.23,3.6v.11a4.88,4.88,0,0,1-1.24,3.52,4.37,4.37,0,0,1-3.34,1.31,4.45,4.45,0,0,1-3.26-1.22,4.78,4.78,0,0,1-1.33-3.3Zm3,.19a3.51,3.51,0,0,0,.41,1.93,1.36,1.36,0,0,0,1.22.61q1.58,0,1.62-2.43v-.3c0-1.7-.55-2.55-1.64-2.55s-1.52.73-1.6,2.2Z"/><path class="cls-9" d="M255.56,313.84v2.37h1.56v2.05h-1.56v4.35a1.11,1.11,0,0,0,.19.75,1,1,0,0,0,.76.21,5,5,0,0,0,.74-.05v2.11a5.45,5.45,0,0,1-1.67.26,3.07,3.07,0,0,1-2.25-.72,2.94,2.94,0,0,1-.73-2.19v-4.72h-1.22v-2.05h1.22v-2.37Z"/><path class="cls-9" d="M269.13,318.89l-1-.07c-.93,0-1.53.29-1.79.87v6h-3v-9.5h2.78l.09,1.22a2.3,2.3,0,0,1,2.09-1.4,2.86,2.86,0,0,1,.82.11Z"/><path class="cls-9" d="M274.93,325.89a4.91,4.91,0,0,1-3.54-1.31,4.5,4.5,0,0,1-1.35-3.39v-.25a5.82,5.82,0,0,1,.54-2.57,4,4,0,0,1,1.58-1.73,4.73,4.73,0,0,1,2.46-.61,4.11,4.11,0,0,1,3.16,1.24,4.87,4.87,0,0,1,1.16,3.47v1.15h-5.89a2.19,2.19,0,0,0,.7,1.26,2.09,2.09,0,0,0,1.39.45,2.63,2.63,0,0,0,2.19-1l1.36,1.6a3.84,3.84,0,0,1-1.57,1.22A5.36,5.36,0,0,1,274.93,325.89Zm-.33-7.57c-.87,0-1.38.57-1.55,1.72h3v-.23a1.47,1.47,0,0,0-.36-1.1A1.43,1.43,0,0,0,274.6,318.32Z"/><path class="cls-9" d="M285.79,325.71a3.35,3.35,0,0,1-.28-.85,2.74,2.74,0,0,1-2.28,1,3.39,3.39,0,0,1-2.29-.81,2.83,2.83,0,0,1,.2-4.38,5.83,5.83,0,0,1,3.33-.79h.91v-.51c0-.87-.38-1.31-1.13-1.31a.92.92,0,0,0-1.06,1h-3a2.65,2.65,0,0,1,1.17-2.24,5,5,0,0,1,3-.86,4.32,4.32,0,0,1,2.87.89,3.09,3.09,0,0,1,1.08,2.43v4.21a4.38,4.38,0,0,0,.4,2v.15Zm-1.85-1.93a1.66,1.66,0,0,0,.92-.24,1.54,1.54,0,0,0,.52-.53v-1.52h-.86c-1,0-1.55.46-1.55,1.39a.86.86,0,0,0,.27.65A1,1,0,0,0,283.94,323.78Z"/><path class="cls-9" d="M289.92,320.89a5.75,5.75,0,0,1,1-3.56,3.19,3.19,0,0,1,2.72-1.3,2.71,2.71,0,0,1,2.14,1v-4.81h3v13.49h-2.66l-.15-1a2.8,2.8,0,0,1-2.32,1.2,3.21,3.21,0,0,1-2.69-1.3A6,6,0,0,1,289.92,320.89Zm3,.18c0,1.69.49,2.53,1.48,2.53a1.45,1.45,0,0,0,1.4-.82v-3.62a1.41,1.41,0,0,0-1.38-.84c-.92,0-1.41.73-1.49,2.21Z"/><path class="cls-9" d="M304.52,321.57l1.58-5.36h3.18L305.4,327.3l-.17.41a2.93,2.93,0,0,1-2.91,1.84,4.84,4.84,0,0,1-1.22-.17v-2.11h.38a2,2,0,0,0,.95-.18,1.08,1.08,0,0,0,.49-.65l.24-.63-3.3-9.6H303Z"/></g></g></svg>