<svg xmlns="http://www.w3.org/2000/svg" viewBox="0 0 23.04 27.23"><defs><style>.cls-1{fill:#04004f;}</style></defs><title>Asset 1Cart</title><g id="Layer_2" data-name="Layer 2"><g id="Layer_1-2" data-name="Layer 1"><path class="cls-1" d="M21.28,8.84H19.83V8.66A8.46,8.46,0,0,0,11.59,0,8.46,8.46,0,0,0,3.36,8.66v.18H1.91a.85.85,0,0,0-.85.85L0,27l23,.27h0L22.13,9.69A.85.85,0,0,0,21.28,8.84ZM4.36,8.66A7.46,7.46,0,0,1,11.59,1a7.46,7.46,0,0,1,7.24,7.66v.18H4.36Zm0,3.84a1.14,1.14,0,1,1,1.14-1.14A1.14,1.14,0,0,1,4.41,12.5Zm14.64,0a1.14,1.14,0,1,1,1.14-1.14A1.14,1.14,0,0,1,19.05,12.5Z"/></g></g></svg>