<svg xmlns="http://www.w3.org/2000/svg" viewBox="0 0 59.93 57.52"><defs><style>.cls-1{fill:#4d4d4d;}</style></defs><title>Asset 25tym</title><g id="Layer_2" data-name="Layer 2"><g id="Layer_2-2" data-name="Layer 2"><path class="cls-1" d="M59,10.62a3.09,3.09,0,0,0-2.12-.78H12.83l-.92-8.07A2,2,0,0,0,9.92,0H2.11A2.07,2.07,0,0,0,0,1.66,2,2,0,0,0,2,4H7.61a.58.58,0,0,1,.58.52l3.87,33.94a3.91,3.91,0,0,0,3.88,3.46H49.72a4.47,4.47,0,0,0,4.35-3.46l5.79-25.09A2.9,2.9,0,0,0,59,10.62ZM50.17,37.56a.46.46,0,0,1-.45.36H16L13.28,13.84H55.65Z"/><path class="cls-1" d="M20,45.36a6.08,6.08,0,1,0,6.08,6.08A6.09,6.09,0,0,0,20,45.36Zm0,8.16a2.08,2.08,0,1,1,2.08-2.08A2.08,2.08,0,0,1,20,53.52Z"/><path class="cls-1" d="M44,45.36a6.08,6.08,0,1,0,6.08,6.08A6.09,6.09,0,0,0,44,45.36Zm0,8.16a2.08,2.08,0,1,1,2.08-2.08A2.08,2.08,0,0,1,44,53.52Z"/></g></g></svg>