<svg xmlns="http://www.w3.org/2000/svg" viewBox="0 0 61.78 62.68"><defs><style>.cls-1{fill:#ff8001;}</style></defs><title>Asset 27tym</title><g id="Layer_2" data-name="Layer 2"><g id="Layer_2-2" data-name="Layer 2"><path d="M10.89,46.35A7.09,7.09,0,0,0,18,53.45H48.19V23.19a2,2,0,0,0-2-2h0a2,2,0,0,0-2,2V49.45H18a3.09,3.09,0,0,1-3.09-3.1V21.11H4V9.58L18,8.42A11.83,11.83,0,0,0,29.46,17.9h.19A11.81,11.81,0,0,0,41.07,8.42l5.68.47A2,2,0,0,0,48.9,7.06h0A2,2,0,0,0,47.07,4.9l-7.28-.6h-.48a2,2,0,0,0-2,1.94h0a7.83,7.83,0,0,1-7.69,7.66h-.13a7.84,7.84,0,0,1-7.72-7.66h0a2,2,0,0,0-2-1.95h0L1.64,5.76A1.79,1.79,0,0,0,0,7.54V23.32a1.79,1.79,0,0,0,1.79,1.79h9.1Z"/><rect x="57.78" y="7.74" width="4" height="13.28" rx="2"/><path class="cls-1" d="M52.92,53.61h0a2,2,0,0,0,2-2V4.42a.27.27,0,0,1,.28-.28h2a.24.24,0,0,0,.16-.42L53.42.16a.64.64,0,0,0-.84,0l-4,3.56a.24.24,0,0,0,.16.42h2a.28.28,0,0,1,.28.28V51.61A2,2,0,0,0,52.92,53.61Z"/><path class="cls-1" d="M8.07,55.53H49.3a2,2,0,0,1,2,2h0a2,2,0,0,1-2,2H8.07a.27.27,0,0,0-.27.27v2.33a.56.56,0,0,1-1,.39L1.54,57.2a.52.52,0,0,1,.06-.8l5.31-3.95a.56.56,0,0,1,.89.45v2.36A.27.27,0,0,0,8.07,55.53Z"/></g></g></svg>