<svg xmlns="http://www.w3.org/2000/svg" viewBox="0 0 396.85 502.3"><defs><style>.cls-1{fill:#663636;}</style></defs><title>Asset 1RUMPLES</title><g id="Layer_2" data-name="Layer 2"><g id="Layer_1-2" data-name="Layer 1"><path class="cls-1" d="M234.63,361.07c35.46-7.45,66.41-23.56,92-49.27,37.55-37.79,55.5-83.62,53.93-136.89-.73-24.42-6.6-47.72-17.27-70.51-1.65,4.88-2.9,9-5.43,12.6C347,132.15,332.22,137.91,314,135.59c-17.82-2.26-31.29-13.71-35.05-29.86-4.5-19.33,2.17-37.63,17.5-47.29,3-1.88,5-3.9,4.29-7.54s-3.53-4.68-6.64-5.24c-11.09-2-22.23-2.37-33.2.49-27.63,7.21-49,23.24-64.6,47-6.35,9.68-10.81,20.18-10.82,32q-.14,116.58-.12,233.18c0,2.49.52,3.37,3.24,3.33,12.34-.16,24.68-.07,37-.09A43.33,43.33,0,0,0,234.63,361.07Z"/><path class="cls-1" d="M107.53,51.83c-11.15.22-22.31.17-33.46,0a7.65,7.65,0,0,0-6.14,2.65C28.42,96.2,10.84,145.69,17.05,202.79c5.49,50.42,29.16,91.35,68.66,123.06a144.69,144.69,0,0,0,26,16.88v-3.45q0-59.49,0-119,0-82.14.1-164.26C111.86,52.48,110.9,51.76,107.53,51.83Z"/><path class="cls-1" d="M179.05,38.5c6.39,0,6.39,0,6.39,6.4V87.64c20.94-32.94,50.68-51.15,88.64-56.36a217,217,0,0,1,26.6.36c-1.35-1.31-1.87-2-2.86-2A176.85,176.85,0,0,0,208.51.3C165-2.08,125.6,9.78,90.25,35.23c-1.17.84-2.51,1.56-3.31,3.27Z"/><path class="cls-1" d="M300.89,467a19.53,19.53,0,0,0-2.76,0c-3.17.5-4.25-.6-4.19-4,.21-12.21.08-24.42.08-36.62,0-12.6-.07-25.2.06-37.8,0-2.44-.63-3.15-3.05-3-3.93.21-7.88-.09-11.8.12-1.45.07-4.07-1.3-4.17,1-.06,1.53,2.68.88,4,.73,3.42-.39,4.42.66,4.39,4.24-.18,22.57-.09,45.15-.09,67.72,0,2.23.69,4.88-.27,6.59-1.28,2.3-4.29.5-6.5,1a1.68,1.68,0,0,1-.39,0c-.67,0-1.35,0-1.35.95s.71,1,1.36,1q12.39,0,24.79,0c.65,0,1.39,0,1.45-.88C302.57,466.92,301.66,467,300.89,467Z"/><path class="cls-1" d="M203.19,467.07a11,11,0,0,0-2.36,0c-2.68.39-3.71-.55-3.55-3.4.24-4.18.07-8.39.07-12.59,0-6.82.11-13.65,0-20.47-.13-5.94-2.48-9.72-6.92-10.65-6.92-1.44-13.58-.95-19,4.46-2,.9-2.58,3.17-4.21,4.49-2.87-8.11-6.17-10.18-14.35-9.52-6.81.54-11.92,3.91-16.37,9.89,0-2.73.09-4.53,0-6.32-.06-.88.69-2.43-1-2.46-5.5-.1-11,0-16.53,0a.82.82,0,0,0-.89,1c.06.65.54.81,1.09.83a12.32,12.32,0,0,0,2.35,0c3.54-.58,4.68.72,4.59,4.41-.25,11-.08,22.05-.1,33.08,0,2.21.58,4.86-.42,6.53s-3.86.43-5.88.71c-.74.1-1.71-.08-1.59,1.11.09.85.88.81,1.51.82l5.9,0c5.51,0,11,0,16.53,0,.8,0,2.08.5,2.22-.85.16-1.52-1.2-.94-2-1.05a6.78,6.78,0,0,0-2,0c-3.15.54-4-.78-3.9-3.86.21-8.27.16-16.54,0-24.81-.09-6.44,3-11,8.16-14.3,6.41-4.1,11.48-1.37,11.56,6.21.12,10.37.05,20.74.06,31.11,0,5.36,0,5.33-5.51,5.66-.88.05-2.47-.58-2.32,1.11.1,1.16,1.46.78,2.3.79,7,0,13.91.06,20.86,0,1.12,0,3.21.85,3.19-1s-2.09-.65-3.23-.93a1.71,1.71,0,0,0-.78,0c-3.2.61-3.93-.84-3.84-3.86.21-7.08.35-14.19,0-21.26-.33-6.41,1.3-11.87,5.68-16.53A34.92,34.92,0,0,1,177,423c5.38-2,9.45.35,9.57,6,.26,11.93.11,23.87.18,35.81,0,1.72-.63,2.38-2.33,2.21a18.3,18.3,0,0,0-3.14,0c-.82.06-2.11-.45-2.23.85s1.2,1.08,2,1.08q11,0,22,0c.81,0,2.14.4,2.19-.91S204,467.12,203.19,467.07Z"/><path class="cls-1" d="M386.16,438.87c-4.05-1.47-8.31-2.33-12.48-3.45-3.15-.85-6.14-1.89-6.44-5.82-.25-3.18,2.67-6.93,6.26-8.2,7.39-2.61,14.52,1.12,17.06,8.85.31.95-.27,2.5,1.49,2.72V418.19c-2.44,3.69-4.54,3.4-7.51,1.72-3.51-2-7.63-1.57-11.49-.39a15.18,15.18,0,0,0-10.6,15.31c.22,6.55,4.11,10.8,11.41,12.52,3.95.94,8,1.65,11.73,3.19,6.46,2.64,8.05,6.07,5.89,12.69-4.66,5.26-10.45,6.49-17.06,4.78s-9.66-7.14-12.49-12.83v15c.73-.54,1.15-.7,1.31-1,1.44-2.66,2.58-3.57,5.73-1.27,6.34,4.65,19.49,3.69,23.33-2.38C400.39,456.73,397.29,442.91,386.16,438.87Z"/><path class="cls-1" d="M107.14,467.06a4.09,4.09,0,0,0-1.56,0c-3.43.53-4.68-.55-4.6-4.35.27-13,0-25.93.18-38.9,0-2.71-.63-3.67-3.43-3.46-3.51.25-7.07-.09-10.59.13-1.73.11-4.78-1.16-4.9,1-.09,1.72,3.12.86,4.73.77,3-.19,3.86.88,3.65,3.79-.25,3.65.06,7.33-.09,11-.27,6.77.88,13.61-.88,20.31-1.74,2.62-3.55,5.17-6.22,7-3.47,2.34-7.3,3.51-11.13,1.63-3.53-1.74-2.92-5.57-3-8.78q-.1-16.9,0-33.83c0-2-.32-3.06-2.71-3-4.71.19-9.43,0-14.15.1-.78,0-2.08-.6-2.22.79s1.17,1,2,1.06c6.44.46,6.44.46,6.44,6.77,0,6.69,0,13.38,0,20.07,0,3.8,0,7.61.33,11.39.42,4.77,2.91,8.3,7.73,9.24,8.41,1.64,15.86-.27,21.64-7.06.62-.73.77-2,2.16-1.94a34.68,34.68,0,0,1-.06,5.1c-.39,2.7.73,3.27,3.22,3.16,4.44-.2,8.9,0,13.35-.11.87,0,2.46.7,2.5-.91S108,467.27,107.14,467.06Z"/><path class="cls-1" d="M41.21,421.24a14.68,14.68,0,0,0-15.23.12c-2.94.86-4.84,3-6.49,5.39a2.82,2.82,0,0,1-.4-2.62c.55-3.23-.93-4-3.88-3.78-3.79.24-7.6,0-11.39.12-1.31,0-3.72-.76-3.7.73,0,2.21,2.54,1.13,3.77,1,3.79-.35,4.81,1,4.71,4.79-.27,11.13-.1,22.28-.1,33.42,0,6.3,0,6.27-6.15,6.63-.87.05-2.5-.6-2.34,1.06.14,1.41,1.69.8,2.62.81,6.68.07,13.36.17,20,0,1.62,0,4.65,1.08,4.68-.91s-3-1-4.56-.88c-3.3.29-3.85-1.08-3.8-4,.18-9.31.12-18.61,0-27.92a14.14,14.14,0,0,1,1.41-6.82,27.16,27.16,0,0,1,7.11-6.23,31.55,31.55,0,0,1,4.58-.86c1.06-.06,2.56-.57,3.18.71s-.92,1.67-1.51,2.43c-1.94,2.47-2.11,5.16-.3,7.57s4.58,3.25,7.68,2a5.69,5.69,0,0,0,3.7-5.47C45,425.43,44,422.77,41.21,421.24Z"/><path class="cls-1" d="M337,467.8c-.89.19-1.79.39-2.68.56-8.66,1.69-13.88-1.71-15-10.39-.62-4.64-.14-9.42-.44-14.12-.17-2.82.81-3.51,3.52-3.45,8.25.17,16.51.05,24.76.07,2.16,0,4.06-.06,3.44-3.13-3.74-18.46-22.14-23.17-33.52-14.47a28.09,28.09,0,0,0-10.27,28.66c3.8,15.1,18.94,23.26,32,17.26,6.7-2.28,12.58-9.7,12.09-16.56C347.41,459.33,343.62,465,337,467.8Zm-12.14-46.44c4.4-1.57,9.13-.69,11.68,2.18,2.3,2.59,3.48,10.53,2.1,13.55-.62,1.34-1.66,1.48-2.9,1.46-2.5,0-5,0-7.49,0h0a5.51,5.51,0,0,1-2,0c-2.39-.92-6.36,2.34-7.25-1.79C317.48,429.46,320.3,423,324.83,421.36Z"/><path class="cls-1" d="M253.77,421.53c-7.89-4.81-15.22-3.65-21.68,2.87-.49.5-.78,1.53-1.84.91-.14-4.61-.13-4.84-1.53-4.86-5.25-.1-10.5,0-15.75,0-.68,0-1.34.15-1.26,1.05,0,.62.54.8,1.09.81a13.3,13.3,0,0,0,2.36,0c3.52-.56,4.6.69,4.56,4.4-.19,22.46-.1,44.91-.09,67.36,0,5.76,0,5.75-5.78,6.2-.85.06-2.16-.28-2.15,1s1.31,1,2.18,1c7.35,0,14.7,0,22.05,0,.9,0,2.16.2,2.23-1s-1.21-1.05-2.09-1.07a25.29,25.29,0,0,0-3.14,0c-1.93.18-2.83-.36-2.81-2.56.09-10.86,0-21.73,0-33.27,8.37,6.93,15.24,8.15,22.81,3.9,9-5.08,14-12.93,14.16-23.39S262.44,426.81,253.77,421.53Zm-.23,36.92c-1.09,7.33-4.39,10.35-10.64,10-6.58-.35-12.55-6-12.7-12.2-.1-3.8,0-7.61,0-11.41,0-3.28,0-6.56,0-9.84a14.63,14.63,0,0,1,12.15-14.28c4.49-.75,8,1.14,9.83,5.35A27,27,0,0,1,254,434.9,103,103,0,0,1,253.54,458.45Z"/></g></g></svg>