<svg xmlns="http://www.w3.org/2000/svg" viewBox="0 0 262.89 278.64"><defs><style>.cls-1{fill:#eee6d4;}.cls-2{fill:#bbc8dd;}.cls-3{fill:#6f7174;}.cls-4{fill:#4d4e50;}.cls-5{fill:#303043;}.cls-6{fill:#727272;}.cls-7{fill:#595981;}.cls-8{fill:#df9b30;}.cls-9{fill:#a36233;}.cls-10{fill:#fff;}</style></defs><title>Asset 34505page</title><g id="Layer_2" data-name="Layer 2"><g id="Layer_2-2" data-name="Layer 2"><circle class="cls-1" cx="131.44" cy="131.44" r="120.38" transform="translate(-54.45 131.44) rotate(-45)"/><path class="cls-1" d="M131.44,262.89A131.44,131.44,0,0,1,38.5,38.5,131.44,131.44,0,1,1,224.39,224.39,130.63,130.63,0,0,1,131.44,262.89Zm0-260.8c-71.32,0-129.35,58-129.35,129.35s58,129.36,129.35,129.36A129.51,129.51,0,0,0,260.8,131.44C260.8,60.12,202.77,2.09,131.44,2.09Z"/><rect class="cls-2" x="109.73" y="272.04" width="100.56" height="6.6" rx="3.18"/><rect class="cls-3" x="156.96" y="201.95" width="9.65" height="19.81"/><path class="cls-4" d="M166.61,202v7l-9.65-.42V202Z"/><rect class="cls-5" x="127" y="186.72" width="69.58" height="16.76" rx="8.31"/><path class="cls-5" d="M128,259.85H124v-9a6.55,6.55,0,0,1,1.81-5c1.34-1.28,3.12-1.88,5.56-2.26a10.27,10.27,0,0,1,3,0h23.15v2.54H134.2a8.13,8.13,0,0,0-5.3,2,3.73,3.73,0,0,0-.89,2.71Z"/><rect class="cls-5" x="143.25" y="246.14" width="4.57" height="23.87"/><path class="cls-6" d="M147.65,268.44a8.11,8.11,0,0,1-.05.86,6.89,6.89,0,0,1-13.67,0,6.11,6.11,0,0,1-.06-.86,6.89,6.89,0,0,1,13.78,0Z"/><path class="cls-5" d="M147.65,268.54c0,.29,0,.45-.05,1H133.93c0-.51-.06-.67-.06-1a6.89,6.89,0,0,1,13.78,0Z"/><rect class="cls-5" x="123.95" y="248.68" width="4.06" height="21.33"/><path class="cls-6" d="M128.29,268.44a8.11,8.11,0,0,1,0,.86,6.89,6.89,0,0,1-13.67,0,6.11,6.11,0,0,1-.06-.86,6.89,6.89,0,1,1,13.78,0Z"/><path class="cls-5" d="M128.29,268.54c0,.29,0,.45,0,1H114.57c0-.51-.06-.67-.06-1a6.89,6.89,0,1,1,13.78,0Z"/><rect class="cls-5" x="176.26" y="246.14" width="4.57" height="23.87"/><path class="cls-6" d="M180.93,268.44a8.11,8.11,0,0,1-.05.86,6.89,6.89,0,0,1-13.68,0,8.11,8.11,0,0,1,0-.86,6.89,6.89,0,0,1,13.78,0Z"/><path class="cls-5" d="M180.93,268.54c0,.29,0,.45-.05,1H167.2c0-.51,0-.67,0-1a6.89,6.89,0,1,1,13.78,0Z"/><path class="cls-5" d="M194.54,259.85h4.57v-9a6.63,6.63,0,0,0-1.92-5c-1.34-1.28-3.18-1.88-5.62-2.26a10.74,10.74,0,0,0-3.06,0H165.59v2.54h23a7.78,7.78,0,0,1,5.16,2,3.62,3.62,0,0,1,.75,2.71Z"/><rect class="cls-5" x="194.54" y="248.68" width="4.57" height="21.33"/><path class="cls-6" d="M185,268.44a8.11,8.11,0,0,0,.05.86,6.89,6.89,0,0,0,13.67,0,6.11,6.11,0,0,0,.06-.86,6.89,6.89,0,0,0-13.78,0Z"/><path class="cls-5" d="M185,268.54c0,.29,0,.45.05,1h13.67c0-.51.06-.67.06-1a6.89,6.89,0,1,0-13.78,0Z"/><rect class="cls-5" x="154.93" y="218.2" width="13.71" height="30.47"/><rect class="cls-7" x="157.47" y="218.2" width="4.06" height="30.47"/><rect class="cls-5" x="151.88" y="199.41" width="20.31" height="6.6"/><path class="cls-5" d="M151.59,214.65a1.42,1.42,0,0,1-1.37,1.52H126.63a1.42,1.42,0,0,1-1.36-1.52h0a1.42,1.42,0,0,1,1.36-1.52h23.59a1.42,1.42,0,0,1,1.37,1.52Z"/><path class="cls-5" d="M148.9,215.68a1.05,1.05,0,0,1-.81-1.74l10.44-12.25a1.06,1.06,0,0,1,1.61,1.37l-10.43,12.25A1,1,0,0,1,148.9,215.68Z"/><path class="cls-5" d="M86.74,132.8a1.24,1.24,0,0,1-.53-.12,1.2,1.2,0,0,1-.56-1.61l15.88-33.13a1.21,1.21,0,0,1,2.18,1L87.83,132.11A1.2,1.2,0,0,1,86.74,132.8Z"/><path class="cls-8" d="M226.43,179.41c-2.43-2.56-5.94-3.47-10.81-4.11A242.07,242.07,0,0,0,190.14,174c-7.09-.1-23.73-1-26-10.15-.75-3.05-.44-6.79-.62-9.93q-.24-4.31-.43-8.59c-.23-5.27-.46-10.54-.76-15.81-.55-9.64-1-19.29-1.58-28.94-.1-1.9-.31-3.82-.31-5.73,0-5.5-4.21-12.65-11.42-13.62-13.61-1.81-42.65-5-45.37,0,0,0,6.56,82.48,8.24,89S136.34,182.46,139,183.6c1.73.76,11.43,1.05,19.15,1,4.57,5.65,7,11.44,16.79,12.32,2.26.2,42.91-2.65,44.37-2.56a8.84,8.84,0,0,0,7.15-15Z"/><path class="cls-9" d="M137.9,195.8c-12.33-1.11-21.94-4.85-28.63-11.14s-7.89-12.8-8.07-14a6.84,6.84,0,0,1-.09-.91l-3.6-81.46a9.08,9.08,0,1,1,18.14-.8q.5,11.25,1,22.5c.57,13.43,1,26.89,1.79,40.31.17,2.85.27,5.68.31,8.54.06,4.6-.33,10.57,4,13.46A28.16,28.16,0,0,0,134,177a71,71,0,0,0,11.17,1,237.84,237.84,0,0,1,25.48,1.29c4.87.64,8.38,1.57,10.8,4.19a9.3,9.3,0,0,1,2.47,6.88c-.33,5-3.51,7.36-8.51,7a224.78,224.78,0,0,1-30.44-1.24C142.51,195.88,140.15,196,137.9,195.8Z"/><path class="cls-9" d="M155.67,103.52c-5.22-.47-10.53-.21-15.77-.21H132a74,74,0,0,0-7.88.12.36.36,0,0,0,0,.72,74,74,0,0,0,7.88.12h7.88c5.24,0,10.55.26,15.77-.21A.27.27,0,0,0,155.67,103.52Z"/><path class="cls-9" d="M155.67,126.81c-5.22-.47-10.53-.21-15.77-.21H132a74,74,0,0,0-7.88.11.36.36,0,0,0,0,.72,71.41,71.41,0,0,0,7.88.12h7.88c5.24,0,10.55.27,15.77-.2A.28.28,0,0,0,155.67,126.81Z"/><path class="cls-9" d="M156.3,140.64c-5.21-.59-10.62-.19-15.86-.18h-7.95a64.83,64.83,0,0,0-8.48.22.22.22,0,0,0,0,.43,59.63,59.63,0,0,0,7.91.22h15.9a77.38,77.38,0,0,0,8.48-.18A.26.26,0,0,0,156.3,140.64Z"/><path class="cls-9" d="M156.3,114.62c-5.21-.58-10.62-.18-15.86-.18h-7.95a64.83,64.83,0,0,0-8.48.21.22.22,0,0,0,0,.44,59.63,59.63,0,0,0,7.91.22h15.9a77.38,77.38,0,0,0,8.48-.19A.26.26,0,0,0,156.3,114.62Z"/><path class="cls-5" d="M146.18,118.74a1.21,1.21,0,0,1-1.15-.84c-.07-.2-6.39-19.58-10.41-29.41-3.73-9.13-13.3-9.23-13.4-9.23a1.21,1.21,0,1,1,0-2.42c.11,0,11.3.12,15.64,10.73,4,9.91,10.4,29.38,10.47,29.58a1.22,1.22,0,0,1-.78,1.53A1.19,1.19,0,0,1,146.18,118.74Z"/><rect class="cls-10" x="80.8" y="122.24" width="73.21" height="20.27" transform="translate(-28.88 32.84) rotate(-14.2)"/><path class="cls-8" d="M94.88,139.77l-4.53,1.14.86,3.4,5.3-1.34.39,1.53-7.22,1.83-2.79-11,7.16-1.81.39,1.54-5.24,1.33L90,139.4l4.53-1.15Z"/><path class="cls-8" d="M101.32,136.45a4.13,4.13,0,0,0-.77.13,1.74,1.74,0,0,0-1.46,1.4l1.42,5.61-1.84.47-2.08-8.21,1.76-.45.28.91a2.19,2.19,0,0,1,2.26-1.6Z"/><path class="cls-8" d="M107.16,135a4.17,4.17,0,0,0-.76.13,1.73,1.73,0,0,0-1.46,1.4l1.42,5.61-1.85.47-2.07-8.21,1.76-.44.28.9a2.15,2.15,0,0,1,1.58-1.54,2.05,2.05,0,0,1,.67-.06Z"/><path class="cls-8" d="M108.69,137.07a5,5,0,0,1-.07-2.29,3.7,3.7,0,0,1,1-1.83,3.85,3.85,0,0,1,1.85-1,3.7,3.7,0,0,1,3,.39,4.33,4.33,0,0,1,1.83,2.55l.12.43a5,5,0,0,1,.08,2.29,3.61,3.61,0,0,1-1,1.82,4,4,0,0,1-1.87,1,3.66,3.66,0,0,1-3.07-.46,4.57,4.57,0,0,1-1.83-2.82Zm1.88-.3a3.47,3.47,0,0,0,1,1.85,1.88,1.88,0,0,0,2.91-.75,3.84,3.84,0,0,0,0-2.26,3.39,3.39,0,0,0-1-1.84,1.78,1.78,0,0,0-1.63-.36,1.75,1.75,0,0,0-1.26,1.08A3.73,3.73,0,0,0,110.57,136.77Z"/><path class="cls-8" d="M122,131.22a4.27,4.27,0,0,0-.77.13,1.74,1.74,0,0,0-1.46,1.4l1.42,5.61-1.84.47-2.08-8.21,1.76-.44.28.91a2.14,2.14,0,0,1,1.58-1.54,1.67,1.67,0,0,1,.68-.06Z"/><path class="cls-8" d="M127.82,129.74a5.39,5.39,0,0,0-.77.13,1.74,1.74,0,0,0-1.46,1.4l1.42,5.61-1.84.47-2.08-8.2,1.76-.45.28.91a2.13,2.13,0,0,1,1.58-1.54,1.67,1.67,0,0,1,.68-.06Z"/><path class="cls-8" d="M133.67,128.26a5.16,5.16,0,0,0-.77.13,1.76,1.76,0,0,0-1.46,1.4l1.42,5.61-1.84.47-2.08-8.2,1.76-.45.28.91a2.13,2.13,0,0,1,1.58-1.54,1.67,1.67,0,0,1,.68-.06Z"/><path class="cls-8" d="M139.52,126.78a5.16,5.16,0,0,0-.77.13,1.74,1.74,0,0,0-1.46,1.4l1.42,5.62-1.84.46-2.08-8.2,1.76-.45.28.91a2.13,2.13,0,0,1,1.58-1.54,1.63,1.63,0,0,1,.67-.06Z"/><path class="cls-8" d="M143.85,129.17l-1.59.4-2.14-7.75,1.94-.49ZM142.64,132a1,1,0,0,1,.1-.79,1.07,1.07,0,0,1,.69-.47,1,1,0,0,1,1.3.73,1,1,0,0,1-.1.76,1.05,1.05,0,0,1-.7.48,1.08,1.08,0,0,1-.84-.09A1,1,0,0,1,142.64,132Z"/><path class="cls-10" d="M39.55,131s17.84-2.55,19.54-20.39c0,0,2.55,19.11,18.69,18.69-.85,1.27-17.42,2.12-18.27,18.69C59.51,148,59.94,129.7,39.55,131Z"/><path class="cls-10" d="M64.19,161.26s8.72-1.25,9.55-10c0,0,1.24,9.34,9.13,9.14-.42.62-8.51,1-8.93,9.13C73.94,169.56,74.15,160.63,64.19,161.26Z"/><path class="cls-10" d="M32.38,171s6.69-.95,7.33-7.64c0,0,.95,7.17,7,7-.32.47-6.53.79-6.85,7C39.87,177.34,40,170.49,32.38,171Z"/><path class="cls-9" d="M63.37,69.2l2-2.71L70.15,70l-2,2.71L73.78,77l-4.59,6.17-5.65-4.21-7.67,10.3-4-2.44L42.61,63.32l-.06,0,4.59-6.16Zm-8.16,11,3.57-4.79-8.19-6.11.33.85Z"/><path class="cls-9" d="M88.46,48.89q3.81,5.55,3.38,10.27a10.47,10.47,0,0,1-5,7.83q-4.57,3.14-9.16,1.82T69.36,62l-3.43-5q-3.8-5.55-3.38-10.27a10.49,10.49,0,0,1,5-7.84,10.49,10.49,0,0,1,9.13-1.81Q81.25,38.38,85,43.9ZM78.13,47.42a11.93,11.93,0,0,0-3.79-3.88,3.14,3.14,0,0,0-3.45.22,3.06,3.06,0,0,0-1.45,3,11.1,11.1,0,0,0,2,4.65l4.8,7a12,12,0,0,0,3.85,4,3.14,3.14,0,0,0,3.42-.25,3.1,3.1,0,0,0,1.44-3,11.34,11.34,0,0,0-2.18-4.87Z"/><path class="cls-9" d="M99.67,38.11l3.49-1q4.16-1.17,3-5.23a3.63,3.63,0,0,0-1.72-2.3,3.93,3.93,0,0,0-3.07-.22A4.25,4.25,0,0,0,99.06,31a2.73,2.73,0,0,0-.48,2.44l-7.4,2.09a7.88,7.88,0,0,1,.13-4.9,9.75,9.75,0,0,1,3-4.19,13.93,13.93,0,0,1,5.17-2.65q5.33-1.5,9.07.07a8.43,8.43,0,0,1,4.94,5.84,7,7,0,0,1-.16,4.25,9.3,9.3,0,0,1-2.84,4,9,9,0,0,1,4.79,1.67,7.65,7.65,0,0,1,2.76,4.24,8.6,8.6,0,0,1-1.36,7.78,14.27,14.27,0,0,1-7.93,5,14.78,14.78,0,0,1-6.17.45,9.57,9.57,0,0,1-5-2.17,8.91,8.91,0,0,1-2.75-4.43l7.44-2.1a3.48,3.48,0,0,0,1.91,2.21,4.3,4.3,0,0,0,3.22.25,4.51,4.51,0,0,0,2.81-2,3.75,3.75,0,0,0,.38-3.11,4.39,4.39,0,0,0-2.17-3.08,5.22,5.22,0,0,0-3.62-.07l-3.6,1Z"/><path class="cls-9" d="M144.84,43l-2.47,11-7.81-1.76,7.29-32.4,12.93,2.9a15.48,15.48,0,0,1,6.27,2.85,10.66,10.66,0,0,1,3.55,4.9,10.87,10.87,0,0,1,.28,6.08,9.59,9.59,0,0,1-5.1,6.81c-2.69,1.39-6,1.63-9.95.75Zm1.36-6,5.12,1.15a4.93,4.93,0,0,0,3.71-.35A4.32,4.32,0,0,0,157,34.78a5.35,5.35,0,0,0-.41-3.9,4.42,4.42,0,0,0-3-2.13l-5.21-1.18Z"/><path class="cls-9" d="M178.12,62l-9.37-5.71-4.86,4.29-7.31-4.45,27.71-22L190.71,38l-6.83,34.75-7.34-4.48Zm-4.51-10,6.1,3.72L182.65,44Z"/><path class="cls-9" d="M203.19,92.44a12.86,12.86,0,0,1-5.89-2.34,23.39,23.39,0,0,1-5.68-5.5q-3.9-5.22-3.05-10.74t6.39-10l2.29-1.74a19.84,19.84,0,0,1,7.9-3.74,12.8,12.8,0,0,1,7.48.6,14,14,0,0,1,6.06,4.79q3.72,5,3.5,9.42t-4.39,8.29l-4.62-6.18a6.29,6.29,0,0,0,2.12-3.8,5.82,5.82,0,0,0-1.38-3.82,5.23,5.23,0,0,0-4.83-2.19c-2,.14-4.3,1.16-6.85,3l-1.6,1.2c-2.66,2-4.31,3.93-5,5.84a6,6,0,0,0,1.2,5.78,6.73,6.73,0,0,0,3.9,2.89l4.13-3.09-3.33-4.45,4.4-3.3,8.13,10.87Z"/><path class="cls-9" d="M220.13,113.39l-3.64-12.06-7.59,2.3,4.29,14.24-5.89,1.77-6.61-21.9,31.79-9.6,6.63,22-5.92,1.79L228.88,97.6l-6.71,2,3.64,12Z"/></g></g></svg>