<svg xmlns="http://www.w3.org/2000/svg" viewBox="0 0 277.48 321.69"><defs><style>.cls-1{fill:#eee6d4;}.cls-2{fill:#bbc8dd;}.cls-3{fill:#6f7174;}.cls-4{fill:#4d4e50;}.cls-5{fill:#303043;}.cls-6{fill:#727272;}.cls-7{fill:#595981;}.cls-11,.cls-8{fill:#df9b30;}.cls-9{fill:#a36233;}.cls-10{fill:#fff;}.cls-11{font-size:16.91px;font-family:Roboto-Medium, Roboto;font-weight:500;}</style></defs><title>Asset 31404page</title><g id="Layer_2" data-name="Layer 2"><g id="Layer_2-2" data-name="Layer 2"><circle class="cls-1" cx="138.74" cy="138.74" r="127.06" transform="translate(-57.47 138.74) rotate(-45)"/><path class="cls-1" d="M138.74,277.48A138.73,138.73,0,0,1,40.64,40.64a138.73,138.73,0,1,1,196.2,196.2A137.84,137.84,0,0,1,138.74,277.48Zm0-275.28C63.45,2.2,2.2,63.45,2.2,138.74S63.45,275.27,138.74,275.27,275.27,214,275.27,138.74,214,2.2,138.74,2.2Z"/><rect class="cls-2" x="115.82" y="287.13" width="106.14" height="6.97" rx="3.35"/><rect class="cls-3" x="165.67" y="213.16" width="10.18" height="20.91"/><path class="cls-4" d="M175.86,213.16v7.37c-3.76-.16-7.51-.31-10.19-.44v-6.93Z"/><rect class="cls-5" x="134.04" y="197.08" width="73.44" height="17.69" rx="8.77"/><path class="cls-5" d="M135.12,274.27h-4.29v-9.51a6.9,6.9,0,0,1,1.91-5.29c1.41-1.35,3.3-2,5.87-2.39a10.78,10.78,0,0,1,3.16,0h24.44v2.68H141.65a8.54,8.54,0,0,0-5.59,2.1,3.88,3.88,0,0,0-.94,2.86Z"/><rect class="cls-5" x="151.2" y="259.8" width="4.82" height="25.19"/><path class="cls-6" d="M155.85,283.34a6.84,6.84,0,0,1-.06.91,7.27,7.27,0,0,1-14.43,0,6.84,6.84,0,0,1-.06-.91,7.28,7.28,0,0,1,14.55,0Z"/><path class="cls-5" d="M155.85,283.44c0,.31,0,.48-.06,1H141.36c0-.53-.06-.7-.06-1a7.28,7.28,0,0,1,14.55,0Z"/><rect class="cls-5" x="130.83" y="262.48" width="4.29" height="22.51"/><path class="cls-6" d="M135.41,283.34a9.08,9.08,0,0,1,0,.91,7.27,7.27,0,0,1-14.43,0,6.84,6.84,0,0,1-.06-.91,7.27,7.27,0,0,1,14.54,0Z"/><path class="cls-5" d="M135.41,283.44c0,.31,0,.48,0,1H120.93c0-.53-.06-.7-.06-1a7.27,7.27,0,0,1,14.54,0Z"/><rect class="cls-5" x="186.04" y="259.8" width="4.82" height="25.19"/><path class="cls-6" d="M191,283.34a6.84,6.84,0,0,1-.06.91,7.27,7.27,0,0,1-14.43,0,9.08,9.08,0,0,1,0-.91,7.27,7.27,0,0,1,14.54,0Z"/><path class="cls-5" d="M191,283.44c0,.31,0,.48-.06,1H176.48c0-.53,0-.7,0-1a7.27,7.27,0,0,1,14.54,0Z"/><path class="cls-5" d="M205.34,274.27h4.82v-9.51a7,7,0,0,0-2-5.29c-1.41-1.35-3.36-2-5.93-2.39a11.25,11.25,0,0,0-3.22,0h-24.2v2.68H199.1a8.24,8.24,0,0,1,5.45,2.1,3.85,3.85,0,0,1,.79,2.86Z"/><rect class="cls-5" x="205.34" y="262.48" width="4.82" height="22.51"/><path class="cls-6" d="M195.27,283.34a9.08,9.08,0,0,0,0,.91,7.27,7.27,0,0,0,14.43,0,6.84,6.84,0,0,0,.06-.91,7.27,7.27,0,0,0-14.54,0Z"/><path class="cls-5" d="M195.27,283.44c0,.31,0,.48,0,1h14.43c0-.53.06-.7.06-1a7.27,7.27,0,0,0-14.54,0Z"/><rect class="cls-5" x="163.53" y="230.31" width="14.47" height="32.16"/><rect class="cls-7" x="166.21" y="230.31" width="4.29" height="32.16"/><rect class="cls-5" x="160.31" y="210.48" width="21.44" height="6.97"/><path class="cls-5" d="M160,226.56a1.5,1.5,0,0,1-1.44,1.61h-24.9a1.5,1.5,0,0,1-1.44-1.61h0a1.5,1.5,0,0,1,1.44-1.61h24.9a1.5,1.5,0,0,1,1.44,1.61Z"/><path class="cls-5" d="M157.16,227.65a1.1,1.1,0,0,1-.72-.26,1.12,1.12,0,0,1-.13-1.58l11-12.93a1.11,1.11,0,0,1,1.57-.13,1.12,1.12,0,0,1,.13,1.58l-11,12.93A1.1,1.1,0,0,1,157.16,227.65Z"/><path class="cls-5" d="M91.55,140.17a1.33,1.33,0,0,1-.55-.12,1.28,1.28,0,0,1-.6-1.71l16.76-35a1.27,1.27,0,0,1,2.3,1.1l-16.76,35A1.28,1.28,0,0,1,91.55,140.17Z"/><path class="cls-8" d="M239,189.37c-2.56-2.71-6.26-3.67-11.4-4.34a255.67,255.67,0,0,0-26.89-1.39c-7.5-.1-25.06-1.06-27.42-10.71-.79-3.22-.46-7.17-.65-10.48-.17-3-.32-6-.46-9.07-.25-5.56-.48-11.12-.8-16.68-.58-10.18-1.08-20.36-1.66-30.54-.12-2-.34-4-.34-6.06,0-5.8-4.44-13.35-12.05-14.37-14.37-1.91-45-5.27-47.89,0,0,0,6.92,87.06,8.71,94s25.76,12.9,28.54,14.11c1.83.8,12.06,1.1,20.22,1.07,4.82,6,7.41,12.07,17.72,13,2.38.21,45.29-2.8,46.83-2.7A9.33,9.33,0,0,0,239,189.37Z"/><path class="cls-9" d="M145.55,206.66c-13-1.17-23.16-5.11-30.22-11.75s-8.32-13.51-8.52-14.83q-.06-.48-.09-1l-3.8-86a9.58,9.58,0,1,1,19.14-.84q.52,11.88,1,23.75c.61,14.18,1.05,28.38,1.89,42.54.18,3,.29,6,.33,9,.06,4.86-.35,11.16,4.23,14.21a29.71,29.71,0,0,0,11.84,5,75.38,75.38,0,0,0,11.8,1.09,252,252,0,0,1,26.89,1.36c5.14.68,8.84,1.65,11.4,4.42a9.76,9.76,0,0,1,2.6,7.26c-.34,5.28-3.7,7.77-9,7.43A241.55,241.55,0,0,1,153,207C150.42,206.75,147.93,206.88,145.55,206.66Z"/><path class="cls-9" d="M164.31,109.26c-5.51-.5-11.12-.22-16.64-.22h-8.32a79.61,79.61,0,0,0-8.32.13.38.38,0,0,0,0,.76,77,77,0,0,0,8.32.12h8.32c5.52,0,11.13.27,16.64-.22A.29.29,0,0,0,164.31,109.26Z"/><path class="cls-9" d="M164.31,133.85c-5.51-.5-11.12-.22-16.64-.22h-8.32a77,77,0,0,0-8.32.13.38.38,0,0,0,0,.75,77,77,0,0,0,8.32.13h8.32c5.52,0,11.13.28,16.64-.22A.29.29,0,0,0,164.31,133.85Z"/><path class="cls-9" d="M165,148.44c-5.51-.62-11.22-.19-16.75-.19h-8.39a66.81,66.81,0,0,0-9,.23.23.23,0,0,0,0,.46,64.65,64.65,0,0,0,8.35.23H156A83.56,83.56,0,0,0,165,149,.28.28,0,0,0,165,148.44Z"/><path class="cls-9" d="M165,121c-5.51-.61-11.22-.19-16.75-.19h-8.39a66.81,66.81,0,0,0-9,.23.23.23,0,0,0,0,.46,64.65,64.65,0,0,0,8.35.23H156a83.56,83.56,0,0,0,8.95-.2A.28.28,0,0,0,165,121Z"/><path class="cls-5" d="M154.29,125.32a1.28,1.28,0,0,1-1.22-.88c-.06-.2-6.74-20.67-11-31-3.94-9.63-14-9.74-14.14-9.74a1.28,1.28,0,1,1,0-2.56c.12,0,11.92.13,16.51,11.33,4.27,10.46,11,31,11,31.22a1.28,1.28,0,0,1-.82,1.61A1.32,1.32,0,0,1,154.29,125.32Z"/><rect class="cls-10" x="85.28" y="129.03" width="77.27" height="21.39" transform="translate(-30.48 34.66) rotate(-14.2)"/><text class="cls-11" transform="matrix(0.97, -0.25, 0.25, 0.97, 93.47, 154.75)">Errorrrr!</text><path class="cls-10" d="M41.75,138.25s18.82-2.69,20.62-21.52c0,0,2.69,20.17,19.72,19.72-.9,1.35-18.38,2.24-19.28,19.73C62.81,156.18,63.26,136.9,41.75,138.25Z"/><path class="cls-10" d="M67.75,170.2s9.2-1.31,10.08-10.51c0,0,1.31,9.86,9.64,9.64-.44.65-9,1.09-9.42,9.64C78.05,179,78.27,169.55,67.75,170.2Z"/><path class="cls-10" d="M34.18,180.46s7.06-1,7.73-8.07c0,0,1,7.57,7.4,7.4-.34.5-6.89.84-7.23,7.39C42.08,187.18,42.25,180,34.18,180.46Z"/><path class="cls-9" d="M66.89,73,69,70.18l5,3.74-2.13,2.86,6,4.44L73,87.73l-6-4.44L59,94.16l-4.26-2.58L45,66.84l-.06,0,4.85-6.5ZM58.28,84.61l3.77-5.06-8.66-6.44.36.89Z"/><path class="cls-9" d="M93.4,51.59q4,5.85,3.56,10.84t-5.24,8.26q-4.83,3.3-9.66,1.92T73.24,65.4l-3.62-5.28q-4-5.86-3.56-10.84T71.32,41q4.8-3.28,9.64-1.91t8.83,7.23ZM82.5,50a12.66,12.66,0,0,0-4-4.1,3.33,3.33,0,0,0-3.64.23,3.24,3.24,0,0,0-1.53,3.16,11.68,11.68,0,0,0,2.12,4.9l5.06,7.39a12.59,12.59,0,0,0,4.06,4.18,3.57,3.57,0,0,0,5.14-3.46,12.11,12.11,0,0,0-2.31-5.14Z"/><path class="cls-9" d="M120.73,43.36l3.43-1,1.69,6-3.43,1,2,7.16-7.82,2.2-2-7.17-13,3.67-1.81-4.64,7.4-25.54,0-.07,7.81-2.2Zm-13.89,3.91,6.07-1.71L110,35.17l-.26.93Z"/><path class="cls-9" d="M153,45.35,150.36,57l-8.24-1.86,7.73-34.19L163.5,24a16.25,16.25,0,0,1,6.61,3,11.19,11.19,0,0,1,3.74,5.16,11.46,11.46,0,0,1,.29,6.43,10.12,10.12,0,0,1-5.39,7.18q-4.26,2.19-10.51.77ZM154.42,39l5.41,1.22a5.22,5.22,0,0,0,3.92-.37,4.56,4.56,0,0,0,2-3.1,5.62,5.62,0,0,0-.43-4.12,4.67,4.67,0,0,0-3.19-2.25l-5.5-1.24Z"/><path class="cls-9" d="M188.11,65.47l-9.87-6L173.09,64l-7.7-4.72,29.27-23.18,6.78,4.15-7.26,36.66-7.74-4.74Zm-4.74-10.56,6.43,3.94,3.12-12.35Z"/><path class="cls-9" d="M214.53,97.69a13.73,13.73,0,0,1-6.22-2.48,24.67,24.67,0,0,1-6-5.81q-4.12-5.52-3.2-11.34t6.76-10.55l2.42-1.83a20.86,20.86,0,0,1,8.34-3.94,13.62,13.62,0,0,1,7.9.64,14.74,14.74,0,0,1,6.38,5.08q3.91,5.25,3.68,9.94T230,86.14l-4.87-6.52a6.7,6.7,0,0,0,2.24-4,6.06,6.06,0,0,0-1.45-4,5.5,5.5,0,0,0-5.1-2.33q-3.19.23-7.22,3.2l-1.7,1.27q-4.2,3.14-5.25,6.15a6.34,6.34,0,0,0,1.27,6.1A7,7,0,0,0,212,89l4.36-3.25-3.51-4.71,4.65-3.47,8.57,11.48Z"/><path class="cls-9" d="M232.39,119.87l-3.82-12.73-8,2.4,4.51,15-6.23,1.87-6.93-23.14,33.58-10.06,6.95,23.18-6.25,1.87-4.52-15.08-7.08,2.12,3.81,12.73Z"/><path class="cls-9" d="M52.35,314.72a1.25,1.25,0,0,0-.47-1,5.63,5.63,0,0,0-1.64-.76,15.17,15.17,0,0,1-1.92-.77q-2.43-1.19-2.43-3.27a3,3,0,0,1,.6-1.84,4,4,0,0,1,1.72-1.23,6.49,6.49,0,0,1,2.48-.44,5.84,5.84,0,0,1,2.42.48,3.81,3.81,0,0,1,1.66,1.37,3.58,3.58,0,0,1,.59,2h-3a1.52,1.52,0,0,0-.47-1.18,1.82,1.82,0,0,0-1.27-.42,2,2,0,0,0-1.27.36,1,1,0,0,0,0,1.77,6.42,6.42,0,0,0,1.81.81,11.55,11.55,0,0,1,2.13.9,3.56,3.56,0,0,1,2,3.21,3.08,3.08,0,0,1-1.23,2.58,5.55,5.55,0,0,1-3.39.93,6.75,6.75,0,0,1-2.75-.54,4.2,4.2,0,0,1-1.86-1.5,3.92,3.92,0,0,1-.62-2.18h3a1.9,1.9,0,0,0,.52,1.48,2.45,2.45,0,0,0,1.69.48,1.92,1.92,0,0,0,1.18-.33A1.07,1.07,0,0,0,52.35,314.72Z"/><path class="cls-9" d="M56.71,313.31a5.47,5.47,0,0,1,.54-2.47,3.8,3.8,0,0,1,1.55-1.67,4.66,4.66,0,0,1,2.38-.58,4.26,4.26,0,0,1,3.28,1.29,5,5,0,0,1,1.2,3.51v.1a4.83,4.83,0,0,1-1.2,3.45A4.84,4.84,0,0,1,58,317a4.67,4.67,0,0,1-1.3-3.22Zm2.89.18a3.45,3.45,0,0,0,.4,1.89,1.35,1.35,0,0,0,1.19.6c1,0,1.56-.79,1.58-2.38v-.29q0-2.49-1.59-2.49c-1,0-1.49.71-1.57,2.15Z"/><path class="cls-9" d="M70,308.76l.09,1.09a3.19,3.19,0,0,1,2.65-1.26A2.34,2.34,0,0,1,75.09,310a3.09,3.09,0,0,1,2.73-1.39c1.88,0,2.85,1.13,2.9,3.41v6h-2.9v-5.86a1.79,1.79,0,0,0-.24-1,1,1,0,0,0-.88-.32,1.37,1.37,0,0,0-1.28.76V318h-2.9V312.2a1.83,1.83,0,0,0-.23-1.06,1,1,0,0,0-.88-.32,1.37,1.37,0,0,0-1.27.76V318H67.26v-9.28Z"/><path class="cls-9" d="M87.16,318.21a4.76,4.76,0,0,1-3.46-1.27,4.41,4.41,0,0,1-1.32-3.32v-.24a5.69,5.69,0,0,1,.53-2.51,3.83,3.83,0,0,1,1.54-1.69,4.59,4.59,0,0,1,2.4-.59,4,4,0,0,1,3.09,1.21,4.79,4.79,0,0,1,1.13,3.38v1.13H85.32a2.08,2.08,0,0,0,.68,1.22,2,2,0,0,0,1.36.45,2.59,2.59,0,0,0,2.14-1l1.32,1.56a3.72,3.72,0,0,1-1.53,1.19A5.24,5.24,0,0,1,87.16,318.21Zm-.33-7.39c-.84,0-1.35.56-1.51,1.68h2.92v-.23a1.44,1.44,0,0,0-.35-1.07A1.39,1.39,0,0,0,86.83,310.82Z"/><path class="cls-9" d="M101.13,316a1.27,1.27,0,0,0,.94-.33,1.17,1.17,0,0,0,.33-.92h2.71a3.19,3.19,0,0,1-1.09,2.5,4,4,0,0,1-2.82,1A4.11,4.11,0,0,1,98,316.94a5,5,0,0,1-1.17-3.52v-.12a5.61,5.61,0,0,1,.52-2.48,3.84,3.84,0,0,1,1.5-1.66,4.5,4.5,0,0,1,2.31-.57,4,4,0,0,1,2.88,1,3.56,3.56,0,0,1,1.06,2.72H102.4a1.62,1.62,0,0,0-.35-1.11,1.21,1.21,0,0,0-.94-.38c-.75,0-1.19.47-1.32,1.43a10.06,10.06,0,0,0-.06,1.25,3.89,3.89,0,0,0,.34,1.94A1.15,1.15,0,0,0,101.13,316Z"/><path class="cls-9" d="M109.68,318h-2.9V304.86h2.9Z"/><path class="cls-9" d="M111.4,313.31a5.47,5.47,0,0,1,.54-2.47,3.86,3.86,0,0,1,1.55-1.67,4.69,4.69,0,0,1,2.38-.58,4.26,4.26,0,0,1,3.28,1.29,5,5,0,0,1,1.2,3.51v.1a4.83,4.83,0,0,1-1.2,3.45,4.84,4.84,0,0,1-6.45.08,4.62,4.62,0,0,1-1.29-3.22Zm2.89.18a3.45,3.45,0,0,0,.4,1.89,1.35,1.35,0,0,0,1.19.6c1,0,1.56-.79,1.58-2.38v-.29q0-2.49-1.59-2.49c-1,0-1.49.71-1.57,2.15Z"/><path class="cls-9" d="M125.29,306.45v2.31h1.53v2h-1.53V315a1.12,1.12,0,0,0,.19.73,1,1,0,0,0,.75.21,4.77,4.77,0,0,0,.72-.05V318a5.19,5.19,0,0,1-1.63.25,3,3,0,0,1-2.21-.7,2.91,2.91,0,0,1-.71-2.14v-4.61h-1.18v-2h1.18v-2.31Z"/><path class="cls-9" d="M131.08,309.75a3.2,3.2,0,0,1,4.69-.26,4.17,4.17,0,0,1,.8,2.69V318h-2.9v-5.79a1.65,1.65,0,0,0-.3-1.09,1.33,1.33,0,0,0-1-.34,1.39,1.39,0,0,0-1.26.56V318h-2.89V304.86h2.89Z"/><path class="cls-9" d="M138.61,309.46l-1.27-.69a5,5,0,0,0,.72-2.41v-1.5h2.12v1.4a3.85,3.85,0,0,1-.46,1.7A5.14,5.14,0,0,1,138.61,309.46Z"/><path class="cls-9" d="M145,315.43a.68.68,0,0,0-.38-.59,5.93,5.93,0,0,0-1.47-.46,6.55,6.55,0,0,1-1.78-.63,3.06,3.06,0,0,1-1.08-.95,2.31,2.31,0,0,1-.37-1.28,2.6,2.6,0,0,1,1.06-2.11,4.34,4.34,0,0,1,2.76-.82,4.76,4.76,0,0,1,2.95.83,2.58,2.58,0,0,1,1.12,2.19h-2.9c0-.75-.39-1.12-1.18-1.12a1.16,1.16,0,0,0-.76.25.78.78,0,0,0-.31.63.73.73,0,0,0,.38.63,3.48,3.48,0,0,0,1.2.39,11.88,11.88,0,0,1,1.46.37,2.65,2.65,0,0,1,2.09,2.59,2.43,2.43,0,0,1-1.13,2.06,4.87,4.87,0,0,1-2.92.8,5,5,0,0,1-2.13-.43,3.45,3.45,0,0,1-1.45-1.16,2.67,2.67,0,0,1-.53-1.56h2.7a1.16,1.16,0,0,0,.43.94,1.77,1.77,0,0,0,1.06.3,1.41,1.41,0,0,0,.89-.24A.79.79,0,0,0,145,315.43Z"/><path class="cls-9" d="M159.35,318a3.5,3.5,0,0,1-.27-.83,2.69,2.69,0,0,1-2.23,1,3.27,3.27,0,0,1-2.23-.79,2.55,2.55,0,0,1-.92-2,2.6,2.6,0,0,1,1.12-2.28,5.7,5.7,0,0,1,3.24-.77H159v-.49q0-1.29-1.11-1.29a.91.91,0,0,0-1,1h-2.89a2.57,2.57,0,0,1,1.15-2.18,4.81,4.81,0,0,1,2.92-.84,4.19,4.19,0,0,1,2.8.86,3,3,0,0,1,1.06,2.38v4.11a4.19,4.19,0,0,0,.39,1.95V318Zm-1.81-1.89a1.67,1.67,0,0,0,.9-.23,1.4,1.4,0,0,0,.51-.52v-1.49h-.84c-1,0-1.51.46-1.51,1.36a.82.82,0,0,0,.27.64A1,1,0,0,0,157.54,316.15Z"/><path class="cls-9" d="M169.36,311.37l-1-.06c-.91,0-1.49.28-1.75.85V318h-2.89v-9.28h2.71l.1,1.19a2.22,2.22,0,0,1,2-1.36,2.69,2.69,0,0,1,.8.1Z"/><path class="cls-9" d="M175,318.21a4.75,4.75,0,0,1-3.45-1.27,4.42,4.42,0,0,1-1.33-3.32v-.24a5.69,5.69,0,0,1,.53-2.51,3.88,3.88,0,0,1,1.54-1.69,4.64,4.64,0,0,1,2.4-.59,4,4,0,0,1,3.09,1.21,4.75,4.75,0,0,1,1.14,3.38v1.13H173.2a2,2,0,0,0,.68,1.22,2,2,0,0,0,1.35.45,2.61,2.61,0,0,0,2.15-1l1.32,1.56a3.72,3.72,0,0,1-1.53,1.19A5.32,5.32,0,0,1,175,318.21Zm-.32-7.39c-.85,0-1.35.56-1.51,1.68h2.91v-.23a1.28,1.28,0,0,0-1.4-1.45Z"/><path class="cls-9" d="M187.81,308.76l.1,1.09a3.19,3.19,0,0,1,2.65-1.26,2.34,2.34,0,0,1,2.37,1.39,3.09,3.09,0,0,1,2.73-1.39c1.88,0,2.85,1.13,2.9,3.41v6h-2.9v-5.86a1.79,1.79,0,0,0-.24-1,1,1,0,0,0-.87-.32,1.37,1.37,0,0,0-1.28.76V318h-2.9V312.2a1.91,1.91,0,0,0-.23-1.06,1,1,0,0,0-.89-.32,1.39,1.39,0,0,0-1.27.76V318H185.1v-9.28Z"/><path class="cls-9" d="M200.49,306.36a1.28,1.28,0,0,1,.45-1,1.7,1.7,0,0,1,1.16-.39,1.67,1.67,0,0,1,1.15.39,1.28,1.28,0,0,1,.45,1,1.3,1.3,0,0,1-.45,1,1.67,1.67,0,0,1-1.15.39,1.7,1.7,0,0,1-1.16-.39A1.3,1.3,0,0,1,200.49,306.36ZM203.56,318h-2.9v-9.28h2.9Z"/><path class="cls-9" d="M210.5,315.43a.68.68,0,0,0-.38-.59,5.93,5.93,0,0,0-1.47-.46,6.76,6.76,0,0,1-1.79-.63,3.11,3.11,0,0,1-1.07-.95,2.31,2.31,0,0,1-.37-1.28,2.57,2.57,0,0,1,1.06-2.11,4.34,4.34,0,0,1,2.76-.82,4.78,4.78,0,0,1,2.95.83,2.58,2.58,0,0,1,1.12,2.19h-2.9c0-.75-.39-1.12-1.18-1.12a1.14,1.14,0,0,0-.76.25.78.78,0,0,0-.31.63.73.73,0,0,0,.38.63,3.48,3.48,0,0,0,1.2.39,12.36,12.36,0,0,1,1.46.37,2.65,2.65,0,0,1,2.09,2.59,2.43,2.43,0,0,1-1.13,2.06,4.87,4.87,0,0,1-2.92.8,5,5,0,0,1-2.13-.43,3.55,3.55,0,0,1-1.46-1.16,2.73,2.73,0,0,1-.52-1.56h2.7a1.16,1.16,0,0,0,.43.94,1.77,1.77,0,0,0,1.06.3,1.41,1.41,0,0,0,.89-.24A.79.79,0,0,0,210.5,315.43Z"/><path class="cls-9" d="M219.8,315.43a.67.67,0,0,0-.39-.59,5.67,5.67,0,0,0-1.46-.46,6.76,6.76,0,0,1-1.79-.63,3,3,0,0,1-1.07-.95,2.24,2.24,0,0,1-.37-1.28,2.57,2.57,0,0,1,1.06-2.11,4.34,4.34,0,0,1,2.76-.82,4.78,4.78,0,0,1,3,.83,2.61,2.61,0,0,1,1.12,2.19h-2.9c0-.75-.4-1.12-1.18-1.12a1.14,1.14,0,0,0-.76.25.78.78,0,0,0-.31.63.72.72,0,0,0,.37.63,3.63,3.63,0,0,0,1.21.39,11.69,11.69,0,0,1,1.45.37,2.64,2.64,0,0,1,2.1,2.59,2.43,2.43,0,0,1-1.13,2.06,4.89,4.89,0,0,1-2.92.8,5,5,0,0,1-2.13-.43,3.55,3.55,0,0,1-1.46-1.16,2.65,2.65,0,0,1-.52-1.56h2.7a1.13,1.13,0,0,0,.43.94,1.75,1.75,0,0,0,1.06.3,1.36,1.36,0,0,0,.88-.24A.77.77,0,0,0,219.8,315.43Z"/><path class="cls-9" d="M224.22,306.36a1.3,1.3,0,0,1,.44-1,1.71,1.71,0,0,1,1.16-.39,1.7,1.7,0,0,1,1.16.39,1.28,1.28,0,0,1,.45,1,1.3,1.3,0,0,1-.45,1,1.7,1.7,0,0,1-1.16.39,1.71,1.71,0,0,1-1.16-.39A1.32,1.32,0,0,1,224.22,306.36ZM227.29,318h-2.9v-9.28h2.9Z"/><path class="cls-9" d="M232,308.76l.1,1.09a3.14,3.14,0,0,1,2.65-1.26,2.62,2.62,0,0,1,2.16.86,4.14,4.14,0,0,1,.75,2.61v6h-2.9v-5.86a1.54,1.54,0,0,0-.29-1,1.31,1.31,0,0,0-1-.33,1.38,1.38,0,0,0-1.26.67V318h-2.89v-9.28Z"/><path class="cls-9" d="M239.24,313.33a6.25,6.25,0,0,1,.46-2.49,3.72,3.72,0,0,1,1.33-1.67,3.51,3.51,0,0,1,2-.58,2.79,2.79,0,0,1,2.27,1l.1-.8H248v8.93a3.9,3.9,0,0,1-.57,2.13,3.66,3.66,0,0,1-1.65,1.39,6.14,6.14,0,0,1-2.51.48,5.2,5.2,0,0,1-2-.38,3.58,3.58,0,0,1-1.46-1l1.21-1.69a2.67,2.67,0,0,0,2.13.95,1.72,1.72,0,0,0,1.92-2v-.3a2.7,2.7,0,0,1-2.1.92,3.36,3.36,0,0,1-2.75-1.3,5.37,5.37,0,0,1-1-3.48Zm2.9.18a3.39,3.39,0,0,0,.42,1.81,1.37,1.37,0,0,0,1.21.66,1.53,1.53,0,0,0,1.36-.63v-3.9a1.5,1.5,0,0,0-1.35-.63,1.37,1.37,0,0,0-1.21.69A3.76,3.76,0,0,0,242.14,313.51Z"/><path class="cls-9" d="M250.05,316.74a1.35,1.35,0,0,1,.46-1,1.69,1.69,0,0,1,1.15-.41,1.66,1.66,0,0,1,1.14.41,1.42,1.42,0,0,1,0,2.09,1.65,1.65,0,0,1-1.14.4,1.68,1.68,0,0,1-1.15-.4A1.36,1.36,0,0,1,250.05,316.74Zm2.8-2.65h-2.34l-.37-8.54h3.08Z"/></g></g></svg>