<svg xmlns="http://www.w3.org/2000/svg" width="21.793" height="21.928" viewBox="0 0 21.793 21.928">
  <path id="bag_3" d="M309.145,518.409a2.716,2.716,0,0,0-2.042-.927h-.3l-1.1-4.445A1.361,1.361,0,0,0,304.38,512h-10.9a1.371,1.371,0,0,0-1.322,1.037l-1.1,4.445h-.3a2.716,2.716,0,0,0-2.042.927,2.753,2.753,0,0,0-.661,2.154l1.361,10.964a2.731,2.731,0,0,0,2.7,2.4h13.62a2.731,2.731,0,0,0,2.7-2.4l1.362-10.964a2.755,2.755,0,0,0-.662-2.154Zm-14.6-3.667h8.771l.685,2.741H293.871Zm-2.426,16.446-1.362-10.964H307.1l-1.362,10.964h-13.62Zm4.09-8.223a1.371,1.371,0,0,0-1.361,1.37v2.741a1.362,1.362,0,1,0,2.723,0v-2.741A1.371,1.371,0,0,0,296.21,522.964Zm5.449,0a1.371,1.371,0,0,0-1.362,1.37v2.741a1.362,1.362,0,1,0,2.725,0v-2.741a1.371,1.371,0,0,0-1.366-1.37Z" transform="translate(-288.035 -512)" fill="#663636" fill-rule="evenodd"/>
</svg>
