<svg xmlns="http://www.w3.org/2000/svg" width="14.599" height="18.248" viewBox="0 0 14.599 18.248">
  <defs>
    <style>
      .cls-1 {
        fill: #d9b691;
      }
    </style>
  </defs>
  <path id="Icon_material-local-off_state_laundry-service" data-name="Icon material-local-off state laundry-service" class="cls-1" d="M10.717,16.531a3.652,3.652,0,0,0,5.164-5.164ZM18.774,3.009,7.825,3A1.819,1.819,0,0,0,6,4.825v14.6a1.819,1.819,0,0,0,1.825,1.825H18.774A1.819,1.819,0,0,0,20.6,19.423V4.825A1.811,1.811,0,0,0,18.774,3.009Zm-7.3,1.816a.912.912,0,1,1-.912.912A.915.915,0,0,1,11.474,4.825Zm-2.737,0a.912.912,0,1,1-.912.912A.915.915,0,0,1,8.737,4.825Zm4.562,14.6a5.474,5.474,0,1,1,5.474-5.474A5.479,5.479,0,0,1,13.3,19.423Z" transform="translate(-6 -3)"/>
</svg>
