<svg xmlns="http://www.w3.org/2000/svg" viewBox="0 0 45.76 51.69"><defs><style>.cls-1{fill:#4d4d4d;}</style></defs><g id="Layer_2" data-name="Layer 2"><g id="Layer_2-2" data-name="Layer 2"><path class="cls-1" d="M34.67,23.65h0a1,1,0,0,1-.51-.28l0,0a1.25,1.25,0,0,1-.37-.89,1.32,1.32,0,0,1,.08-.44h0a1.1,1.1,0,0,1,.38-.52,13.72,13.72,0,1,0-22.58.15l.09.12a1.21,1.21,0,0,1,.22.7,1.27,1.27,0,0,1-.54,1,1.67,1.67,0,0,1-.23.12A22.2,22.2,0,0,0,0,43v1.28a7.46,7.46,0,0,0,7.45,7.45H38.31a7.46,7.46,0,0,0,7.45-7.45V43A22.2,22.2,0,0,0,34.67,23.65Zm7.09,20.59a3.46,3.46,0,0,1-3.45,3.45H7.45A3.46,3.46,0,0,1,4,44.24V43A18.23,18.23,0,0,1,17,25.42L18.4,25a.88.88,0,0,0,.23-.07l.16-.08.15-.11a.54.54,0,0,0,.15-.15.8.8,0,0,0,.15-.21l.06-.12a.88.88,0,0,0,.07-.23,1.15,1.15,0,0,0,0-.26,1.18,1.18,0,0,0-.15-.59,1,1,0,0,0-.1-.17s0,0,0,0A1.21,1.21,0,0,0,19,22.8l-.2-.14,0,0-1.21-.8a9.73,9.73,0,1,1,10.74,0l-1.1.73-.57.38a1.23,1.23,0,0,0-.3.81,1.24,1.24,0,0,0,.66,1.11l.45.13,1.38.42A18.23,18.23,0,0,1,41.76,43Z"/></g></g></svg>